NotoSerifDisplay-CondensedItalic.ufo
<glyph name="exclam" format="2">
  <advance width="276"/>
  <unicode hex="0021"/>
  <outline>
    <contour>
      <point x="117" y="209" type="line"/>
      <point x="131" y="209" type="line"/>
      <point x="286" y="714" type="line"/>
      <point x="188" y="714" type="line"/>
    </contour>
    <contour>
      <point x="90" y="-6" type="curve" smooth="yes"/>
      <point x="120" y="-6"/>
      <point x="144" y="24"/>
      <point x="144" y="64" type="curve" smooth="yes"/>
      <point x="144" y="96"/>
      <point x="127" y="111"/>
      <point x="102" y="111" type="curve" smooth="yes"/>
      <point x="68" y="111"/>
      <point x="48" y="77"/>
      <point x="48" y="41" type="curve" smooth="yes"/>
      <point x="48" y="8"/>
      <point x="65" y="-6"/>
    </contour>
  </outline>
</glyph>
<glyph name="dollar" format="2">
  <advance width="459"/>
  <unicode hex="0024"/>
  <outline>
    <contour>
      <point x="158" y="-79" type="line"/>
      <point x="168" y="-79" type="line"/>
      <point x="192" y="33" type="line"/>
      <point x="323" y="34"/>
      <point x="409" y="99"/>
      <point x="409" y="226" type="curve" smooth="yes"/>
      <point x="409" y="288"/>
      <point x="382" y="327"/>
      <point x="295" y="391" type="curve" smooth="yes"/>
      <point x="271" y="408" type="line"/>
      <point x="327" y="673" type="line"/>
      <point x="387" y="669"/>
      <point x="401" y="619"/>
      <point x="401" y="530" type="curve"/>
      <point x="453" y="530"/>
      <point x="475" y="550"/>
      <point x="475" y="583" type="curve" smooth="yes"/>
      <point x="475" y="632"/>
      <point x="430" y="679"/>
      <point x="329" y="682" type="curve"/>
      <point x="346" y="760" type="line"/>
      <point x="336" y="760" type="line"/>
      <point x="319" y="682" type="line"/>
      <point x="193" y="681"/>
      <point x="119" y="603"/>
      <point x="119" y="497" type="curve" smooth="yes"/>
      <point x="119" y="412"/>
      <point x="167" y="378"/>
      <point x="225" y="337" type="curve" smooth="yes"/>
      <point x="243" y="323" type="line"/>
      <point x="184" y="42" type="line"/>
      <point x="111" y="45"/>
      <point x="86" y="96"/>
      <point x="86" y="222" type="curve"/>
      <point x="41" y="221"/>
      <point x="13" y="204"/>
      <point x="13" y="157" type="curve" smooth="yes"/>
      <point x="13" y="89"/>
      <point x="69" y="37"/>
      <point x="182" y="33" type="curve"/>
    </contour>
    <contour>
      <point x="194" y="42" type="curve"/>
      <point x="252" y="316" type="line"/>
      <point x="313" y="268"/>
      <point x="333" y="240"/>
      <point x="333" y="181" type="curve" smooth="yes"/>
      <point x="333" y="100"/>
      <point x="289" y="44"/>
    </contour>
    <contour>
      <point x="263" y="416" type="line"/>
      <point x="217" y="454"/>
      <point x="196" y="481"/>
      <point x="196" y="536" type="curve" smooth="yes"/>
      <point x="196" y="615"/>
      <point x="240" y="671"/>
      <point x="318" y="673" type="curve"/>
    </contour>
  </outline>
</glyph>
<glyph name="ampersand" format="2">
  <advance width="610"/>
  <unicode hex="0026"/>
  <outline>
    <contour>
      <point x="201" y="-10" type="curve" smooth="yes"/>
      <point x="283" y="-10"/>
      <point x="336" y="36"/>
      <point x="376" y="88" type="curve"/>
      <point x="421" y="0" type="line"/>
      <point x="548" y="0" type="line"/>
      <point x="550" y="10" type="line"/>
      <point x="537" y="10" type="line" smooth="yes"/>
      <point x="515" y="10"/>
      <point x="508" y="13"/>
      <point x="487" y="50" type="curve" smooth="yes"/>
      <point x="427" y="157" type="line"/>
      <point x="458" y="216"/>
      <point x="483" y="291"/>
      <point x="512" y="363" type="curve" smooth="yes"/>
      <point x="525" y="400"/>
      <point x="535" y="407"/>
      <point x="574" y="407" type="curve" smooth="yes"/>
      <point x="603" y="407" type="line"/>
      <point x="605" y="417" type="line"/>
      <point x="471" y="417" type="line"/>
      <point x="461" y="371" type="line" smooth="yes"/>
      <point x="449" y="318"/>
      <point x="428" y="249"/>
      <point x="404" y="194" type="curve"/>
      <point x="288" y="413" type="line"/>
      <point x="404" y="469"/>
      <point x="472" y="509"/>
      <point x="472" y="600" type="curve" smooth="yes"/>
      <point x="472" y="667"/>
      <point x="431" y="724"/>
      <point x="338" y="724" type="curve" smooth="yes"/>
      <point x="233" y="724"/>
      <point x="163" y="657"/>
      <point x="163" y="555" type="curve" smooth="yes"/>
      <point x="163" y="497"/>
      <point x="184" y="450"/>
      <point x="215" y="391" type="curve"/>
      <point x="114" y="349"/>
      <point x="24" y="295"/>
      <point x="24" y="169" type="curve" smooth="yes"/>
      <point x="24" y="67"/>
      <point x="76" y="-10"/>
    </contour>
    <contour>
      <point x="210" y="0" type="curve" smooth="yes"/>
      <point x="140" y="0"/>
      <point x="107" y="58"/>
      <point x="107" y="169" type="curve" smooth="yes"/>
      <point x="107" y="283"/>
      <point x="154" y="338"/>
      <point x="219" y="381" type="curve"/>
      <point x="360" y="116" type="line"/>
      <point x="324" y="50"/>
      <point x="277" y="0"/>
    </contour>
    <contour>
      <point x="284" y="423" type="curve" smooth="yes"/>
      <point x="255" y="475"/>
      <point x="236" y="523"/>
      <point x="236" y="573" type="curve" smooth="yes"/>
      <point x="236" y="655"/>
      <point x="273" y="714"/>
      <point x="337" y="714" type="curve" smooth="yes"/>
      <point x="387" y="714"/>
      <point x="409" y="671"/>
      <point x="409" y="606" type="curve" smooth="yes"/>
      <point x="409" y="522"/>
      <point x="369" y="468"/>
    </contour>
  </outline>
</glyph>
<glyph name="parenleft" format="2">
  <advance width="284"/>
  <unicode hex="0028"/>
  <outline>
    <contour>
      <point x="172" y="-128" type="curve"/>
      <point x="174" y="-119" type="line"/>
      <point x="134" y="-76"/>
      <point x="111" y="21"/>
      <point x="111" y="175" type="curve" smooth="yes"/>
      <point x="111" y="349"/>
      <point x="176" y="648"/>
      <point x="346" y="750" type="curve"/>
      <point x="348" y="760" type="line"/>
      <point x="125" y="683"/>
      <point x="28" y="428"/>
      <point x="28" y="190" type="curve" smooth="yes"/>
      <point x="28" y="39"/>
      <point x="76" y="-77"/>
    </contour>
  </outline>
</glyph>
<glyph name="parenright" format="2">
  <advance width="279"/>
  <unicode hex="0029"/>
  <outline>
    <contour>
      <point x="-46" y="-125" type="line"/>
      <point x="177" y="-48"/>
      <point x="274" y="207"/>
      <point x="274" y="444" type="curve" smooth="yes"/>
      <point x="274" y="596"/>
      <point x="226" y="711"/>
      <point x="130" y="763" type="curve"/>
      <point x="128" y="754" type="line"/>
      <point x="167" y="710"/>
      <point x="191" y="614"/>
      <point x="191" y="460" type="curve" smooth="yes"/>
      <point x="191" y="285"/>
      <point x="126" y="-14"/>
      <point x="-44" y="-115" type="curve"/>
    </contour>
  </outline>
</glyph>
<glyph name="asterisk" format="2">
  <advance width="407"/>
  <unicode hex="002A"/>
  <outline>
    <contour>
      <point x="267" y="401" type="line"/>
      <point x="273" y="570" type="line"/>
      <point x="372" y="447" type="line"/>
      <point x="412" y="500" type="line"/>
      <point x="280" y="581" type="line"/>
      <point x="434" y="599" type="line"/>
      <point x="418" y="665" type="line"/>
      <point x="278" y="593" type="line"/>
      <point x="341" y="749" type="line"/>
      <point x="275" y="763" type="line"/>
      <point x="267" y="596" type="line"/>
      <point x="169" y="720" type="line"/>
      <point x="129" y="665" type="line"/>
      <point x="261" y="584" type="line"/>
      <point x="107" y="565" type="line"/>
      <point x="122" y="499" type="line"/>
      <point x="262" y="572" type="line"/>
      <point x="202" y="415" type="line"/>
    </contour>
  </outline>
</glyph>
<glyph name="period" format="2">
  <advance width="199"/>
  <unicode hex="002E"/>
  <outline>
    <contour>
      <point x="59" y="-6" type="curve" smooth="yes"/>
      <point x="88" y="-6"/>
      <point x="113" y="20"/>
      <point x="113" y="64" type="curve" smooth="yes"/>
      <point x="113" y="94"/>
      <point x="96" y="111"/>
      <point x="68" y="111" type="curve" smooth="yes"/>
      <point x="34" y="111"/>
      <point x="14" y="79"/>
      <point x="14" y="41" type="curve" smooth="yes"/>
      <point x="14" y="9"/>
      <point x="32" y="-6"/>
    </contour>
  </outline>
</glyph>
<glyph name="one" format="2">
  <advance width="459"/>
  <unicode hex="0031"/>
  <outline>
    <contour>
      <point x="37" y="0" type="line"/>
      <point x="336" y="0" type="line"/>
      <point x="339" y="10" type="line"/>
      <point x="292" y="10" type="line" smooth="yes"/>
      <point x="252" y="10"/>
      <point x="239" y="14"/>
      <point x="239" y="33" type="curve" smooth="yes"/>
      <point x="239" y="45"/>
      <point x="242" y="65"/>
      <point x="245" y="79" type="curve" smooth="yes"/>
      <point x="380" y="718" type="line"/>
      <point x="350" y="718" type="line"/>
      <point x="278" y="663" type="line" smooth="yes"/>
      <point x="216" y="611"/>
      <point x="189" y="595"/>
      <point x="124" y="595" type="curve"/>
      <point x="124" y="563"/>
      <point x="134" y="549"/>
      <point x="157" y="549" type="curve" smooth="yes"/>
      <point x="192" y="549"/>
      <point x="224" y="578"/>
      <point x="289" y="662" type="curve"/>
      <point x="290" y="662" type="line"/>
      <point x="281" y="628"/>
      <point x="264" y="567"/>
      <point x="246" y="481" type="curve" smooth="yes"/>
      <point x="159" y="63" type="line" smooth="yes"/>
      <point x="150" y="18"/>
      <point x="130" y="10"/>
      <point x="87" y="10" type="curve" smooth="yes"/>
      <point x="40" y="10" type="line"/>
    </contour>
  </outline>
</glyph>
<glyph name="three" format="2">
  <advance width="459"/>
  <unicode hex="0033"/>
  <outline>
    <contour>
      <point x="167" y="-10" type="curve" smooth="yes"/>
      <point x="304" y="-10"/>
      <point x="392" y="79"/>
      <point x="392" y="218" type="curve" smooth="yes"/>
      <point x="392" y="322"/>
      <point x="332" y="367"/>
      <point x="247" y="375" type="curve"/>
      <point x="352" y="388"/>
      <point x="447" y="456"/>
      <point x="447" y="574" type="curve" smooth="yes"/>
      <point x="447" y="670"/>
      <point x="387" y="724"/>
      <point x="299" y="724" type="curve" smooth="yes"/>
      <point x="180" y="724"/>
      <point x="117" y="642"/>
      <point x="117" y="575" type="curve" smooth="yes"/>
      <point x="117" y="537"/>
      <point x="144" y="526"/>
      <point x="184" y="526" type="curve"/>
      <point x="196" y="659"/>
      <point x="226" y="714"/>
      <point x="288" y="714" type="curve" smooth="yes"/>
      <point x="341" y="714"/>
      <point x="362" y="672"/>
      <point x="362" y="607" type="curve" smooth="yes"/>
      <point x="362" y="477"/>
      <point x="305" y="379"/>
      <point x="207" y="379" type="curve" smooth="yes"/>
      <point x="164" y="379" type="line"/>
      <point x="162" y="369" type="line"/>
      <point x="212" y="369" type="line" smooth="yes"/>
      <point x="275" y="369"/>
      <point x="306" y="331"/>
      <point x="306" y="235" type="curve" smooth="yes"/>
      <point x="306" y="107"/>
      <point x="253" y="0"/>
      <point x="170" y="0" type="curve" smooth="yes"/>
      <point x="97" y="0"/>
      <point x="71" y="55"/>
      <point x="73" y="167" type="curve"/>
      <point x="32" y="167"/>
      <point x="8" y="145"/>
      <point x="8" y="109" type="curve" smooth="yes"/>
      <point x="8" y="56"/>
      <point x="54" y="-10"/>
    </contour>
  </outline>
</glyph>
<glyph name="four" format="2">
  <advance width="459"/>
  <unicode hex="0034"/>
  <outline>
    <contour>
      <point x="110" y="0" type="line"/>
      <point x="374" y="0" type="line"/>
      <point x="376" y="10" type="line"/>
      <point x="349" y="10" type="line" smooth="yes"/>
      <point x="317" y="10"/>
      <point x="304" y="14"/>
      <point x="304" y="43" type="curve" smooth="yes"/>
      <point x="304" y="49"/>
      <point x="306" y="67"/>
      <point x="309" y="79" type="curve" smooth="yes"/>
      <point x="442" y="714" type="line"/>
      <point x="363" y="714" type="line"/>
      <point x="27" y="242" type="line"/>
      <point x="18" y="199" type="line"/>
      <point x="430" y="199" type="line"/>
      <point x="439" y="245" type="line"/>
      <point x="42" y="245" type="line"/>
      <point x="43" y="244" type="line"/>
      <point x="275" y="572" type="line" smooth="yes"/>
      <point x="304" y="614"/>
      <point x="343" y="668"/>
      <point x="363" y="701" type="curve"/>
      <point x="347" y="639"/>
      <point x="332" y="585"/>
      <point x="319" y="524" type="curve" smooth="yes"/>
      <point x="224" y="77" type="line" smooth="yes"/>
      <point x="212" y="21"/>
      <point x="198" y="10"/>
      <point x="157" y="10" type="curve" smooth="yes"/>
      <point x="112" y="10" type="line"/>
    </contour>
  </outline>
</glyph>
<glyph name="five" format="2">
  <advance width="459"/>
  <unicode hex="0035"/>
  <outline>
    <contour>
      <point x="166" y="-10" type="curve" smooth="yes"/>
      <point x="324" y="-10"/>
      <point x="396" y="116"/>
      <point x="396" y="248" type="curve" smooth="yes"/>
      <point x="396" y="367"/>
      <point x="334" y="429"/>
      <point x="237" y="429" type="curve" smooth="yes"/>
      <point x="192" y="429"/>
      <point x="138" y="413"/>
      <point x="113" y="386" type="curve"/>
      <point x="186" y="644" type="line"/>
      <point x="413" y="644" type="line" smooth="yes"/>
      <point x="429" y="644"/>
      <point x="434" y="636"/>
      <point x="434" y="620" type="curve" smooth="yes"/>
      <point x="434" y="608"/>
      <point x="431" y="588"/>
      <point x="428" y="563" type="curve"/>
      <point x="437" y="563" type="line"/>
      <point x="467" y="714" type="line"/>
      <point x="192" y="714" type="line"/>
      <point x="97" y="373" type="line"/>
      <point x="106" y="370" type="line"/>
      <point x="134" y="397"/>
      <point x="176" y="415"/>
      <point x="212" y="415" type="curve" smooth="yes"/>
      <point x="282" y="415"/>
      <point x="311" y="357"/>
      <point x="311" y="255" type="curve" smooth="yes"/>
      <point x="311" y="112"/>
      <point x="252" y="0"/>
      <point x="166" y="0" type="curve" smooth="yes"/>
      <point x="98" y="0"/>
      <point x="73" y="73"/>
      <point x="76" y="176" type="curve"/>
      <point x="36" y="176"/>
      <point x="19" y="151"/>
      <point x="19" y="117" type="curve" smooth="yes"/>
      <point x="19" y="59"/>
      <point x="60" y="-10"/>
    </contour>
  </outline>
</glyph>
<glyph name="six" format="2">
  <advance width="459"/>
  <unicode hex="0036"/>
  <outline>
    <contour>
      <point x="222" y="-10" type="curve" smooth="yes"/>
      <point x="360" y="-10"/>
      <point x="423" y="137"/>
      <point x="423" y="267" type="curve" smooth="yes"/>
      <point x="423" y="366"/>
      <point x="382" y="435"/>
      <point x="293" y="435" type="curve" smooth="yes"/>
      <point x="237" y="435"/>
      <point x="192" y="407"/>
      <point x="163" y="374" type="curve"/>
      <point x="199" y="588"/>
      <point x="277" y="714"/>
      <point x="356" y="714" type="curve" smooth="yes"/>
      <point x="407" y="714"/>
      <point x="414" y="659"/>
      <point x="412" y="563" type="curve"/>
      <point x="458" y="563"/>
      <point x="486" y="585"/>
      <point x="486" y="623" type="curve" smooth="yes"/>
      <point x="486" y="678"/>
      <point x="447" y="724"/>
      <point x="365" y="724" type="curve" smooth="yes"/>
      <point x="171" y="724"/>
      <point x="66" y="466"/>
      <point x="66" y="231" type="curve" smooth="yes"/>
      <point x="66" y="55"/>
      <point x="131" y="-10"/>
    </contour>
    <contour>
      <point x="222" y="0" type="curve" smooth="yes"/>
      <point x="173" y="0"/>
      <point x="146" y="50"/>
      <point x="146" y="181" type="curve" smooth="yes"/>
      <point x="146" y="249"/>
      <point x="152" y="315"/>
      <point x="162" y="361" type="curve"/>
      <point x="193" y="399"/>
      <point x="234" y="418"/>
      <point x="268" y="418" type="curve" smooth="yes"/>
      <point x="317" y="418"/>
      <point x="346" y="379"/>
      <point x="346" y="281" type="curve" smooth="yes"/>
      <point x="346" y="129"/>
      <point x="300" y="0"/>
    </contour>
  </outline>
</glyph>
<glyph name="seven" format="2">
  <advance width="459"/>
  <unicode hex="0037"/>
  <outline>
    <contour>
      <point x="86" y="0" type="line"/>
      <point x="160" y="0" type="line"/>
      <point x="488" y="677" type="line"/>
      <point x="493" y="714" type="line"/>
      <point x="137" y="714" type="line"/>
      <point x="93" y="532" type="line"/>
      <point x="104" y="532" type="line"/>
      <point x="124" y="607" type="line" smooth="yes"/>
      <point x="133" y="638"/>
      <point x="147" y="648"/>
      <point x="173" y="648" type="curve" smooth="yes"/>
      <point x="460" y="648" type="line"/>
    </contour>
  </outline>
</glyph>
<glyph name="nine" format="2">
  <advance width="459"/>
  <unicode hex="0039"/>
  <outline>
    <contour>
      <point x="139" y="-11" type="curve" smooth="yes"/>
      <point x="354" y="-11"/>
      <point x="433" y="297"/>
      <point x="433" y="511" type="curve" smooth="yes"/>
      <point x="433" y="649"/>
      <point x="376" y="724"/>
      <point x="279" y="724" type="curve" smooth="yes"/>
      <point x="157" y="724"/>
      <point x="77" y="608"/>
      <point x="77" y="451" type="curve" smooth="yes"/>
      <point x="77" y="357"/>
      <point x="122" y="287"/>
      <point x="205" y="287" type="curve" smooth="yes"/>
      <point x="262" y="287"/>
      <point x="308" y="317"/>
      <point x="340" y="362" type="curve"/>
      <point x="295" y="129"/>
      <point x="239" y="-1"/>
      <point x="142" y="-1" type="curve" smooth="yes"/>
      <point x="84" y="-1"/>
      <point x="68" y="45"/>
      <point x="68" y="146" type="curve"/>
      <point x="36" y="146"/>
      <point x="17" y="126"/>
      <point x="17" y="92" type="curve" smooth="yes"/>
      <point x="17" y="39"/>
      <point x="53" y="-11"/>
    </contour>
    <contour>
      <point x="230" y="304" type="curve" smooth="yes"/>
      <point x="177" y="304"/>
      <point x="153" y="360"/>
      <point x="153" y="437" type="curve" smooth="yes"/>
      <point x="153" y="588"/>
      <point x="205" y="714"/>
      <point x="277" y="714" type="curve" smooth="yes"/>
      <point x="335" y="714"/>
      <point x="354" y="659"/>
      <point x="354" y="533" type="curve" smooth="yes"/>
      <point x="354" y="492"/>
      <point x="348" y="411"/>
      <point x="343" y="382" type="curve"/>
      <point x="319" y="344"/>
      <point x="280" y="304"/>
    </contour>
  </outline>
</glyph>
<glyph name="colon" format="2">
  <advance width="240"/>
  <unicode hex="003A"/>
  <outline>
    <contour>
      <point x="67" y="-6" type="curve" smooth="yes"/>
      <point x="96" y="-6"/>
      <point x="121" y="20"/>
      <point x="121" y="64" type="curve" smooth="yes"/>
      <point x="121" y="94"/>
      <point x="104" y="111"/>
      <point x="76" y="111" type="curve" smooth="yes"/>
      <point x="42" y="111"/>
      <point x="22" y="79"/>
      <point x="22" y="41" type="curve" smooth="yes"/>
      <point x="22" y="9"/>
      <point x="40" y="-6"/>
    </contour>
    <contour>
      <point x="160" y="423" type="curve" smooth="yes"/>
      <point x="189" y="423"/>
      <point x="214" y="449"/>
      <point x="214" y="493" type="curve" smooth="yes"/>
      <point x="214" y="523"/>
      <point x="197" y="541"/>
      <point x="169" y="541" type="curve" smooth="yes"/>
      <point x="135" y="541"/>
      <point x="115" y="509"/>
      <point x="115" y="470" type="curve" smooth="yes"/>
      <point x="115" y="438"/>
      <point x="133" y="423"/>
    </contour>
  </outline>
</glyph>
<glyph name="semicolon" format="2">
  <advance width="239"/>
  <unicode hex="003B"/>
  <outline>
    <contour>
      <point x="-34" y="-137" type="curve"/>
      <point x="-35" y="-146" type="line"/>
      <point x="78" y="-116"/>
      <point x="119" y="-37"/>
      <point x="119" y="43" type="curve" smooth="yes"/>
      <point x="119" y="86"/>
      <point x="99" y="111"/>
      <point x="66" y="111" type="curve" smooth="yes"/>
      <point x="37" y="111"/>
      <point x="21" y="92"/>
      <point x="21" y="65" type="curve" smooth="yes"/>
      <point x="21" y="20"/>
      <point x="66" y="17"/>
      <point x="66" y="-25" type="curve" smooth="yes"/>
      <point x="66" y="-65"/>
      <point x="31" y="-117"/>
    </contour>
    <contour>
      <point x="160" y="423" type="curve" smooth="yes"/>
      <point x="189" y="423"/>
      <point x="214" y="449"/>
      <point x="214" y="494" type="curve" smooth="yes"/>
      <point x="214" y="523"/>
      <point x="197" y="541"/>
      <point x="169" y="541" type="curve" smooth="yes"/>
      <point x="135" y="541"/>
      <point x="115" y="509"/>
      <point x="115" y="470" type="curve" smooth="yes"/>
      <point x="115" y="438"/>
      <point x="133" y="423"/>
    </contour>
  </outline>
</glyph>
<glyph name="question" format="2">
  <advance width="402"/>
  <unicode hex="003F"/>
  <outline>
    <contour>
      <point x="153" y="209" type="line"/>
      <point x="166" y="209" type="line"/>
      <point x="210" y="336" type="line"/>
      <point x="330" y="380"/>
      <point x="420" y="453"/>
      <point x="420" y="577" type="curve" smooth="yes"/>
      <point x="420" y="675"/>
      <point x="361" y="724"/>
      <point x="265" y="724" type="curve" smooth="yes"/>
      <point x="154" y="724"/>
      <point x="97" y="654"/>
      <point x="97" y="588" type="curve" smooth="yes"/>
      <point x="97" y="551"/>
      <point x="118" y="533"/>
      <point x="166" y="533" type="curve"/>
      <point x="171" y="653"/>
      <point x="193" y="714"/>
      <point x="258" y="714" type="curve" smooth="yes"/>
      <point x="305" y="714"/>
      <point x="336" y="688"/>
      <point x="336" y="596" type="curve" smooth="yes"/>
      <point x="336" y="479"/>
      <point x="292" y="388"/>
      <point x="153" y="345" type="curve"/>
    </contour>
    <contour>
      <point x="132" y="-6" type="curve" smooth="yes"/>
      <point x="161" y="-6"/>
      <point x="186" y="20"/>
      <point x="186" y="64" type="curve" smooth="yes"/>
      <point x="186" y="94"/>
      <point x="169" y="111"/>
      <point x="141" y="111" type="curve" smooth="yes"/>
      <point x="107" y="111"/>
      <point x="87" y="79"/>
      <point x="87" y="41" type="curve" smooth="yes"/>
      <point x="87" y="9"/>
      <point x="105" y="-6"/>
    </contour>
  </outline>
</glyph>
<glyph name="at" format="2">
  <advance width="721"/>
  <unicode hex="0040"/>
  <outline>
    <contour>
      <point x="330" y="-142" type="curve" smooth="yes"/>
      <point x="418" y="-142"/>
      <point x="491" y="-99"/>
      <point x="552" y="-43" type="curve"/>
      <point x="547" y="-35" type="line"/>
      <point x="484" y="-92"/>
      <point x="416" y="-132"/>
      <point x="333" y="-132" type="curve" smooth="yes"/>
      <point x="188" y="-132"/>
      <point x="104" y="-31"/>
      <point x="104" y="200" type="curve" smooth="yes"/>
      <point x="104" y="494"/>
      <point x="239" y="704"/>
      <point x="427" y="704" type="curve" smooth="yes"/>
      <point x="573" y="704"/>
      <point x="641" y="590"/>
      <point x="641" y="397" type="curve" smooth="yes"/>
      <point x="641" y="218"/>
      <point x="586" y="87"/>
      <point x="524" y="87" type="curve" smooth="yes"/>
      <point x="491" y="87"/>
      <point x="480" y="113"/>
      <point x="480" y="174" type="curve" smooth="yes"/>
      <point x="480" y="206"/>
      <point x="485" y="244"/>
      <point x="491" y="276" type="curve" smooth="yes"/>
      <point x="533" y="520" type="line"/>
      <point x="523" y="520" type="line"/>
      <point x="477" y="490" type="line"/>
      <point x="464" y="509"/>
      <point x="443" y="529"/>
      <point x="402" y="529" type="curve" smooth="yes"/>
      <point x="271" y="529"/>
      <point x="209" y="364"/>
      <point x="209" y="242" type="curve" smooth="yes"/>
      <point x="209" y="130"/>
      <point x="254" y="77"/>
      <point x="316" y="77" type="curve" smooth="yes"/>
      <point x="373" y="77"/>
      <point x="408" y="119"/>
      <point x="430" y="190" type="curve"/>
      <point x="433" y="190" type="line"/>
      <point x="436" y="112"/>
      <point x="474" y="77"/>
      <point x="522" y="77" type="curve" smooth="yes"/>
      <point x="605" y="77"/>
      <point x="686" y="206"/>
      <point x="686" y="390" type="curve" smooth="yes"/>
      <point x="686" y="579"/>
      <point x="597" y="714"/>
      <point x="421" y="714" type="curve" smooth="yes"/>
      <point x="209" y="714"/>
      <point x="52" y="497"/>
      <point x="52" y="205" type="curve" smooth="yes"/>
      <point x="52" y="-29"/>
      <point x="163" y="-142"/>
    </contour>
    <contour>
      <point x="333" y="92" type="curve" smooth="yes"/>
      <point x="294" y="92"/>
      <point x="270" y="129"/>
      <point x="270" y="228" type="curve" smooth="yes"/>
      <point x="270" y="340"/>
      <point x="312" y="519"/>
      <point x="406" y="519" type="curve" smooth="yes"/>
      <point x="438" y="519"/>
      <point x="459" y="498"/>
      <point x="468" y="472" type="curve"/>
      <point x="431" y="249" type="line" smooth="yes"/>
      <point x="417" y="166"/>
      <point x="378" y="92"/>
    </contour>
  </outline>
</glyph>
<glyph name="B" format="2">
  <advance width="520"/>
  <unicode hex="0042"/>
  <anchor x="197" y="0" name="bottom"/>
  <anchor x="349" y="714" name="top"/>
  <anchor x="593" y="714" name="topright"/>
  <outline>
    <contour>
      <point x="-28" y="0" type="line"/>
      <point x="217" y="0" type="line" smooth="yes"/>
      <point x="408" y="0"/>
      <point x="480" y="101"/>
      <point x="480" y="227" type="curve" smooth="yes"/>
      <point x="480" y="319"/>
      <point x="420" y="367"/>
      <point x="339" y="376" type="curve"/>
      <point x="340" y="380" type="line"/>
      <point x="451" y="392"/>
      <point x="528" y="460"/>
      <point x="528" y="576" type="curve" smooth="yes"/>
      <point x="528" y="668"/>
      <point x="472" y="714"/>
      <point x="347" y="714" type="curve" smooth="yes"/>
      <point x="123" y="714" type="line"/>
      <point x="121" y="704" type="line"/>
      <point x="148" y="704" type="line" smooth="yes"/>
      <point x="174" y="704"/>
      <point x="191" y="700"/>
      <point x="191" y="681" type="curve" smooth="yes"/>
      <point x="191" y="673"/>
      <point x="187" y="655"/>
      <point x="185" y="645" type="curve" smooth="yes"/>
      <point x="59" y="52" type="line" smooth="yes"/>
      <point x="51" y="15"/>
      <point x="28" y="10"/>
      <point x="-6" y="10" type="curve" smooth="yes"/>
      <point x="-25" y="10" type="line"/>
    </contour>
    <contour>
      <point x="213" y="10" type="curve" smooth="yes"/>
      <point x="140" y="10" type="line"/>
      <point x="217" y="373" type="line"/>
      <point x="263" y="373" type="line" smooth="yes"/>
      <point x="341" y="373"/>
      <point x="389" y="333"/>
      <point x="389" y="242" type="curve" smooth="yes"/>
      <point x="389" y="128"/>
      <point x="341" y="10"/>
    </contour>
    <contour>
      <point x="268" y="383" type="curve" smooth="yes"/>
      <point x="220" y="383" type="line"/>
      <point x="285" y="704" type="line"/>
      <point x="328" y="704" type="line" smooth="yes"/>
      <point x="397" y="704"/>
      <point x="437" y="674"/>
      <point x="437" y="592" type="curve" smooth="yes"/>
      <point x="437" y="496"/>
      <point x="394" y="383"/>
    </contour>
  </outline>
</glyph>
<glyph name="C" format="2">
  <advance width="513"/>
  <unicode hex="0043"/>
  <anchor x="240" y="0" name="bottom"/>
  <anchor x="386" y="714" name="top"/>
  <anchor x="578" y="714" name="topright"/>
  <outline>
    <contour>
      <point x="258" y="-10" type="curve" smooth="yes"/>
      <point x="388" y="-10"/>
      <point x="447" y="64"/>
      <point x="447" y="111" type="curve" smooth="yes"/>
      <point x="447" y="126"/>
      <point x="441" y="135"/>
      <point x="434" y="142" type="curve"/>
      <point x="409" y="61"/>
      <point x="362" y="2"/>
      <point x="284" y="2" type="curve" smooth="yes"/>
      <point x="202" y="2"/>
      <point x="145" y="88"/>
      <point x="145" y="242" type="curve" smooth="yes"/>
      <point x="145" y="471"/>
      <point x="247" y="714"/>
      <point x="380" y="714" type="curve" smooth="yes"/>
      <point x="445" y="714"/>
      <point x="465" y="649"/>
      <point x="465" y="538" type="curve"/>
      <point x="511" y="538"/>
      <point x="546" y="560"/>
      <point x="546" y="603" type="curve" smooth="yes"/>
      <point x="546" y="675"/>
      <point x="493" y="725"/>
      <point x="397" y="725" type="curve" smooth="yes"/>
      <point x="164" y="725"/>
      <point x="52" y="475"/>
      <point x="52" y="247" type="curve" smooth="yes"/>
      <point x="52" y="83"/>
      <point x="133" y="-10"/>
    </contour>
  </outline>
</glyph>
<glyph name="D" format="2">
  <advance width="592"/>
  <unicode hex="0044"/>
  <anchor x="229" y="0" name="bottom"/>
  <anchor x="324" y="357" name="center"/>
  <anchor x="381" y="714" name="top"/>
  <anchor x="654" y="714" name="topright"/>
  <outline>
    <contour>
      <point x="-28" y="0" type="line"/>
      <point x="224" y="0" type="line" smooth="yes"/>
      <point x="456" y="0"/>
      <point x="576" y="222"/>
      <point x="576" y="455" type="curve" smooth="yes"/>
      <point x="576" y="625"/>
      <point x="500" y="714"/>
      <point x="350" y="714" type="curve" smooth="yes"/>
      <point x="124" y="714" type="line"/>
      <point x="121" y="704" type="line"/>
      <point x="147" y="704" type="line" smooth="yes"/>
      <point x="175" y="704"/>
      <point x="191" y="699"/>
      <point x="191" y="682" type="curve" smooth="yes"/>
      <point x="191" y="675"/>
      <point x="189" y="666"/>
      <point x="186" y="652" type="curve" smooth="yes"/>
      <point x="62" y="59" type="line" smooth="yes"/>
      <point x="53" y="16"/>
      <point x="31" y="10"/>
      <point x="-5" y="10" type="curve" smooth="yes"/>
      <point x="-25" y="10" type="line"/>
    </contour>
    <contour>
      <point x="140" y="10" type="line"/>
      <point x="285" y="704" type="line"/>
      <point x="332" y="704" type="line" smooth="yes"/>
      <point x="436" y="704"/>
      <point x="482" y="625"/>
      <point x="482" y="471" type="curve" smooth="yes"/>
      <point x="482" y="224"/>
      <point x="374" y="10"/>
      <point x="196" y="10" type="curve" smooth="yes"/>
    </contour>
  </outline>
</glyph>
<glyph name="E" format="2">
  <advance width="487"/>
  <unicode hex="0045"/>
  <anchor x="188" y="0" name="bottom"/>
  <anchor x="356" y="714" name="top"/>
  <anchor x="572" y="714" name="topright"/>
  <outline>
    <contour>
      <point x="-28" y="0" type="line"/>
      <point x="405" y="0" type="line"/>
      <point x="443" y="153" type="line"/>
      <point x="430" y="153" type="line"/>
      <point x="414" y="97" type="line" smooth="yes"/>
      <point x="397" y="31"/>
      <point x="377" y="10"/>
      <point x="327" y="10" type="curve" smooth="yes"/>
      <point x="139" y="10" type="line"/>
      <point x="214" y="367" type="line"/>
      <point x="404" y="367" type="line"/>
      <point x="407" y="378" type="line"/>
      <point x="218" y="378" type="line"/>
      <point x="286" y="704" type="line"/>
      <point x="453" y="704" type="line" smooth="yes"/>
      <point x="488" y="704"/>
      <point x="502" y="689"/>
      <point x="502" y="650" type="curve" smooth="yes"/>
      <point x="502" y="629"/>
      <point x="497" y="591"/>
      <point x="493" y="561" type="curve"/>
      <point x="503" y="561" type="line"/>
      <point x="533" y="714" type="line"/>
      <point x="123" y="714" type="line"/>
      <point x="121" y="704" type="line"/>
      <point x="148" y="704" type="line" smooth="yes"/>
      <point x="176" y="704"/>
      <point x="191" y="697"/>
      <point x="191" y="680" type="curve" smooth="yes"/>
      <point x="191" y="673"/>
      <point x="190" y="663"/>
      <point x="187" y="652" type="curve" smooth="yes"/>
      <point x="59" y="53" type="line" smooth="yes"/>
      <point x="52" y="20"/>
      <point x="31" y="10"/>
      <point x="-5" y="10" type="curve" smooth="yes"/>
      <point x="-25" y="10" type="line"/>
    </contour>
  </outline>
</glyph>
<glyph name="G" format="2">
  <advance width="591"/>
  <unicode hex="0047"/>
  <anchor x="254" y="0" name="bottom"/>
  <anchor x="411" y="714" name="top"/>
  <anchor x="651" y="714" name="topright"/>
  <outline>
    <contour>
      <point x="273" y="-10" type="curve" smooth="yes"/>
      <point x="336" y="-10"/>
      <point x="395" y="5"/>
      <point x="457" y="36" type="curve"/>
      <point x="501" y="242" type="line" smooth="yes"/>
      <point x="516" y="310"/>
      <point x="531" y="316"/>
      <point x="565" y="316" type="curve" smooth="yes"/>
      <point x="578" y="316" type="line"/>
      <point x="580" y="326" type="line"/>
      <point x="355" y="326" type="line"/>
      <point x="352" y="316" type="line"/>
      <point x="377" y="316" type="line" smooth="yes"/>
      <point x="408" y="316"/>
      <point x="420" y="310"/>
      <point x="420" y="291" type="curve" smooth="yes"/>
      <point x="420" y="277"/>
      <point x="415" y="260"/>
      <point x="411" y="239" type="curve" smooth="yes"/>
      <point x="364" y="25" type="line"/>
      <point x="336" y="6"/>
      <point x="305" y="0"/>
      <point x="275" y="0" type="curve" smooth="yes"/>
      <point x="174" y="0"/>
      <point x="144" y="100"/>
      <point x="144" y="227" type="curve" smooth="yes"/>
      <point x="144" y="442"/>
      <point x="249" y="714"/>
      <point x="405" y="714" type="curve" smooth="yes"/>
      <point x="476" y="714"/>
      <point x="501" y="653"/>
      <point x="501" y="546" type="curve"/>
      <point x="546" y="546"/>
      <point x="582" y="569"/>
      <point x="582" y="607" type="curve" smooth="yes"/>
      <point x="582" y="675"/>
      <point x="524" y="723"/>
      <point x="417" y="723" type="curve" smooth="yes"/>
      <point x="173" y="723"/>
      <point x="52" y="484"/>
      <point x="52" y="252" type="curve" smooth="yes"/>
      <point x="52" y="85"/>
      <point x="125" y="-10"/>
    </contour>
  </outline>
</glyph>
<glyph name="H" format="2">
  <advance width="639"/>
  <unicode hex="0048"/>
  <anchor x="256" y="0" name="bottom"/>
  <anchor x="343" y="357" name="center"/>
  <anchor x="408" y="714" name="top"/>
  <anchor x="708" y="714" name="topright"/>
  <outline>
    <contour>
      <point x="-29" y="0" type="line"/>
      <point x="213" y="0" type="line"/>
      <point x="216" y="10" type="line"/>
      <point x="194" y="10" type="line" smooth="yes"/>
      <point x="160" y="10"/>
      <point x="147" y="16"/>
      <point x="147" y="34" type="curve" smooth="yes"/>
      <point x="147" y="41"/>
      <point x="149" y="50"/>
      <point x="150" y="58" type="curve" smooth="yes"/>
      <point x="216" y="367" type="line"/>
      <point x="463" y="367" type="line"/>
      <point x="398" y="58" type="line" smooth="yes"/>
      <point x="390" y="18"/>
      <point x="369" y="10"/>
      <point x="335" y="10" type="curve" smooth="yes"/>
      <point x="313" y="10" type="line"/>
      <point x="310" y="0" type="line"/>
      <point x="553" y="0" type="line"/>
      <point x="555" y="10" type="line"/>
      <point x="534" y="10" type="line" smooth="yes"/>
      <point x="501" y="10"/>
      <point x="485" y="17"/>
      <point x="485" y="38" type="curve" smooth="yes"/>
      <point x="485" y="45"/>
      <point x="487" y="52"/>
      <point x="489" y="63" type="curve" smooth="yes"/>
      <point x="612" y="646" type="line" smooth="yes"/>
      <point x="623" y="696"/>
      <point x="646" y="704"/>
      <point x="682" y="704" type="curve" smooth="yes"/>
      <point x="702" y="704" type="line"/>
      <point x="704" y="714" type="line"/>
      <point x="462" y="714" type="line"/>
      <point x="460" y="704" type="line"/>
      <point x="483" y="704" type="line" smooth="yes"/>
      <point x="518" y="704"/>
      <point x="528" y="696"/>
      <point x="528" y="681" type="curve" smooth="yes"/>
      <point x="528" y="672"/>
      <point x="526" y="664"/>
      <point x="523" y="648" type="curve" smooth="yes"/>
      <point x="465" y="377" type="line"/>
      <point x="218" y="377" type="line"/>
      <point x="277" y="656" type="line" smooth="yes"/>
      <point x="286" y="696"/>
      <point x="307" y="704"/>
      <point x="342" y="704" type="curve" smooth="yes"/>
      <point x="363" y="704" type="line"/>
      <point x="365" y="714" type="line"/>
      <point x="123" y="714" type="line"/>
      <point x="121" y="704" type="line"/>
      <point x="143" y="704" type="line" smooth="yes"/>
      <point x="180" y="704"/>
      <point x="191" y="696"/>
      <point x="191" y="681" type="curve" smooth="yes"/>
      <point x="191" y="675"/>
      <point x="189" y="664"/>
      <point x="186" y="649" type="curve" smooth="yes"/>
      <point x="61" y="56" type="line" smooth="yes"/>
      <point x="52" y="18"/>
      <point x="31" y="10"/>
      <point x="-5" y="10" type="curve" smooth="yes"/>
      <point x="-26" y="10" type="line"/>
    </contour>
  </outline>
</glyph>
<glyph name="I" format="2">
  <advance width="302"/>
  <unicode hex="0049"/>
  <anchor x="87" y="0" name="bottom"/>
  <anchor x="239" y="714" name="top"/>
  <anchor x="368" y="714" name="topright"/>
  <outline>
    <contour>
      <point x="-28" y="0" type="line"/>
      <point x="216" y="0" type="line"/>
      <point x="218" y="10" type="line"/>
      <point x="198" y="10" type="line" smooth="yes"/>
      <point x="167" y="10"/>
      <point x="148" y="13"/>
      <point x="148" y="34" type="curve" smooth="yes"/>
      <point x="148" y="43"/>
      <point x="151" y="59"/>
      <point x="154" y="76" type="curve" smooth="yes"/>
      <point x="276" y="648" type="line" smooth="yes"/>
      <point x="287" y="698"/>
      <point x="307" y="704"/>
      <point x="344" y="704" type="curve" smooth="yes"/>
      <point x="366" y="704" type="line"/>
      <point x="368" y="714" type="line"/>
      <point x="123" y="714" type="line"/>
      <point x="121" y="704" type="line"/>
      <point x="142" y="704" type="line" smooth="yes"/>
      <point x="174" y="704"/>
      <point x="191" y="700"/>
      <point x="191" y="680" type="curve" smooth="yes"/>
      <point x="191" y="673"/>
      <point x="190" y="662"/>
      <point x="186" y="642" type="curve" smooth="yes"/>
      <point x="62" y="60" type="line" smooth="yes"/>
      <point x="52" y="15"/>
      <point x="32" y="10"/>
      <point x="-4" y="10" type="curve" smooth="yes"/>
      <point x="-26" y="10" type="line"/>
    </contour>
  </outline>
</glyph>
<glyph name="J" format="2">
  <advance width="295"/>
  <unicode hex="004A"/>
  <anchor x="-66" y="-240" name="bottom"/>
  <anchor x="242" y="714" name="top"/>
  <anchor x="362" y="714" name="topright"/>
  <outline>
    <contour>
      <point x="-69" y="-240" type="curve" smooth="yes"/>
      <point x="33" y="-240"/>
      <point x="105" y="-184"/>
      <point x="141" y="-15" type="curve" smooth="yes"/>
      <point x="283" y="654" type="line" smooth="yes"/>
      <point x="292" y="695"/>
      <point x="313" y="704"/>
      <point x="350" y="704" type="curve" smooth="yes"/>
      <point x="368" y="704" type="line"/>
      <point x="370" y="714" type="line"/>
      <point x="128" y="714" type="line"/>
      <point x="126" y="704" type="line"/>
      <point x="148" y="704" type="line" smooth="yes"/>
      <point x="178" y="704"/>
      <point x="196" y="698"/>
      <point x="196" y="678" type="curve" smooth="yes"/>
      <point x="196" y="671"/>
      <point x="194" y="664"/>
      <point x="193" y="657" type="curve" smooth="yes"/>
      <point x="49" y="-30" type="line" smooth="yes"/>
      <point x="21" y="-182"/>
      <point x="-17" y="-228"/>
      <point x="-71" y="-228" type="curve" smooth="yes"/>
      <point x="-90" y="-228"/>
      <point x="-111" y="-225"/>
      <point x="-129" y="-218" type="curve"/>
      <point x="-133" y="-229" type="line"/>
      <point x="-114" y="-236"/>
      <point x="-95" y="-240"/>
    </contour>
  </outline>
</glyph>
<glyph name="L" format="2">
  <advance width="496"/>
  <unicode hex="004C"/>
  <anchor x="187" y="0" name="bottom"/>
  <anchor x="282" y="357" name="center"/>
  <anchor x="249" y="714" name="top"/>
  <anchor x="493" y="714" name="topright"/>
  <outline>
    <contour>
      <point x="-28" y="0" type="line"/>
      <point x="410" y="0" type="line"/>
      <point x="460" y="214" type="line"/>
      <point x="450" y="214" type="line"/>
      <point x="431" y="142" type="line" smooth="yes"/>
      <point x="410" y="58"/>
      <point x="379" y="10"/>
      <point x="315" y="10" type="curve" smooth="yes"/>
      <point x="141" y="10" type="line"/>
      <point x="275" y="651" type="line" smooth="yes"/>
      <point x="284" y="695"/>
      <point x="307" y="704"/>
      <point x="344" y="704" type="curve" smooth="yes"/>
      <point x="364" y="704" type="line"/>
      <point x="366" y="714" type="line"/>
      <point x="124" y="714" type="line"/>
      <point x="121" y="704" type="line"/>
      <point x="142" y="704" type="line" smooth="yes"/>
      <point x="171" y="704"/>
      <point x="191" y="701"/>
      <point x="191" y="679" type="curve" smooth="yes"/>
      <point x="191" y="672"/>
      <point x="189" y="660"/>
      <point x="185" y="646" type="curve" smooth="yes"/>
      <point x="65" y="76" type="line" smooth="yes"/>
      <point x="52" y="15"/>
      <point x="33" y="10"/>
      <point x="-6" y="10" type="curve" smooth="yes"/>
      <point x="-25" y="10" type="line"/>
    </contour>
  </outline>
</glyph>
<glyph name="M" format="2">
  <advance width="758"/>
  <unicode hex="004D"/>
  <anchor x="313" y="0" name="bottom"/>
  <anchor x="465" y="714" name="top"/>
  <anchor x="822" y="714" name="topright"/>
  <outline>
    <contour>
      <point x="-28" y="0" type="line"/>
      <point x="167" y="0" type="line"/>
      <point x="169" y="10" type="line"/>
      <point x="131" y="10" type="line" smooth="yes"/>
      <point x="103" y="10"/>
      <point x="85" y="17"/>
      <point x="85" y="38" type="curve" smooth="yes"/>
      <point x="85" y="45"/>
      <point x="87" y="55"/>
      <point x="90" y="69" type="curve" smooth="yes"/>
      <point x="218" y="681" type="line"/>
      <point x="276" y="0" type="line"/>
      <point x="317" y="0" type="line"/>
      <point x="653" y="691" type="line"/>
      <point x="524" y="86" type="line" smooth="yes"/>
      <point x="510" y="20"/>
      <point x="487" y="10"/>
      <point x="451" y="10" type="curve" smooth="yes"/>
      <point x="430" y="10" type="line"/>
      <point x="428" y="0" type="line"/>
      <point x="672" y="0" type="line"/>
      <point x="674" y="10" type="line"/>
      <point x="652" y="10" type="line" smooth="yes"/>
      <point x="623" y="10"/>
      <point x="605" y="12"/>
      <point x="605" y="38" type="curve" smooth="yes"/>
      <point x="605" y="48"/>
      <point x="607" y="64"/>
      <point x="612" y="86" type="curve" smooth="yes"/>
      <point x="733" y="654" type="line" smooth="yes"/>
      <point x="742" y="697"/>
      <point x="764" y="704"/>
      <point x="800" y="704" type="curve" smooth="yes"/>
      <point x="817" y="704" type="line"/>
      <point x="819" y="714" type="line"/>
      <point x="653" y="714" type="line"/>
      <point x="356" y="110" type="line"/>
      <point x="305" y="714" type="line"/>
      <point x="123" y="714" type="line"/>
      <point x="121" y="704" type="line"/>
      <point x="157" y="704" type="line" smooth="yes"/>
      <point x="186" y="704"/>
      <point x="205" y="699"/>
      <point x="205" y="676" type="curve" smooth="yes"/>
      <point x="205" y="666"/>
      <point x="202" y="652"/>
      <point x="196" y="625" type="curve" smooth="yes"/>
      <point x="78" y="67" type="line" smooth="yes"/>
      <point x="68" y="20"/>
      <point x="46" y="10"/>
      <point x="11" y="10" type="curve" smooth="yes"/>
      <point x="-27" y="10" type="line"/>
    </contour>
  </outline>
</glyph>
<glyph name="N" format="2">
  <advance width="616"/>
  <unicode hex="004E"/>
  <anchor x="244" y="0" name="bottom"/>
  <anchor x="412" y="714" name="top"/>
  <anchor x="682" y="714" name="topright"/>
  <outline>
    <contour>
      <point x="-27" y="0" type="line"/>
      <point x="166" y="0" type="line"/>
      <point x="168" y="10" type="line"/>
      <point x="143" y="10" type="line" smooth="yes"/>
      <point x="106" y="10"/>
      <point x="87" y="17"/>
      <point x="87" y="36" type="curve" smooth="yes"/>
      <point x="87" y="44"/>
      <point x="89" y="56"/>
      <point x="93" y="76" type="curve" smooth="yes"/>
      <point x="221" y="680" type="line"/>
      <point x="406" y="0" type="line"/>
      <point x="447" y="0" type="line"/>
      <point x="582" y="632" type="line" smooth="yes"/>
      <point x="595" y="696"/>
      <point x="618" y="704"/>
      <point x="658" y="704" type="curve" smooth="yes"/>
      <point x="690" y="704" type="line"/>
      <point x="692" y="714" type="line"/>
      <point x="496" y="714" type="line"/>
      <point x="494" y="704" type="line"/>
      <point x="524" y="704" type="line" smooth="yes"/>
      <point x="559" y="704"/>
      <point x="575" y="695"/>
      <point x="575" y="671" type="curve" smooth="yes"/>
      <point x="575" y="662"/>
      <point x="573" y="650"/>
      <point x="569" y="627" type="curve" smooth="yes"/>
      <point x="457" y="99" type="line"/>
      <point x="297" y="714" type="line"/>
      <point x="123" y="714" type="line"/>
      <point x="121" y="704" type="line"/>
      <point x="160" y="704" type="line" smooth="yes"/>
      <point x="190" y="704"/>
      <point x="209" y="699"/>
      <point x="209" y="680" type="curve" smooth="yes"/>
      <point x="209" y="673"/>
      <point x="207" y="663"/>
      <point x="204" y="646" type="curve" smooth="yes"/>
      <point x="79" y="62" type="line" smooth="yes"/>
      <point x="69" y="16"/>
      <point x="45" y="10"/>
      <point x="5" y="10" type="curve" smooth="yes"/>
      <point x="-26" y="10" type="line"/>
    </contour>
  </outline>
</glyph>
<glyph name="O" format="2">
  <advance width="601"/>
  <unicode hex="004F"/>
  <anchor x="239" y="0" name="bottom"/>
  <anchor x="334" y="357" name="center"/>
  <anchor x="391" y="714" name="top"/>
  <anchor x="671" y="714" name="topright"/>
  <outline>
    <contour>
      <point x="257" y="-11" type="curve" smooth="yes"/>
      <point x="487" y="-11"/>
      <point x="590" y="275"/>
      <point x="590" y="477" type="curve" smooth="yes"/>
      <point x="590" y="656"/>
      <point x="495" y="724"/>
      <point x="384" y="724" type="curve" smooth="yes"/>
      <point x="163" y="724"/>
      <point x="50" y="458"/>
      <point x="50" y="239" type="curve" smooth="yes"/>
      <point x="50" y="70"/>
      <point x="138" y="-11"/>
    </contour>
    <contour>
      <point x="267" y="-1" type="curve" smooth="yes"/>
      <point x="194" y="-1"/>
      <point x="141" y="65"/>
      <point x="141" y="224" type="curve" smooth="yes"/>
      <point x="141" y="402"/>
      <point x="221" y="714"/>
      <point x="380" y="714" type="curve" smooth="yes"/>
      <point x="454" y="714"/>
      <point x="499" y="653"/>
      <point x="499" y="501" type="curve" smooth="yes"/>
      <point x="499" y="319"/>
      <point x="425" y="-1"/>
    </contour>
  </outline>
</glyph>
<glyph name="Q" format="2">
  <advance width="598"/>
  <unicode hex="0051"/>
  <anchor x="183" y="-221" name="bottom"/>
  <anchor x="331" y="357" name="center"/>
  <anchor x="382" y="714" name="top"/>
  <anchor x="643" y="714" name="topright"/>
  <outline>
    <contour>
      <point x="351" y="-221" type="curve" smooth="yes"/>
      <point x="378" y="-221"/>
      <point x="402" y="-216"/>
      <point x="433" y="-204" type="curve"/>
      <point x="431" y="-194" type="line"/>
      <point x="414" y="-200"/>
      <point x="398" y="-202"/>
      <point x="385" y="-202" type="curve" smooth="yes"/>
      <point x="336" y="-202"/>
      <point x="299" y="-145"/>
      <point x="297" y="-5" type="curve"/>
      <point x="481" y="19"/>
      <point x="590" y="239"/>
      <point x="590" y="477" type="curve" smooth="yes"/>
      <point x="590" y="656"/>
      <point x="495" y="724"/>
      <point x="384" y="724" type="curve" smooth="yes"/>
      <point x="163" y="724"/>
      <point x="50" y="458"/>
      <point x="50" y="239" type="curve" smooth="yes"/>
      <point x="50" y="95"/>
      <point x="114" y="16"/>
      <point x="204" y="-5" type="curve"/>
      <point x="207" y="-161"/>
      <point x="264" y="-221"/>
    </contour>
    <contour>
      <point x="267" y="-1" type="curve" smooth="yes"/>
      <point x="194" y="-1"/>
      <point x="141" y="65"/>
      <point x="141" y="224" type="curve" smooth="yes"/>
      <point x="141" y="402"/>
      <point x="221" y="714"/>
      <point x="380" y="714" type="curve" smooth="yes"/>
      <point x="454" y="714"/>
      <point x="499" y="653"/>
      <point x="499" y="501" type="curve" smooth="yes"/>
      <point x="499" y="319"/>
      <point x="425" y="-1"/>
    </contour>
  </outline>
</glyph>
<glyph name="R" format="2">
  <advance width="536"/>
  <unicode hex="0052"/>
  <anchor x="207" y="0" name="bottom"/>
  <anchor x="344" y="714" name="top"/>
  <anchor x="607" y="714" name="topright"/>
  <outline>
    <contour>
      <point x="-27" y="0" type="line"/>
      <point x="232" y="0" type="line"/>
      <point x="234" y="10" type="line"/>
      <point x="199" y="10" type="line" smooth="yes"/>
      <point x="166" y="10"/>
      <point x="149" y="19"/>
      <point x="149" y="39" type="curve" smooth="yes"/>
      <point x="149" y="48"/>
      <point x="151" y="59"/>
      <point x="155" y="77" type="curve" smooth="yes"/>
      <point x="210" y="332" type="line"/>
      <point x="278" y="332" type="line"/>
      <point x="325" y="100" type="line" smooth="yes"/>
      <point x="343" y="15"/>
      <point x="380" y="0"/>
      <point x="461" y="0" type="curve" smooth="yes"/>
      <point x="479" y="0" type="line"/>
      <point x="481" y="10" type="line"/>
      <point x="472" y="10" type="line" smooth="yes"/>
      <point x="439" y="10"/>
      <point x="428" y="53"/>
      <point x="409" y="131" type="curve" smooth="yes"/>
      <point x="361" y="336" type="line"/>
      <point x="461" y="352"/>
      <point x="528" y="443"/>
      <point x="528" y="558" type="curve" smooth="yes"/>
      <point x="528" y="660"/>
      <point x="470" y="714"/>
      <point x="358" y="714" type="curve" smooth="yes"/>
      <point x="124" y="714" type="line"/>
      <point x="121" y="704" type="line"/>
      <point x="145" y="704" type="line" smooth="yes"/>
      <point x="174" y="704"/>
      <point x="191" y="700"/>
      <point x="191" y="678" type="curve" smooth="yes"/>
      <point x="191" y="672"/>
      <point x="189" y="660"/>
      <point x="185" y="642" type="curve" smooth="yes"/>
      <point x="65" y="72" type="line" smooth="yes"/>
      <point x="54" y="20"/>
      <point x="32" y="10"/>
      <point x="-3" y="10" type="curve" smooth="yes"/>
      <point x="-25" y="10" type="line"/>
    </contour>
    <contour>
      <point x="271" y="342" type="curve" smooth="yes"/>
      <point x="212" y="342" type="line"/>
      <point x="290" y="704" type="line"/>
      <point x="336" y="704" type="line" smooth="yes"/>
      <point x="411" y="704"/>
      <point x="436" y="639"/>
      <point x="436" y="564" type="curve" smooth="yes"/>
      <point x="436" y="426"/>
      <point x="367" y="342"/>
    </contour>
  </outline>
</glyph>
<glyph name="S" format="2">
  <advance width="442"/>
  <unicode hex="0053"/>
  <anchor x="165" y="0" name="bottom"/>
  <anchor x="307" y="714" name="top"/>
  <anchor x="517" y="714" name="topright"/>
  <outline>
    <contour>
      <point x="182" y="-10" type="curve" smooth="yes"/>
      <point x="312" y="-10"/>
      <point x="399" y="63"/>
      <point x="399" y="202" type="curve" smooth="yes"/>
      <point x="399" y="278"/>
      <point x="373" y="324"/>
      <point x="284" y="398" type="curve" smooth="yes"/>
      <point x="216" y="452"/>
      <point x="183" y="480"/>
      <point x="183" y="559" type="curve" smooth="yes"/>
      <point x="183" y="651"/>
      <point x="229" y="714"/>
      <point x="301" y="714" type="curve" smooth="yes"/>
      <point x="379" y="714"/>
      <point x="392" y="631"/>
      <point x="389" y="550" type="curve"/>
      <point x="441" y="550"/>
      <point x="463" y="573"/>
      <point x="463" y="610" type="curve" smooth="yes"/>
      <point x="463" y="667"/>
      <point x="418" y="724"/>
      <point x="310" y="724" type="curve" smooth="yes"/>
      <point x="182" y="724"/>
      <point x="106" y="636"/>
      <point x="106" y="515" type="curve" smooth="yes"/>
      <point x="106" y="418"/>
      <point x="155" y="379"/>
      <point x="220" y="326" type="curve" smooth="yes"/>
      <point x="295" y="264"/>
      <point x="322" y="235"/>
      <point x="322" y="158" type="curve" smooth="yes"/>
      <point x="322" y="64"/>
      <point x="276" y="0"/>
      <point x="189" y="0" type="curve" smooth="yes"/>
      <point x="102" y="0"/>
      <point x="75" y="62"/>
      <point x="78" y="209" type="curve"/>
      <point x="33" y="208"/>
      <point x="2" y="189"/>
      <point x="2" y="135" type="curve" smooth="yes"/>
      <point x="2" y="55"/>
      <point x="60" y="-10"/>
    </contour>
  </outline>
</glyph>
<glyph name="T" format="2">
  <advance width="496"/>
  <unicode hex="0054"/>
  <anchor x="187" y="0" name="bottom"/>
  <anchor x="282" y="357" name="center"/>
  <anchor x="339" y="714" name="top"/>
  <anchor x="567" y="714" name="topright"/>
  <outline>
    <contour>
      <point x="74" y="0" type="line"/>
      <point x="312" y="0" type="line"/>
      <point x="314" y="10" type="line"/>
      <point x="306" y="10" type="line" smooth="yes"/>
      <point x="270" y="10"/>
      <point x="247" y="13"/>
      <point x="247" y="38" type="curve" smooth="yes"/>
      <point x="247" y="50"/>
      <point x="250" y="64"/>
      <point x="254" y="83" type="curve" smooth="yes"/>
      <point x="385" y="703" type="line"/>
      <point x="466" y="703" type="line" smooth="yes"/>
      <point x="521" y="703"/>
      <point x="544" y="685"/>
      <point x="544" y="640" type="curve" smooth="yes"/>
      <point x="544" y="623"/>
      <point x="539" y="596"/>
      <point x="533" y="559" type="curve"/>
      <point x="543" y="559" type="line"/>
      <point x="574" y="714" type="line"/>
      <point x="114" y="714" type="line"/>
      <point x="77" y="559" type="line"/>
      <point x="88" y="559" type="line"/>
      <point x="100" y="608" type="line" smooth="yes"/>
      <point x="117" y="676"/>
      <point x="154" y="703"/>
      <point x="225" y="703" type="curve" smooth="yes"/>
      <point x="294" y="703" type="line"/>
      <point x="164" y="77" type="line" smooth="yes"/>
      <point x="151" y="15"/>
      <point x="127" y="10"/>
      <point x="85" y="10" type="curve" smooth="yes"/>
      <point x="75" y="10" type="line"/>
    </contour>
  </outline>
</glyph>
<glyph name="U" format="2">
  <advance width="593"/>
  <unicode hex="0055"/>
  <anchor x="233" y="0" name="bottom"/>
  <anchor x="399" y="714" name="top"/>
  <anchor x="711" y="714" name="topright"/>
  <outline>
    <contour>
      <point x="264" y="-10" type="curve" smooth="yes"/>
      <point x="397" y="-10"/>
      <point x="450" y="79"/>
      <point x="480" y="219" type="curve" smooth="yes"/>
      <point x="566" y="629" type="line" smooth="yes"/>
      <point x="580" y="698"/>
      <point x="609" y="704"/>
      <point x="650" y="704" type="curve" smooth="yes"/>
      <point x="676" y="704" type="line"/>
      <point x="678" y="714" type="line"/>
      <point x="475" y="714" type="line"/>
      <point x="473" y="704" type="line"/>
      <point x="495" y="704" type="line" smooth="yes"/>
      <point x="534" y="704"/>
      <point x="561" y="699"/>
      <point x="561" y="667" type="curve" smooth="yes"/>
      <point x="561" y="658"/>
      <point x="559" y="645"/>
      <point x="555" y="627" type="curve" smooth="yes"/>
      <point x="470" y="229" type="line" smooth="yes"/>
      <point x="442" y="99"/>
      <point x="392" y="4"/>
      <point x="278" y="4" type="curve" smooth="yes"/>
      <point x="214" y="4"/>
      <point x="175" y="43"/>
      <point x="175" y="126" type="curve" smooth="yes"/>
      <point x="175" y="158"/>
      <point x="183" y="219"/>
      <point x="192" y="261" type="curve" smooth="yes"/>
      <point x="271" y="630" type="line" smooth="yes"/>
      <point x="284" y="695"/>
      <point x="306" y="704"/>
      <point x="343" y="704" type="curve" smooth="yes"/>
      <point x="367" y="704" type="line"/>
      <point x="369" y="714" type="line"/>
      <point x="122" y="714" type="line"/>
      <point x="120" y="704" type="line"/>
      <point x="140" y="704" type="line" smooth="yes"/>
      <point x="171" y="704"/>
      <point x="188" y="698"/>
      <point x="188" y="675" type="curve" smooth="yes"/>
      <point x="188" y="666"/>
      <point x="185" y="650"/>
      <point x="180" y="625" type="curve" smooth="yes"/>
      <point x="102" y="261" type="line" smooth="yes"/>
      <point x="94" y="221"/>
      <point x="88" y="178"/>
      <point x="88" y="150" type="curve" smooth="yes"/>
      <point x="88" y="48"/>
      <point x="149" y="-10"/>
    </contour>
  </outline>
</glyph>
<glyph name="W" format="2">
  <advance width="839"/>
  <unicode hex="0057"/>
  <anchor x="363" y="0" name="bottom"/>
  <anchor x="515" y="714" name="top"/>
  <anchor x="963" y="714" name="topright"/>
  <outline>
    <contour>
      <point x="157" y="634" type="curve" smooth="yes"/>
      <point x="174" y="0" type="line"/>
      <point x="243" y="0" type="line"/>
      <point x="480" y="608" type="line"/>
      <point x="511" y="0" type="line"/>
      <point x="571" y="0" type="line"/>
      <point x="824" y="629" type="line" smooth="yes"/>
      <point x="853" y="698"/>
      <point x="868" y="704"/>
      <point x="905" y="704" type="curve" smooth="yes"/>
      <point x="928" y="704" type="line"/>
      <point x="931" y="714" type="line"/>
      <point x="744" y="714" type="line"/>
      <point x="742" y="704" type="line"/>
      <point x="782" y="704" type="line" smooth="yes"/>
      <point x="811" y="704"/>
      <point x="826" y="700"/>
      <point x="826" y="681" type="curve" smooth="yes"/>
      <point x="826" y="670"/>
      <point x="820" y="648"/>
      <point x="809" y="620" type="curve" smooth="yes"/>
      <point x="668" y="278" type="line" smooth="yes"/>
      <point x="642" y="211"/>
      <point x="603" y="115"/>
      <point x="585" y="66" type="curve"/>
      <point x="587" y="112"/>
      <point x="581" y="205"/>
      <point x="578" y="258" type="curve" smooth="yes"/>
      <point x="550" y="708" type="line"/>
      <point x="506" y="708" type="line"/>
      <point x="311" y="204" type="line" smooth="yes"/>
      <point x="289" y="147"/>
      <point x="269" y="98"/>
      <point x="253" y="56" type="curve"/>
      <point x="253" y="105"/>
      <point x="252" y="239"/>
      <point x="250" y="286" type="curve" smooth="yes"/>
      <point x="241" y="618" type="line" smooth="yes"/>
      <point x="241" y="641"/>
      <point x="241" y="652"/>
      <point x="241" y="663" type="curve" smooth="yes"/>
      <point x="241" y="696"/>
      <point x="261" y="704"/>
      <point x="296" y="704" type="curve" smooth="yes"/>
      <point x="322" y="704" type="line"/>
      <point x="325" y="714" type="line"/>
      <point x="105" y="714" type="line"/>
      <point x="102" y="704" type="line"/>
      <point x="114" y="704" type="line" smooth="yes"/>
      <point x="141" y="704"/>
      <point x="154" y="698"/>
    </contour>
  </outline>
</glyph>
<glyph name="X" format="2">
  <advance width="539"/>
  <unicode hex="0058"/>
  <anchor x="212" y="0" name="bottom"/>
  <anchor x="364" y="714" name="top"/>
  <anchor x="652" y="714" name="topright"/>
  <outline>
    <contour>
      <point x="-41" y="0" type="line"/>
      <point x="143" y="0" type="line"/>
      <point x="146" y="10" type="line"/>
      <point x="130" y="10" type="line" smooth="yes"/>
      <point x="100" y="10"/>
      <point x="76" y="14"/>
      <point x="76" y="32" type="curve" smooth="yes"/>
      <point x="76" y="52"/>
      <point x="90" y="75"/>
      <point x="115" y="113" type="curve" smooth="yes"/>
      <point x="293" y="363" type="line"/>
      <point x="266" y="335" type="line"/>
      <point x="331" y="84" type="line" smooth="yes"/>
      <point x="335" y="69"/>
      <point x="338" y="57"/>
      <point x="338" y="44" type="curve" smooth="yes"/>
      <point x="338" y="17"/>
      <point x="314" y="10"/>
      <point x="283" y="10" type="curve" smooth="yes"/>
      <point x="259" y="10" type="line"/>
      <point x="257" y="0" type="line"/>
      <point x="482" y="0" type="line"/>
      <point x="484" y="10" type="line"/>
      <point x="472" y="10" type="line" smooth="yes"/>
      <point x="455" y="10"/>
      <point x="450" y="16"/>
      <point x="437" y="58" type="curve" smooth="yes"/>
      <point x="339" y="404" type="line"/>
      <point x="315" y="366" type="line"/>
      <point x="503" y="628" type="line" smooth="yes"/>
      <point x="549" y="694"/>
      <point x="568" y="704"/>
      <point x="602" y="704" type="curve" smooth="yes"/>
      <point x="612" y="704" type="line"/>
      <point x="614" y="714" type="line"/>
      <point x="443" y="714" type="line"/>
      <point x="441" y="704" type="line"/>
      <point x="457" y="704" type="line" smooth="yes"/>
      <point x="484" y="704"/>
      <point x="514" y="702"/>
      <point x="514" y="680" type="curve" smooth="yes"/>
      <point x="514" y="663"/>
      <point x="502" y="648"/>
      <point x="488" y="629" type="curve" smooth="yes"/>
      <point x="314" y="380" type="line"/>
      <point x="338" y="406" type="line"/>
      <point x="280" y="631" type="line" smooth="yes"/>
      <point x="274" y="652"/>
      <point x="271" y="668"/>
      <point x="271" y="676" type="curve" smooth="yes"/>
      <point x="271" y="698"/>
      <point x="289" y="704"/>
      <point x="313" y="704" type="curve" smooth="yes"/>
      <point x="343" y="704" type="line"/>
      <point x="345" y="714" type="line"/>
      <point x="120" y="714" type="line"/>
      <point x="117" y="704" type="line"/>
      <point x="130" y="704" type="line" smooth="yes"/>
      <point x="155" y="704"/>
      <point x="165" y="691"/>
      <point x="175" y="655" type="curve" smooth="yes"/>
      <point x="265" y="337" type="line"/>
      <point x="289" y="374" type="line"/>
      <point x="80" y="82" type="line" smooth="yes"/>
      <point x="37" y="22"/>
      <point x="13" y="10"/>
      <point x="-26" y="10" type="curve" smooth="yes"/>
      <point x="-38" y="10" type="line"/>
    </contour>
  </outline>
</glyph>
<glyph name="Y" format="2">
  <advance width="510"/>
  <unicode hex="0059"/>
  <anchor x="198" y="0" name="bottom"/>
  <anchor x="350" y="714" name="top"/>
  <anchor x="643" y="714" name="topright"/>
  <outline>
    <contour>
      <point x="68" y="0" type="line"/>
      <point x="322" y="0" type="line"/>
      <point x="324" y="10" type="line"/>
      <point x="299" y="10" type="line" smooth="yes"/>
      <point x="268" y="10"/>
      <point x="251" y="16"/>
      <point x="251" y="37" type="curve" smooth="yes"/>
      <point x="251" y="47"/>
      <point x="252" y="54"/>
      <point x="255" y="69" type="curve" smooth="yes"/>
      <point x="300" y="305" type="line"/>
      <point x="506" y="637" type="line" smooth="yes"/>
      <point x="542" y="697"/>
      <point x="558" y="704"/>
      <point x="586" y="704" type="curve" smooth="yes"/>
      <point x="607" y="704" type="line"/>
      <point x="609" y="714" type="line"/>
      <point x="414" y="714" type="line"/>
      <point x="411" y="704" type="line"/>
      <point x="445" y="704" type="line" smooth="yes"/>
      <point x="483" y="704"/>
      <point x="503" y="695"/>
      <point x="503" y="671" type="curve" smooth="yes"/>
      <point x="503" y="661"/>
      <point x="496" y="641"/>
      <point x="482" y="619" type="curve" smooth="yes"/>
      <point x="363" y="425" type="line" smooth="yes"/>
      <point x="335" y="379"/>
      <point x="313" y="344"/>
      <point x="293" y="312" type="curve"/>
      <point x="285" y="369"/>
      <point x="270" y="432"/>
      <point x="262" y="477" type="curve" smooth="yes"/>
      <point x="235" y="597" type="line" smooth="yes"/>
      <point x="227" y="641"/>
      <point x="225" y="657"/>
      <point x="225" y="676" type="curve" smooth="yes"/>
      <point x="225" y="697"/>
      <point x="241" y="704"/>
      <point x="266" y="704" type="curve" smooth="yes"/>
      <point x="310" y="704" type="line"/>
      <point x="313" y="714" type="line"/>
      <point x="91" y="714" type="line"/>
      <point x="90" y="704" type="line"/>
      <point x="100" y="704" type="line" smooth="yes"/>
      <point x="126" y="704"/>
      <point x="131" y="697"/>
      <point x="139" y="659" type="curve" smooth="yes"/>
      <point x="213" y="311" type="line"/>
      <point x="164" y="68" type="line" smooth="yes"/>
      <point x="155" y="22"/>
      <point x="133" y="10"/>
      <point x="97" y="10" type="curve" smooth="yes"/>
      <point x="70" y="10" type="line"/>
    </contour>
  </outline>
</glyph>
<glyph name="Z" format="2">
  <advance width="493"/>
  <unicode hex="005A"/>
  <anchor x="177" y="0" name="bottom"/>
  <anchor x="311" y="714" name="top"/>
  <anchor x="555" y="714" name="topright"/>
  <outline>
    <contour>
      <point x="-36" y="0" type="line"/>
      <point x="409" y="0" type="line"/>
      <point x="450" y="170" type="line"/>
      <point x="439" y="170" type="line"/>
      <point x="427" y="120" type="line" smooth="yes"/>
      <point x="411" y="58"/>
      <point x="376" y="10"/>
      <point x="308" y="10" type="curve" smooth="yes"/>
      <point x="77" y="10" type="line"/>
      <point x="536" y="705" type="line"/>
      <point x="537" y="714" type="line"/>
      <point x="132" y="714" type="line"/>
      <point x="90" y="550" type="line"/>
      <point x="100" y="550" type="line"/>
      <point x="119" y="617" type="line" smooth="yes"/>
      <point x="137" y="684"/>
      <point x="189" y="704"/>
      <point x="253" y="704" type="curve" smooth="yes"/>
      <point x="440" y="704" type="line"/>
      <point x="-33" y="12" type="line"/>
    </contour>
  </outline>
</glyph>
<glyph name="bracketleft" format="2">
  <advance width="281"/>
  <unicode hex="005B"/>
  <outline>
    <contour>
      <point x="-24" y="-128" type="line"/>
      <point x="166" y="-128" type="line"/>
      <point x="168" y="-118" type="line"/>
      <point x="126" y="-118" type="line" smooth="yes"/>
      <point x="93" y="-118"/>
      <point x="75" y="-115"/>
      <point x="75" y="-89" type="curve" smooth="yes"/>
      <point x="75" y="-82"/>
      <point x="77" y="-70"/>
      <point x="79" y="-56" type="curve" smooth="yes"/>
      <point x="235" y="681" type="line" smooth="yes"/>
      <point x="248" y="744"/>
      <point x="266" y="750"/>
      <point x="315" y="750" type="curve" smooth="yes"/>
      <point x="353" y="750" type="line"/>
      <point x="355" y="760" type="line"/>
      <point x="165" y="760" type="line"/>
    </contour>
  </outline>
</glyph>
<glyph name="backslash" format="2">
  <advance width="243"/>
  <unicode hex="005C"/>
  <outline>
    <contour>
      <point x="150" y="-121" type="line"/>
      <point x="160" y="-121" type="line"/>
      <point x="116" y="760" type="line"/>
      <point x="105" y="760" type="line"/>
    </contour>
  </outline>
</glyph>
<glyph name="bracketright" format="2">
  <advance width="280"/>
  <unicode hex="005D"/>
  <outline>
    <contour>
      <point x="-54" y="-128" type="line"/>
      <point x="136" y="-128" type="line"/>
      <point x="325" y="760" type="line"/>
      <point x="135" y="760" type="line"/>
      <point x="133" y="750" type="line"/>
      <point x="175" y="750" type="line" smooth="yes"/>
      <point x="208" y="750"/>
      <point x="226" y="747"/>
      <point x="226" y="721" type="curve" smooth="yes"/>
      <point x="226" y="714"/>
      <point x="224" y="702"/>
      <point x="221" y="688" type="curve" smooth="yes"/>
      <point x="65" y="-49" type="line" smooth="yes"/>
      <point x="52" y="-112"/>
      <point x="35" y="-118"/>
      <point x="-15" y="-118" type="curve" smooth="yes"/>
      <point x="-52" y="-118" type="line"/>
    </contour>
  </outline>
</glyph>
<glyph name="grave" format="2">
  <advance width="236"/>
  <unicode hex="0060"/>
  <outline>
    <contour>
      <point x="259" y="606" type="curve"/>
      <point x="268" y="606" type="line"/>
      <point x="269" y="614" type="line"/>
      <point x="251" y="658"/>
      <point x="230" y="723"/>
      <point x="222" y="766" type="curve"/>
      <point x="146" y="766" type="line"/>
      <point x="145" y="757" type="line"/>
      <point x="166" y="710"/>
      <point x="212" y="653"/>
    </contour>
  </outline>
</glyph>
<glyph name="b" format="2">
  <advance width="470"/>
  <unicode hex="0062"/>
  <anchor x="179" y="0" name="bottom"/>
  <anchor x="341" y="760" name="top"/>
  <anchor x="550" y="760" name="topright"/>
  <outline>
    <contour>
      <point x="196" y="-10" type="curve" smooth="yes"/>
      <point x="349" y="-10"/>
      <point x="443" y="209"/>
      <point x="443" y="387" type="curve" smooth="yes"/>
      <point x="443" y="494"/>
      <point x="408" y="546"/>
      <point x="343" y="546" type="curve" smooth="yes"/>
      <point x="271" y="546"/>
      <point x="221" y="480"/>
      <point x="187" y="385" type="curve"/>
      <point x="182" y="385" type="line"/>
      <point x="195" y="441"/>
      <point x="214" y="490"/>
      <point x="224" y="539" type="curve" smooth="yes"/>
      <point x="271" y="760" type="line"/>
      <point x="115" y="760" type="line"/>
      <point x="112" y="750" type="line"/>
      <point x="135" y="750" type="line" smooth="yes"/>
      <point x="162" y="750"/>
      <point x="172" y="743"/>
      <point x="172" y="724" type="curve" smooth="yes"/>
      <point x="172" y="713"/>
      <point x="169" y="698"/>
      <point x="165" y="679" type="curve" smooth="yes"/>
      <point x="21" y="-3" type="line"/>
      <point x="30" y="-3" type="line"/>
      <point x="107" y="29" type="line"/>
      <point x="125" y="9"/>
      <point x="153" y="-10"/>
    </contour>
    <contour>
      <point x="180" y="2" type="curve" smooth="yes"/>
      <point x="152" y="2"/>
      <point x="130" y="17"/>
      <point x="117" y="38" type="curve"/>
      <point x="175" y="314" type="line" smooth="yes"/>
      <point x="199" y="424"/>
      <point x="255" y="519"/>
      <point x="311" y="519" type="curve" smooth="yes"/>
      <point x="337" y="519"/>
      <point x="358" y="496"/>
      <point x="358" y="403" type="curve" smooth="yes"/>
      <point x="358" y="229"/>
      <point x="288" y="2"/>
    </contour>
  </outline>
</glyph>
<glyph name="c" format="2">
  <advance width="408"/>
  <unicode hex="0063"/>
  <anchor x="168" y="0" name="bottom"/>
  <anchor x="276" y="536" name="top"/>
  <anchor x="436" y="536" name="topright"/>
  <outline>
    <contour>
      <point x="198" y="-10" type="curve" smooth="yes"/>
      <point x="283" y="-10"/>
      <point x="336" y="42"/>
      <point x="336" y="89" type="curve" smooth="yes"/>
      <point x="336" y="109"/>
      <point x="330" y="119"/>
      <point x="323" y="124" type="curve"/>
      <point x="295" y="45"/>
      <point x="261" y="2"/>
      <point x="205" y="2" type="curve" smooth="yes"/>
      <point x="151" y="2"/>
      <point x="117" y="59"/>
      <point x="117" y="177" type="curve" smooth="yes"/>
      <point x="117" y="348"/>
      <point x="189" y="533"/>
      <point x="285" y="533" type="curve" smooth="yes"/>
      <point x="322" y="533"/>
      <point x="343" y="513"/>
      <point x="345" y="454" type="curve" smooth="yes"/>
      <point x="346" y="426"/>
      <point x="344" y="401"/>
      <point x="340" y="378" type="curve"/>
      <point x="394" y="378"/>
      <point x="413" y="408"/>
      <point x="413" y="444" type="curve" smooth="yes"/>
      <point x="413" y="496"/>
      <point x="380" y="544"/>
      <point x="292" y="544" type="curve" smooth="yes"/>
      <point x="115" y="544"/>
      <point x="34" y="344"/>
      <point x="34" y="193" type="curve" smooth="yes"/>
      <point x="34" y="55"/>
      <point x="97" y="-10"/>
    </contour>
  </outline>
</glyph>
<glyph name="d" format="2">
  <advance width="475"/>
  <unicode hex="0064"/>
  <anchor x="177" y="0" name="bottom"/>
  <anchor x="291" y="268" name="center"/>
  <anchor x="339" y="760" name="top"/>
  <anchor x="552" y="760" name="topright"/>
  <outline>
    <contour>
      <point x="125" y="-10" type="curve" smooth="yes"/>
      <point x="181" y="-10"/>
      <point x="240" y="31"/>
      <point x="287" y="172" type="curve"/>
      <point x="291" y="172" type="line"/>
      <point x="285" y="136"/>
      <point x="280" y="109"/>
      <point x="280" y="74" type="curve" smooth="yes"/>
      <point x="280" y="18"/>
      <point x="305" y="-10"/>
      <point x="352" y="-10" type="curve" smooth="yes"/>
      <point x="397" y="-10"/>
      <point x="422" y="9"/>
      <point x="451" y="39" type="curve"/>
      <point x="445" y="47" type="line"/>
      <point x="427" y="27"/>
      <point x="407" y="10"/>
      <point x="386" y="10" type="curve" smooth="yes"/>
      <point x="363" y="10"/>
      <point x="352" y="24"/>
      <point x="352" y="64" type="curve" smooth="yes"/>
      <point x="352" y="96"/>
      <point x="365" y="158"/>
      <point x="374" y="198" type="curve" smooth="yes"/>
      <point x="494" y="760" type="line"/>
      <point x="333" y="760" type="line"/>
      <point x="331" y="750" type="line"/>
      <point x="351" y="750" type="line" smooth="yes"/>
      <point x="386" y="750"/>
      <point x="394" y="739"/>
      <point x="394" y="723" type="curve" smooth="yes"/>
      <point x="394" y="714"/>
      <point x="392" y="701"/>
      <point x="389" y="686" type="curve" smooth="yes"/>
      <point x="369" y="590" type="line" smooth="yes"/>
      <point x="366" y="574"/>
      <point x="359" y="540"/>
      <point x="356" y="515" type="curve"/>
      <point x="336" y="535"/>
      <point x="313" y="546"/>
      <point x="275" y="546" type="curve" smooth="yes"/>
      <point x="115" y="546"/>
      <point x="27" y="315"/>
      <point x="27" y="150" type="curve" smooth="yes"/>
      <point x="27" y="63"/>
      <point x="52" y="-10"/>
    </contour>
    <contour>
      <point x="160" y="16" type="curve" smooth="yes"/>
      <point x="132" y="16"/>
      <point x="110" y="47"/>
      <point x="110" y="136" type="curve" smooth="yes"/>
      <point x="110" y="308"/>
      <point x="188" y="534"/>
      <point x="294" y="534" type="curve" smooth="yes"/>
      <point x="318" y="534"/>
      <point x="341" y="523"/>
      <point x="352" y="501" type="curve"/>
      <point x="292" y="225" type="line" smooth="yes"/>
      <point x="276" y="147"/>
      <point x="217" y="16"/>
    </contour>
  </outline>
</glyph>
<glyph name="e" format="2">
  <advance width="400"/>
  <unicode hex="0065"/>
  <anchor x="156" y="0" name="bottom"/>
  <anchor x="283" y="536" name="top"/>
  <anchor x="434" y="536" name="topright"/>
  <outline>
    <contour>
      <point x="194" y="-10" type="curve" smooth="yes"/>
      <point x="282" y="-10"/>
      <point x="332" y="52"/>
      <point x="332" y="98" type="curve" smooth="yes"/>
      <point x="332" y="118"/>
      <point x="327" y="124"/>
      <point x="321" y="127" type="curve"/>
      <point x="300" y="56"/>
      <point x="262" y="1"/>
      <point x="208" y="1" type="curve" smooth="yes"/>
      <point x="152" y="1"/>
      <point x="119" y="60"/>
      <point x="119" y="176" type="curve" smooth="yes"/>
      <point x="119" y="199"/>
      <point x="121" y="238"/>
      <point x="123" y="248" type="curve"/>
      <point x="159" y="248" type="line" smooth="yes"/>
      <point x="294" y="248"/>
      <point x="398" y="318"/>
      <point x="398" y="435" type="curve" smooth="yes"/>
      <point x="398" y="505"/>
      <point x="358" y="546"/>
      <point x="287" y="546" type="curve" smooth="yes"/>
      <point x="115" y="546"/>
      <point x="33" y="336"/>
      <point x="33" y="188" type="curve" smooth="yes"/>
      <point x="33" y="55"/>
      <point x="97" y="-10"/>
    </contour>
    <contour>
      <point x="148" y="258" type="curve" smooth="yes"/>
      <point x="124" y="258" type="line"/>
      <point x="150" y="425"/>
      <point x="204" y="534"/>
      <point x="270" y="534" type="curve" smooth="yes"/>
      <point x="303" y="534"/>
      <point x="318" y="513"/>
      <point x="318" y="459" type="curve" smooth="yes"/>
      <point x="318" y="349"/>
      <point x="251" y="258"/>
    </contour>
  </outline>
</glyph>
<glyph name="f" format="2">
  <advance width="280"/>
  <unicode hex="0066"/>
  <anchor x="-81" y="-240" name="bottom"/>
  <anchor x="320" y="770" name="top"/>
  <anchor x="470" y="770" name="topright"/>
  <outline>
    <contour>
      <point x="-82" y="-240" type="curve" smooth="yes"/>
      <point x="-6" y="-240"/>
      <point x="71" y="-202"/>
      <point x="109" y="-16" type="curve" smooth="yes"/>
      <point x="224" y="526" type="line"/>
      <point x="317" y="526" type="line"/>
      <point x="319" y="536" type="line"/>
      <point x="226" y="536" type="line"/>
      <point x="250" y="650" type="line" smooth="yes"/>
      <point x="264" y="718"/>
      <point x="281" y="760"/>
      <point x="319" y="760" type="curve" smooth="yes"/>
      <point x="352" y="760"/>
      <point x="359" y="724"/>
      <point x="357" y="633" type="curve"/>
      <point x="399" y="633"/>
      <point x="422" y="652"/>
      <point x="422" y="687" type="curve" smooth="yes"/>
      <point x="422" y="736"/>
      <point x="387" y="770"/>
      <point x="318" y="770" type="curve" smooth="yes"/>
      <point x="224" y="770"/>
      <point x="176" y="709"/>
      <point x="152" y="603" type="curve" smooth="yes"/>
      <point x="137" y="536" type="line"/>
      <point x="62" y="531" type="line"/>
      <point x="61" y="526" type="line"/>
      <point x="134" y="526" type="line"/>
      <point x="14" y="-53" type="line" smooth="yes"/>
      <point x="-15" y="-193"/>
      <point x="-40" y="-229"/>
      <point x="-91" y="-229" type="curve" smooth="yes"/>
      <point x="-103" y="-229"/>
      <point x="-118" y="-226"/>
      <point x="-128" y="-222" type="curve"/>
      <point x="-131" y="-232" type="line"/>
      <point x="-119" y="-237"/>
      <point x="-100" y="-240"/>
    </contour>
  </outline>
</glyph>
<glyph name="h" format="2">
  <advance width="488"/>
  <unicode hex="0068"/>
  <anchor x="193" y="0" name="bottom"/>
  <anchor x="307" y="268" name="center"/>
  <anchor x="355" y="760" name="top"/>
  <anchor x="499" y="760" name="topright"/>
  <outline>
    <contour>
      <point x="361" y="-10" type="curve" smooth="yes"/>
      <point x="418" y="-10"/>
      <point x="441" y="15"/>
      <point x="466" y="45" type="curve"/>
      <point x="459" y="52" type="line"/>
      <point x="440" y="26"/>
      <point x="419" y="9"/>
      <point x="398" y="9" type="curve" smooth="yes"/>
      <point x="375" y="9"/>
      <point x="364" y="27"/>
      <point x="364" y="56" type="curve" smooth="yes"/>
      <point x="364" y="85"/>
      <point x="373" y="131"/>
      <point x="383" y="180" type="curve" smooth="yes"/>
      <point x="414" y="324" type="line" smooth="yes"/>
      <point x="421" y="359"/>
      <point x="433" y="405"/>
      <point x="433" y="443" type="curve" smooth="yes"/>
      <point x="433" y="497"/>
      <point x="413" y="545"/>
      <point x="348" y="545" type="curve" smooth="yes"/>
      <point x="278" y="545"/>
      <point x="237" y="500"/>
      <point x="194" y="395" type="curve"/>
      <point x="192" y="395" type="line"/>
      <point x="199" y="422"/>
      <point x="215" y="492"/>
      <point x="219" y="511" type="curve" smooth="yes"/>
      <point x="272" y="760" type="line"/>
      <point x="115" y="760" type="line"/>
      <point x="113" y="750" type="line"/>
      <point x="126" y="750" type="line" smooth="yes"/>
      <point x="160" y="750"/>
      <point x="171" y="741"/>
      <point x="171" y="722" type="curve" smooth="yes"/>
      <point x="171" y="712"/>
      <point x="169" y="702"/>
      <point x="166" y="686" type="curve" smooth="yes"/>
      <point x="19" y="0" type="line"/>
      <point x="106" y="0" type="line"/>
      <point x="181" y="329" type="line" smooth="yes"/>
      <point x="196" y="394"/>
      <point x="251" y="519"/>
      <point x="312" y="519" type="curve" smooth="yes"/>
      <point x="340" y="519"/>
      <point x="347" y="495"/>
      <point x="347" y="458" type="curve" smooth="yes"/>
      <point x="347" y="421"/>
      <point x="337" y="376"/>
      <point x="329" y="339" type="curve" smooth="yes"/>
      <point x="299" y="201" type="line" smooth="yes"/>
      <point x="289" y="154"/>
      <point x="281" y="108"/>
      <point x="281" y="77" type="curve" smooth="yes"/>
      <point x="281" y="23"/>
      <point x="309" y="-10"/>
    </contour>
  </outline>
</glyph>
<glyph name="j" format="2">
  <advance width="240"/>
  <unicode hex="006A"/>
  <anchor x="-61" y="-240" name="bottom"/>
  <anchor x="223" y="755" name="top"/>
  <anchor x="323" y="755" name="topright"/>
  <outline>
    <contour>
      <point x="-67" y="-240" type="curve" smooth="yes"/>
      <point x="15" y="-240"/>
      <point x="74" y="-179"/>
      <point x="111" y="-4" type="curve" smooth="yes"/>
      <point x="226" y="536" type="line"/>
      <point x="68" y="536" type="line"/>
      <point x="65" y="526" type="line"/>
      <point x="76" y="526" type="line" smooth="yes"/>
      <point x="112" y="526"/>
      <point x="124" y="518"/>
      <point x="124" y="491" type="curve" smooth="yes"/>
      <point x="124" y="475"/>
      <point x="120" y="458"/>
      <point x="115" y="436" type="curve" smooth="yes"/>
      <point x="14" y="-38" type="line" smooth="yes"/>
      <point x="-15" y="-177"/>
      <point x="-33" y="-227"/>
      <point x="-87" y="-227" type="curve" smooth="yes"/>
      <point x="-99" y="-227"/>
      <point x="-116" y="-224"/>
      <point x="-125" y="-221" type="curve"/>
      <point x="-128" y="-231" type="line"/>
      <point x="-108" y="-237"/>
      <point x="-92" y="-240"/>
    </contour>
    <contour>
      <point x="197" y="656" type="curve" smooth="yes"/>
      <point x="234" y="656"/>
      <point x="257" y="675"/>
      <point x="257" y="714" type="curve" smooth="yes"/>
      <point x="257" y="742"/>
      <point x="235" y="755"/>
      <point x="210" y="755" type="curve" smooth="yes"/>
      <point x="178" y="755"/>
      <point x="150" y="736"/>
      <point x="150" y="696" type="curve" smooth="yes"/>
      <point x="150" y="669"/>
      <point x="171" y="656"/>
    </contour>
  </outline>
</glyph>
<glyph name="k" format="2">
  <advance width="465"/>
  <unicode hex="006B"/>
  <anchor x="186" y="0" name="bottom"/>
  <anchor x="348" y="760" name="top"/>
  <anchor x="501" y="760" name="topright"/>
  <outline>
    <contour>
      <point x="390" y="-6" type="curve" smooth="yes"/>
      <point x="422" y="-6" type="line"/>
      <point x="424" y="4" type="line"/>
      <point x="390" y="4"/>
      <point x="383" y="15"/>
      <point x="370" y="57" type="curve" smooth="yes"/>
      <point x="282" y="341" type="line"/>
      <point x="264" y="321" type="line"/>
      <point x="408" y="463" type="line" smooth="yes"/>
      <point x="453" y="508"/>
      <point x="476" y="526"/>
      <point x="510" y="526" type="curve"/>
      <point x="512" y="536" type="line"/>
      <point x="329" y="536" type="line"/>
      <point x="327" y="526" type="line"/>
      <point x="384" y="526"/>
      <point x="411" y="523"/>
      <point x="411" y="498" type="curve" smooth="yes"/>
      <point x="411" y="481"/>
      <point x="391" y="461"/>
      <point x="363" y="434" type="curve" smooth="yes"/>
      <point x="157" y="234" type="line"/>
      <point x="181" y="327"/>
      <point x="202" y="428"/>
      <point x="221" y="513" type="curve" smooth="yes"/>
      <point x="275" y="760" type="line"/>
      <point x="115" y="760" type="line"/>
      <point x="113" y="750" type="line"/>
      <point x="138" y="750" type="line" smooth="yes"/>
      <point x="163" y="750"/>
      <point x="174" y="744"/>
      <point x="174" y="722" type="curve" smooth="yes"/>
      <point x="174" y="711"/>
      <point x="172" y="697"/>
      <point x="169" y="686" type="curve" smooth="yes"/>
      <point x="23" y="0" type="line"/>
      <point x="110" y="0" type="line"/>
      <point x="155" y="219" type="line"/>
      <point x="255" y="315" type="line"/>
      <point x="214" y="283" type="line"/>
      <point x="268" y="92" type="line" smooth="yes"/>
      <point x="291" y="11"/>
      <point x="318" y="-6"/>
    </contour>
  </outline>
</glyph>
<glyph name="l" format="2">
  <advance width="260"/>
  <unicode hex="006C"/>
  <anchor x="79" y="0" name="bottom"/>
  <anchor x="193" y="268" name="center"/>
  <anchor x="241" y="760" name="top"/>
  <anchor x="345" y="760" name="topright"/>
  <outline>
    <contour>
      <point x="132" y="-10" type="curve" smooth="yes"/>
      <point x="188" y="-10"/>
      <point x="210" y="11"/>
      <point x="237" y="43" type="curve"/>
      <point x="231" y="50" type="line"/>
      <point x="210" y="26"/>
      <point x="190" y="9"/>
      <point x="166" y="9" type="curve" smooth="yes"/>
      <point x="140" y="9"/>
      <point x="131" y="29"/>
      <point x="131" y="64" type="curve" smooth="yes"/>
      <point x="131" y="85"/>
      <point x="135" y="113"/>
      <point x="144" y="151" type="curve" smooth="yes"/>
      <point x="275" y="760" type="line"/>
      <point x="115" y="760" type="line"/>
      <point x="113" y="750" type="line"/>
      <point x="133" y="750" type="line" smooth="yes"/>
      <point x="169" y="750"/>
      <point x="173" y="737"/>
      <point x="173" y="720" type="curve" smooth="yes"/>
      <point x="173" y="713"/>
      <point x="171" y="703"/>
      <point x="168" y="690" type="curve" smooth="yes"/>
      <point x="63" y="187" type="line" smooth="yes"/>
      <point x="54" y="142"/>
      <point x="47" y="108"/>
      <point x="47" y="80" type="curve" smooth="yes"/>
      <point x="47" y="24"/>
      <point x="73" y="-10"/>
    </contour>
  </outline>
</glyph>
<glyph name="o" format="2">
  <advance width="470"/>
  <unicode hex="006F"/>
  <anchor x="173" y="0" name="bottom"/>
  <anchor x="287" y="268" name="center"/>
  <anchor x="287" y="536" name="top"/>
  <anchor x="500" y="536" name="topright"/>
  <outline>
    <contour>
      <point x="187" y="-10" type="curve" smooth="yes"/>
      <point x="360" y="-10"/>
      <point x="437" y="206"/>
      <point x="437" y="350" type="curve" smooth="yes"/>
      <point x="437" y="489"/>
      <point x="370" y="546"/>
      <point x="286" y="546" type="curve" smooth="yes"/>
      <point x="112" y="546"/>
      <point x="33" y="332"/>
      <point x="33" y="185" type="curve" smooth="yes"/>
      <point x="33" y="53"/>
      <point x="95" y="-10"/>
    </contour>
    <contour>
      <point x="191" y="0" type="curve" smooth="yes"/>
      <point x="142" y="0"/>
      <point x="114" y="39"/>
      <point x="114" y="147" type="curve" smooth="yes"/>
      <point x="114" y="325"/>
      <point x="180" y="536"/>
      <point x="280" y="536" type="curve" smooth="yes"/>
      <point x="330" y="536"/>
      <point x="355" y="488"/>
      <point x="355" y="385" type="curve" smooth="yes"/>
      <point x="355" y="217"/>
      <point x="297" y="0"/>
    </contour>
  </outline>
</glyph>
<glyph name="q" format="2">
  <advance width="460"/>
  <unicode hex="0071"/>
  <anchor x="117" y="-240" name="bottom"/>
  <anchor x="282" y="536" name="top"/>
  <anchor x="491" y="536" name="topright"/>
  <outline>
    <contour>
      <point x="250" y="-7" type="curve" smooth="yes"/>
      <point x="201" y="-240" type="line"/>
      <point x="359" y="-240" type="line"/>
      <point x="361" y="-230" type="line"/>
      <point x="339" y="-230" type="line" smooth="yes"/>
      <point x="307" y="-230"/>
      <point x="293" y="-224"/>
      <point x="293" y="-202" type="curve" smooth="yes"/>
      <point x="293" y="-192"/>
      <point x="295" y="-177"/>
      <point x="299" y="-158" type="curve" smooth="yes"/>
      <point x="447" y="546" type="line"/>
      <point x="438" y="546" type="line"/>
      <point x="364" y="515" type="line"/>
      <point x="344" y="535"/>
      <point x="323" y="546"/>
      <point x="283" y="546" type="curve" smooth="yes"/>
      <point x="118" y="546"/>
      <point x="27" y="319"/>
      <point x="27" y="154" type="curve" smooth="yes"/>
      <point x="27" y="59"/>
      <point x="61" y="-10"/>
      <point x="134" y="-10" type="curve" smooth="yes"/>
      <point x="205" y="-10"/>
      <point x="253" y="57"/>
      <point x="287" y="162" type="curve"/>
      <point x="291" y="162" type="line"/>
      <point x="278" y="110"/>
      <point x="261" y="44"/>
    </contour>
    <contour>
      <point x="170" y="16" type="curve" smooth="yes"/>
      <point x="136" y="16"/>
      <point x="110" y="53"/>
      <point x="110" y="144" type="curve" smooth="yes"/>
      <point x="110" y="318"/>
      <point x="189" y="534"/>
      <point x="298" y="534" type="curve" smooth="yes"/>
      <point x="325" y="534"/>
      <point x="344" y="521"/>
      <point x="351" y="505" type="curve"/>
      <point x="301" y="248" type="line" smooth="yes"/>
      <point x="279" y="135"/>
      <point x="225" y="16"/>
    </contour>
  </outline>
</glyph>
<glyph name="r" format="2">
  <advance width="394"/>
  <unicode hex="0072"/>
  <anchor x="71" y="0" name="bottom"/>
  <anchor x="261" y="536" name="top"/>
  <anchor x="425" y="536" name="topright"/>
  <outline>
    <contour>
      <point x="25" y="0" type="line"/>
      <point x="112" y="0" type="line"/>
      <point x="179" y="305" type="line" smooth="yes"/>
      <point x="206" y="427"/>
      <point x="259" y="523"/>
      <point x="310" y="523" type="curve" smooth="yes"/>
      <point x="330" y="523"/>
      <point x="344" y="510"/>
      <point x="344" y="455" type="curve" smooth="yes"/>
      <point x="344" y="442"/>
      <point x="343" y="427"/>
      <point x="342" y="406" type="curve"/>
      <point x="383" y="406"/>
      <point x="416" y="428"/>
      <point x="416" y="475" type="curve" smooth="yes"/>
      <point x="416" y="516"/>
      <point x="393" y="546"/>
      <point x="344" y="546" type="curve" smooth="yes"/>
      <point x="278" y="546"/>
      <point x="231" y="497"/>
      <point x="196" y="389" type="curve"/>
      <point x="193" y="389" type="line"/>
      <point x="218" y="536" type="line"/>
      <point x="72" y="536" type="line"/>
      <point x="70" y="526" type="line"/>
      <point x="84" y="526" type="line" smooth="yes"/>
      <point x="115" y="526"/>
      <point x="126" y="519"/>
      <point x="126" y="496" type="curve" smooth="yes"/>
      <point x="126" y="482"/>
      <point x="124" y="465"/>
      <point x="119" y="443" type="curve" smooth="yes"/>
    </contour>
  </outline>
</glyph>
<glyph name="s" format="2">
  <advance width="378"/>
  <unicode hex="0073"/>
  <anchor x="132" y="0" name="bottom"/>
  <anchor x="236" y="536" name="top"/>
  <anchor x="415" y="536" name="topright"/>
  <outline>
    <contour>
      <point x="154" y="-10" type="curve" smooth="yes"/>
      <point x="266" y="-10"/>
      <point x="326" y="61"/>
      <point x="326" y="156" type="curve" smooth="yes"/>
      <point x="326" y="233"/>
      <point x="290" y="268"/>
      <point x="228" y="311" type="curve" smooth="yes"/>
      <point x="171" y="352"/>
      <point x="144" y="376"/>
      <point x="144" y="429" type="curve" smooth="yes"/>
      <point x="144" y="496"/>
      <point x="183" y="537"/>
      <point x="232" y="537" type="curve" smooth="yes"/>
      <point x="283" y="537"/>
      <point x="298" y="498"/>
      <point x="300" y="429" type="curve" smooth="yes"/>
      <point x="300" y="416"/>
      <point x="300" y="403"/>
      <point x="299" y="388" type="curve"/>
      <point x="341" y="388"/>
      <point x="367" y="404"/>
      <point x="367" y="447" type="curve" smooth="yes"/>
      <point x="367" y="497"/>
      <point x="335" y="547"/>
      <point x="239" y="547" type="curve" smooth="yes"/>
      <point x="141" y="547"/>
      <point x="75" y="487"/>
      <point x="75" y="395" type="curve" smooth="yes"/>
      <point x="75" y="322"/>
      <point x="118" y="282"/>
      <point x="176" y="242" type="curve" smooth="yes"/>
      <point x="238" y="198"/>
      <point x="259" y="164"/>
      <point x="259" y="113" type="curve" smooth="yes"/>
      <point x="259" y="44"/>
      <point x="223" y="0"/>
      <point x="169" y="0" type="curve" smooth="yes"/>
      <point x="111" y="0"/>
      <point x="82" y="45"/>
      <point x="79" y="136" type="curve" smooth="yes"/>
      <point x="79" y="147"/>
      <point x="79" y="158"/>
      <point x="79" y="170" type="curve"/>
      <point x="43" y="170"/>
      <point x="13" y="150"/>
      <point x="13" y="103" type="curve" smooth="yes"/>
      <point x="13" y="43"/>
      <point x="62" y="-10"/>
    </contour>
  </outline>
</glyph>
<glyph name="t" format="2">
  <advance width="300"/>
  <unicode hex="0074"/>
  <anchor x="91" y="0" name="bottom"/>
  <anchor x="145" y="268" name="center"/>
  <anchor x="231" y="659" name="top"/>
  <anchor x="276" y="958" name="topright"/>
  <outline>
    <contour>
      <point x="140" y="-10" type="curve" smooth="yes"/>
      <point x="186" y="-10"/>
      <point x="222" y="10"/>
      <point x="256" y="36" type="curve"/>
      <point x="252" y="45" type="line"/>
      <point x="226" y="24"/>
      <point x="198" y="10"/>
      <point x="173" y="10" type="curve" smooth="yes"/>
      <point x="143" y="10"/>
      <point x="133" y="27"/>
      <point x="133" y="62" type="curve" smooth="yes"/>
      <point x="133" y="81"/>
      <point x="135" y="102"/>
      <point x="147" y="158" type="curve" smooth="yes"/>
      <point x="226" y="526" type="line"/>
      <point x="316" y="526" type="line"/>
      <point x="318" y="536" type="line"/>
      <point x="229" y="536" type="line"/>
      <point x="255" y="659" type="line"/>
      <point x="245" y="659" type="line"/>
      <point x="203" y="558"/>
      <point x="123" y="531"/>
      <point x="66" y="531" type="curve"/>
      <point x="65" y="526" type="line"/>
      <point x="137" y="526" type="line"/>
      <point x="67" y="192" type="line" smooth="yes"/>
      <point x="55" y="137"/>
      <point x="52" y="111"/>
      <point x="52" y="83" type="curve" smooth="yes"/>
      <point x="52" y="27"/>
      <point x="84" y="-10"/>
    </contour>
  </outline>
</glyph>
<glyph name="v" format="2">
  <advance width="430"/>
  <unicode hex="0076"/>
  <anchor x="162" y="0" name="bottom"/>
  <anchor x="276" y="536" name="top"/>
  <anchor x="474" y="536" name="topright"/>
  <outline>
    <contour>
      <point x="129" y="-9" type="line"/>
      <point x="190" y="1" type="line"/>
      <point x="310" y="165"/>
      <point x="415" y="320"/>
      <point x="415" y="467" type="curve" smooth="yes"/>
      <point x="415" y="521"/>
      <point x="395" y="546"/>
      <point x="368" y="546" type="curve" smooth="yes"/>
      <point x="341" y="546"/>
      <point x="323" y="526"/>
      <point x="323" y="496" type="curve"/>
      <point x="361" y="496"/>
      <point x="381" y="471"/>
      <point x="381" y="419" type="curve" smooth="yes"/>
      <point x="381" y="301"/>
      <point x="312" y="183"/>
      <point x="205" y="35" type="curve"/>
      <point x="202" y="35" type="line"/>
      <point x="199" y="88"/>
      <point x="194" y="154"/>
      <point x="190" y="210" type="curve" smooth="yes"/>
      <point x="161" y="536" type="line"/>
      <point x="35" y="536" type="line"/>
      <point x="33" y="526" type="line"/>
      <point x="42" y="526" type="line" smooth="yes"/>
      <point x="73" y="526"/>
      <point x="79" y="520"/>
      <point x="84" y="469" type="curve" smooth="yes"/>
    </contour>
  </outline>
</glyph>
<glyph name="w" format="2">
  <advance width="671"/>
  <unicode hex="0077"/>
  <anchor x="275" y="0" name="bottom"/>
  <anchor x="389" y="536" name="top"/>
  <anchor x="701" y="536" name="topright"/>
  <outline>
    <contour>
      <point x="362" y="-12" type="curve"/>
      <point x="429" y="-2" type="line"/>
      <point x="564" y="188"/>
      <point x="658" y="347"/>
      <point x="658" y="471" type="curve" smooth="yes"/>
      <point x="658" y="520"/>
      <point x="641" y="546"/>
      <point x="612" y="546" type="curve" smooth="yes"/>
      <point x="590" y="546"/>
      <point x="574" y="535"/>
      <point x="573" y="502" type="curve"/>
      <point x="615" y="502"/>
      <point x="629" y="482"/>
      <point x="629" y="437" type="curve" smooth="yes"/>
      <point x="629" y="323"/>
      <point x="560" y="205"/>
      <point x="443" y="28" type="curve"/>
      <point x="439" y="28" type="line"/>
      <point x="440" y="111"/>
      <point x="435" y="431"/>
      <point x="430" y="531" type="curve"/>
      <point x="370" y="527" type="line"/>
      <point x="321" y="394"/>
      <point x="222" y="144"/>
      <point x="173" y="36" type="curve"/>
      <point x="169" y="36" type="line"/>
      <point x="171" y="171"/>
      <point x="175" y="397"/>
      <point x="175" y="536" type="curve"/>
      <point x="48" y="536" type="line"/>
      <point x="45" y="526" type="line"/>
      <point x="60" y="526" type="line" smooth="yes"/>
      <point x="88" y="526"/>
      <point x="96" y="520"/>
      <point x="96" y="470" type="curve" smooth="yes"/>
      <point x="92" y="-9" type="line"/>
      <point x="168" y="-1" type="line"/>
      <point x="228" y="132"/>
      <point x="315" y="347"/>
      <point x="362" y="475" type="curve"/>
      <point x="364" y="399"/>
      <point x="363" y="111"/>
    </contour>
  </outline>
</glyph>
<glyph name="y" format="2">
  <advance width="446"/>
  <unicode hex="0079"/>
  <anchor x="48" y="-240" name="bottom"/>
  <anchor x="258" y="536" name="top"/>
  <anchor x="471" y="536" name="topright"/>
  <outline>
    <contour>
      <point x="-57" y="-240" type="curve" smooth="yes"/>
      <point x="92" y="-240"/>
      <point x="147" y="-151"/>
      <point x="272" y="59" type="curve" smooth="yes"/>
      <point x="364" y="214"/>
      <point x="430" y="344"/>
      <point x="430" y="468" type="curve" smooth="yes"/>
      <point x="430" y="519"/>
      <point x="411" y="544"/>
      <point x="379" y="544" type="curve" smooth="yes"/>
      <point x="354" y="544"/>
      <point x="335" y="526"/>
      <point x="335" y="495" type="curve"/>
      <point x="362" y="495"/>
      <point x="394" y="484"/>
      <point x="394" y="424" type="curve" smooth="yes"/>
      <point x="394" y="284"/>
      <point x="325" y="166"/>
      <point x="244" y="35" type="curve"/>
      <point x="241" y="35" type="line"/>
      <point x="235" y="75"/>
      <point x="228" y="140"/>
      <point x="220" y="188" type="curve" smooth="yes"/>
      <point x="161" y="536" type="line"/>
      <point x="36" y="536" type="line"/>
      <point x="34" y="526" type="line"/>
      <point x="43" y="526" type="line" smooth="yes"/>
      <point x="67" y="526"/>
      <point x="74" y="519"/>
      <point x="81" y="480" type="curve" smooth="yes"/>
      <point x="179" y="-52" type="line"/>
      <point x="104" y="-182"/>
      <point x="43" y="-230"/>
      <point x="-58" y="-230" type="curve" smooth="yes"/>
      <point x="-89" y="-230"/>
      <point x="-113" y="-222"/>
      <point x="-130" y="-213" type="curve"/>
      <point x="-134" y="-223" type="line"/>
      <point x="-115" y="-234"/>
      <point x="-85" y="-240"/>
    </contour>
  </outline>
</glyph>
<glyph name="z" format="2">
  <advance width="416"/>
  <unicode hex="007A"/>
  <anchor x="153" y="0" name="bottom"/>
  <anchor x="242" y="536" name="top"/>
  <anchor x="454" y="536" name="topright"/>
  <outline>
    <contour>
      <point x="-12" y="0" type="line"/>
      <point x="326" y="0" type="line"/>
      <point x="364" y="163" type="line"/>
      <point x="354" y="163" type="line"/>
      <point x="327" y="72" type="line" smooth="yes"/>
      <point x="313" y="28"/>
      <point x="297" y="10"/>
      <point x="236" y="10" type="curve" smooth="yes"/>
      <point x="83" y="10" type="line"/>
      <point x="422" y="527" type="line"/>
      <point x="424" y="536" type="line"/>
      <point x="118" y="536" type="line"/>
      <point x="79" y="394" type="line"/>
      <point x="90" y="394" type="line"/>
      <point x="108" y="451" type="line" smooth="yes"/>
      <point x="127" y="512"/>
      <point x="149" y="526"/>
      <point x="212" y="526" type="curve" smooth="yes"/>
      <point x="327" y="526" type="line"/>
      <point x="-10" y="10" type="line"/>
    </contour>
  </outline>
</glyph>
<glyph name="braceleft" format="2">
  <advance width="352"/>
  <unicode hex="007B"/>
  <outline>
    <contour>
      <point x="183" y="-128" type="curve" smooth="yes"/>
      <point x="236" y="-128" type="line"/>
      <point x="239" y="-118" type="line"/>
      <point x="216" y="-118" type="line" smooth="yes"/>
      <point x="181" y="-118"/>
      <point x="167" y="-101"/>
      <point x="167" y="-61" type="curve" smooth="yes"/>
      <point x="167" y="-48"/>
      <point x="169" y="-28"/>
      <point x="174" y="-8" type="curve" smooth="yes"/>
      <point x="211" y="165" type="line" smooth="yes"/>
      <point x="214" y="184"/>
      <point x="218" y="203"/>
      <point x="218" y="222" type="curve" smooth="yes"/>
      <point x="218" y="258"/>
      <point x="198" y="308"/>
      <point x="115" y="313" type="curve"/>
      <point x="116" y="317" type="line"/>
      <point x="217" y="324"/>
      <point x="254" y="374"/>
      <point x="269" y="441" type="curve" smooth="yes"/>
      <point x="315" y="650" type="line" smooth="yes"/>
      <point x="334" y="736"/>
      <point x="347" y="750"/>
      <point x="402" y="750" type="curve" smooth="yes"/>
      <point x="422" y="750" type="line"/>
      <point x="425" y="760" type="line"/>
      <point x="368" y="760" type="line" smooth="yes"/>
      <point x="270" y="760"/>
      <point x="240" y="723"/>
      <point x="217" y="617" type="curve" smooth="yes"/>
      <point x="174" y="416" type="line" smooth="yes"/>
      <point x="160" y="348"/>
      <point x="129" y="325"/>
      <point x="62" y="322" type="curve"/>
      <point x="60" y="312" type="line"/>
      <point x="113" y="308"/>
      <point x="134" y="293"/>
      <point x="134" y="249" type="curve" smooth="yes"/>
      <point x="134" y="239"/>
      <point x="132" y="218"/>
      <point x="127" y="194" type="curve" smooth="yes"/>
      <point x="95" y="46" type="line" smooth="yes"/>
      <point x="86" y="4"/>
      <point x="83" y="-16"/>
      <point x="83" y="-34" type="curve" smooth="yes"/>
      <point x="83" y="-94"/>
      <point x="116" y="-128"/>
    </contour>
  </outline>
</glyph>
<glyph name="braceright" format="2">
  <advance width="352"/>
  <unicode hex="007D"/>
  <outline>
    <contour>
      <point x="-53" y="-128" type="line"/>
      <point x="3" y="-128" type="line" smooth="yes"/>
      <point x="102" y="-128"/>
      <point x="131" y="-91"/>
      <point x="154" y="15" type="curve" smooth="yes"/>
      <point x="197" y="216" type="line" smooth="yes"/>
      <point x="212" y="284"/>
      <point x="243" y="307"/>
      <point x="310" y="309" type="curve"/>
      <point x="312" y="320" type="line"/>
      <point x="258" y="324"/>
      <point x="238" y="339"/>
      <point x="238" y="383" type="curve" smooth="yes"/>
      <point x="238" y="393"/>
      <point x="240" y="414"/>
      <point x="245" y="438" type="curve" smooth="yes"/>
      <point x="277" y="586" type="line" smooth="yes"/>
      <point x="286" y="628"/>
      <point x="289" y="648"/>
      <point x="289" y="665" type="curve" smooth="yes"/>
      <point x="289" y="726"/>
      <point x="256" y="760"/>
      <point x="189" y="760" type="curve" smooth="yes"/>
      <point x="136" y="760" type="line"/>
      <point x="133" y="750" type="line"/>
      <point x="156" y="750" type="line" smooth="yes"/>
      <point x="191" y="750"/>
      <point x="205" y="733"/>
      <point x="205" y="693" type="curve" smooth="yes"/>
      <point x="205" y="679"/>
      <point x="203" y="660"/>
      <point x="198" y="640" type="curve" smooth="yes"/>
      <point x="161" y="466" type="line" smooth="yes"/>
      <point x="158" y="448"/>
      <point x="154" y="429"/>
      <point x="154" y="410" type="curve" smooth="yes"/>
      <point x="154" y="374"/>
      <point x="174" y="323"/>
      <point x="257" y="319" type="curve"/>
      <point x="256" y="315" type="line"/>
      <point x="155" y="307"/>
      <point x="117" y="258"/>
      <point x="103" y="191" type="curve" smooth="yes"/>
      <point x="56" y="-19" type="line" smooth="yes"/>
      <point x="38" y="-104"/>
      <point x="25" y="-118"/>
      <point x="-30" y="-118" type="curve" smooth="yes"/>
      <point x="-50" y="-118" type="line"/>
    </contour>
  </outline>
</glyph>
<glyph name="cent" format="2">
  <advance width="466"/>
  <unicode hex="00A2"/>
  <anchor x="212" y="92" name="bottom"/>
  <anchor x="320" y="628" name="top"/>
  <anchor x="480" y="628" name="topright"/>
  <outline>
    <contour>
      <point x="196" y="0" type="line"/>
      <point x="206" y="0" type="line"/>
      <point x="356" y="714" type="line"/>
      <point x="346" y="714" type="line"/>
    </contour>
    <component base="c" xOffset="44" yOffset="92"/>
  </outline>
</glyph>
<glyph name="sterling" format="2">
  <advance width="459"/>
  <unicode hex="00A3"/>
  <outline>
    <contour>
      <point x="293" y="-10" type="curve" smooth="yes"/>
      <point x="348" y="-10"/>
      <point x="386" y="32"/>
      <point x="423" y="78" type="curve"/>
      <point x="415" y="85" type="line"/>
      <point x="389" y="53"/>
      <point x="363" y="33"/>
      <point x="337" y="33" type="curve" smooth="yes"/>
      <point x="273" y="33"/>
      <point x="252" y="95"/>
      <point x="188" y="95" type="curve" smooth="yes"/>
      <point x="165" y="95"/>
      <point x="140" y="88"/>
      <point x="109" y="71" type="curve"/>
      <point x="108" y="75" type="line"/>
      <point x="201" y="144"/>
      <point x="233" y="203"/>
      <point x="233" y="288" type="curve" smooth="yes"/>
      <point x="233" y="309"/>
      <point x="230" y="337"/>
      <point x="227" y="367" type="curve"/>
      <point x="360" y="367" type="line"/>
      <point x="362" y="377" type="line"/>
      <point x="227" y="377" type="line"/>
      <point x="221" y="433"/>
      <point x="214" y="495"/>
      <point x="214" y="544" type="curve" smooth="yes"/>
      <point x="214" y="652"/>
      <point x="256" y="714"/>
      <point x="322" y="714" type="curve" smooth="yes"/>
      <point x="381" y="714"/>
      <point x="409" y="675"/>
      <point x="409" y="548" type="curve"/>
      <point x="456" y="548"/>
      <point x="482" y="568"/>
      <point x="482" y="608" type="curve" smooth="yes"/>
      <point x="482" y="662"/>
      <point x="436" y="724"/>
      <point x="328" y="724" type="curve" smooth="yes"/>
      <point x="213" y="724"/>
      <point x="136" y="645"/>
      <point x="136" y="515" type="curve" smooth="yes"/>
      <point x="136" y="469"/>
      <point x="144" y="424"/>
      <point x="151" y="377" type="curve"/>
      <point x="72" y="377" type="line"/>
      <point x="70" y="367" type="line"/>
      <point x="152" y="367" type="line"/>
      <point x="156" y="334"/>
      <point x="160" y="298"/>
      <point x="160" y="262" type="curve" smooth="yes"/>
      <point x="160" y="151"/>
      <point x="121" y="95"/>
      <point x="35" y="34" type="curve" smooth="yes"/>
      <point x="11" y="17" type="line"/>
      <point x="17" y="6" type="line"/>
      <point x="43" y="24" type="line" smooth="yes"/>
      <point x="76" y="46"/>
      <point x="110" y="56"/>
      <point x="133" y="56" type="curve" smooth="yes"/>
      <point x="196" y="56"/>
      <point x="223" y="-10"/>
    </contour>
  </outline>
</glyph>
<glyph name="currency" format="2">
  <advance width="498"/>
  <unicode hex="00A4"/>
  <outline>
    <contour>
      <point x="95" y="150" type="line"/>
      <point x="159" y="214" type="line"/>
      <point x="189" y="191"/>
      <point x="227" y="177"/>
      <point x="268" y="177" type="curve" smooth="yes"/>
      <point x="309" y="177"/>
      <point x="347" y="191"/>
      <point x="378" y="214" type="curve"/>
      <point x="442" y="150" type="line"/>
      <point x="477" y="185" type="line"/>
      <point x="413" y="249" type="line"/>
      <point x="435" y="280"/>
      <point x="448" y="316"/>
      <point x="448" y="358" type="curve" smooth="yes"/>
      <point x="448" y="398"/>
      <point x="435" y="436"/>
      <point x="412" y="465" type="curve"/>
      <point x="477" y="532" type="line"/>
      <point x="442" y="568" type="line"/>
      <point x="376" y="501" type="line"/>
      <point x="346" y="524"/>
      <point x="309" y="538"/>
      <point x="268" y="538" type="curve" smooth="yes"/>
      <point x="227" y="538"/>
      <point x="191" y="524"/>
      <point x="161" y="502" type="curve"/>
      <point x="95" y="567" type="line"/>
      <point x="60" y="532" type="line"/>
      <point x="125" y="467" type="line"/>
      <point x="101" y="437"/>
      <point x="88" y="398"/>
      <point x="88" y="358" type="curve" smooth="yes"/>
      <point x="88" y="317"/>
      <point x="100" y="280"/>
      <point x="123" y="250" type="curve"/>
      <point x="59" y="186" type="line"/>
    </contour>
    <contour>
      <point x="268" y="225" type="curve" smooth="yes"/>
      <point x="195" y="225"/>
      <point x="137" y="284"/>
      <point x="137" y="357" type="curve" smooth="yes"/>
      <point x="137" y="431"/>
      <point x="195" y="489"/>
      <point x="268" y="489" type="curve" smooth="yes"/>
      <point x="342" y="489"/>
      <point x="399" y="431"/>
      <point x="399" y="357" type="curve" smooth="yes"/>
      <point x="399" y="284"/>
      <point x="342" y="225"/>
    </contour>
  </outline>
</glyph>
<glyph name="section" format="2">
  <advance width="435"/>
  <unicode hex="00A7"/>
  <outline>
    <contour>
      <point x="165" y="-115" type="curve" smooth="yes"/>
      <point x="266" y="-115"/>
      <point x="329" y="-37"/>
      <point x="329" y="69" type="curve" smooth="yes"/>
      <point x="329" y="117"/>
      <point x="317" y="149"/>
      <point x="299" y="172" type="curve"/>
      <point x="353" y="212"/>
      <point x="389" y="255"/>
      <point x="389" y="313" type="curve" smooth="yes"/>
      <point x="389" y="379"/>
      <point x="359" y="414"/>
      <point x="284" y="471" type="curve" smooth="yes"/>
      <point x="221" y="518"/>
      <point x="191" y="541"/>
      <point x="191" y="623" type="curve" smooth="yes"/>
      <point x="191" y="695"/>
      <point x="229" y="748"/>
      <point x="287" y="748" type="curve" smooth="yes"/>
      <point x="352" y="748"/>
      <point x="369" y="698"/>
      <point x="369" y="590" type="curve"/>
      <point x="405" y="590"/>
      <point x="428" y="604"/>
      <point x="428" y="645" type="curve" smooth="yes"/>
      <point x="428" y="701"/>
      <point x="390" y="758"/>
      <point x="286" y="758" type="curve" smooth="yes"/>
      <point x="202" y="758"/>
      <point x="131" y="695"/>
      <point x="131" y="595" type="curve" smooth="yes"/>
      <point x="131" y="549"/>
      <point x="144" y="518"/>
      <point x="158" y="495" type="curve"/>
      <point x="111" y="468"/>
      <point x="72" y="428"/>
      <point x="72" y="356" type="curve" smooth="yes"/>
      <point x="72" y="286"/>
      <point x="108" y="242"/>
      <point x="174" y="194" type="curve" smooth="yes"/>
      <point x="249" y="134"/>
      <point x="274" y="110"/>
      <point x="274" y="40" type="curve" smooth="yes"/>
      <point x="274" y="-55"/>
      <point x="230" y="-105"/>
      <point x="163" y="-105" type="curve" smooth="yes"/>
      <point x="90" y="-105"/>
      <point x="65" y="-47"/>
      <point x="65" y="82" type="curve"/>
      <point x="40" y="80"/>
      <point x="7" y="69"/>
      <point x="7" y="16" type="curve" smooth="yes"/>
      <point x="7" y="-47"/>
      <point x="57" y="-115"/>
    </contour>
    <contour>
      <point x="293" y="181" type="curve"/>
      <point x="275" y="201"/>
      <point x="250" y="221"/>
      <point x="210" y="249" type="curve" smooth="yes"/>
      <point x="139" y="299"/>
      <point x="116" y="327"/>
      <point x="116" y="385" type="curve" smooth="yes"/>
      <point x="116" y="433"/>
      <point x="133" y="459"/>
      <point x="164" y="487" type="curve"/>
      <point x="188" y="460"/>
      <point x="206" y="444"/>
      <point x="250" y="415" type="curve" smooth="yes"/>
      <point x="326" y="359"/>
      <point x="340" y="329"/>
      <point x="340" y="290" type="curve" smooth="yes"/>
      <point x="340" y="248"/>
      <point x="323" y="212"/>
    </contour>
  </outline>
</glyph>
<glyph name="dieresis" format="2">
  <advance width="461"/>
  <unicode hex="00A8"/>
  <outline>
    <contour>
      <point x="385" y="627" type="curve" smooth="yes"/>
      <point x="411" y="627"/>
      <point x="431" y="654"/>
      <point x="431" y="694" type="curve" smooth="yes"/>
      <point x="431" y="723"/>
      <point x="418" y="733"/>
      <point x="398" y="733" type="curve" smooth="yes"/>
      <point x="368" y="733"/>
      <point x="352" y="698"/>
      <point x="352" y="667" type="curve" smooth="yes"/>
      <point x="352" y="637"/>
      <point x="365" y="627"/>
    </contour>
    <contour>
      <point x="238" y="627" type="curve" smooth="yes"/>
      <point x="264" y="627"/>
      <point x="284" y="654"/>
      <point x="284" y="695" type="curve" smooth="yes"/>
      <point x="284" y="723"/>
      <point x="271" y="733"/>
      <point x="251" y="733" type="curve" smooth="yes"/>
      <point x="221" y="733"/>
      <point x="205" y="698"/>
      <point x="205" y="667" type="curve" smooth="yes"/>
      <point x="205" y="637"/>
      <point x="218" y="627"/>
    </contour>
  </outline>
</glyph>
<glyph name="copyright" format="2">
  <advance width="669"/>
  <unicode hex="00A9"/>
  <outline>
    <contour>
      <point x="354" y="-10" type="curve" smooth="yes"/>
      <point x="536" y="-10"/>
      <point x="644" y="142"/>
      <point x="644" y="358" type="curve" smooth="yes"/>
      <point x="644" y="573"/>
      <point x="537" y="725"/>
      <point x="355" y="725" type="curve" smooth="yes"/>
      <point x="172" y="725"/>
      <point x="63" y="573"/>
      <point x="63" y="358" type="curve" smooth="yes"/>
      <point x="63" y="145"/>
      <point x="171" y="-10"/>
    </contour>
    <contour>
      <point x="362" y="109" type="curve" smooth="yes"/>
      <point x="442" y="109"/>
      <point x="484" y="163"/>
      <point x="484" y="204" type="curve" smooth="yes"/>
      <point x="484" y="220"/>
      <point x="477" y="229"/>
      <point x="462" y="234" type="curve"/>
      <point x="450" y="159"/>
      <point x="422" y="119"/>
      <point x="365" y="119" type="curve" smooth="yes"/>
      <point x="283" y="119"/>
      <point x="239" y="202"/>
      <point x="239" y="364" type="curve" smooth="yes"/>
      <point x="239" y="515"/>
      <point x="278" y="595"/>
      <point x="362" y="595" type="curve" smooth="yes"/>
      <point x="432" y="595"/>
      <point x="454" y="541"/>
      <point x="454" y="458" type="curve"/>
      <point x="471" y="458"/>
      <point x="488" y="475"/>
      <point x="488" y="506" type="curve" smooth="yes"/>
      <point x="488" y="553"/>
      <point x="450" y="605"/>
      <point x="363" y="605" type="curve" smooth="yes"/>
      <point x="248" y="605"/>
      <point x="195" y="515"/>
      <point x="195" y="363" type="curve" smooth="yes"/>
      <point x="195" y="196"/>
      <point x="259" y="109"/>
    </contour>
    <contour>
      <point x="358" y="0" type="curve" smooth="yes"/>
      <point x="183" y="0"/>
      <point x="75" y="145"/>
      <point x="75" y="359" type="curve" smooth="yes"/>
      <point x="75" y="570"/>
      <point x="180" y="715"/>
      <point x="356" y="715" type="curve" smooth="yes"/>
      <point x="530" y="715"/>
      <point x="632" y="572"/>
      <point x="632" y="358" type="curve" smooth="yes"/>
      <point x="632" y="145"/>
      <point x="530" y="0"/>
    </contour>
  </outline>
</glyph>
<glyph name="ordfeminine" format="2">
  <advance width="334"/>
  <unicode hex="00AA"/>
  <anchor x="182" y="381" name="bottom"/>
  <anchor x="254" y="722" name="top"/>
  <outline>
    <contour>
      <point x="149" y="385" type="curve" smooth="yes"/>
      <point x="195" y="385"/>
      <point x="229" y="430"/>
      <point x="252" y="489" type="curve"/>
      <point x="254" y="489" type="line"/>
      <point x="252" y="476"/>
      <point x="250" y="451"/>
      <point x="250" y="440" type="curve" smooth="yes"/>
      <point x="250" y="407"/>
      <point x="268" y="386"/>
      <point x="299" y="386" type="curve" smooth="yes"/>
      <point x="331" y="386"/>
      <point x="352" y="403"/>
      <point x="366" y="420" type="curve"/>
      <point x="361" y="428" type="line"/>
      <point x="349" y="415"/>
      <point x="337" y="402"/>
      <point x="320" y="402" type="curve" smooth="yes"/>
      <point x="308" y="402"/>
      <point x="300" y="410"/>
      <point x="300" y="435" type="curve" smooth="yes"/>
      <point x="300" y="451"/>
      <point x="304" y="472"/>
      <point x="313" y="512" type="curve" smooth="yes"/>
      <point x="360" y="713" type="line"/>
      <point x="350" y="713" type="line"/>
      <point x="309" y="699" type="line"/>
      <point x="294" y="713"/>
      <point x="276" y="720"/>
      <point x="255" y="720" type="curve" smooth="yes"/>
      <point x="144" y="720"/>
      <point x="80" y="588"/>
      <point x="80" y="488" type="curve" smooth="yes"/>
      <point x="80" y="429"/>
      <point x="101" y="385"/>
    </contour>
    <contour>
      <point x="176" y="408" type="curve" smooth="yes"/>
      <point x="158" y="408"/>
      <point x="144" y="426"/>
      <point x="144" y="484" type="curve" smooth="yes"/>
      <point x="144" y="590"/>
      <point x="192" y="710"/>
      <point x="258" y="710" type="curve" smooth="yes"/>
      <point x="272" y="710"/>
      <point x="289" y="704"/>
      <point x="297" y="692" type="curve"/>
      <point x="256" y="528" type="line" smooth="yes"/>
      <point x="240" y="469"/>
      <point x="207" y="408"/>
    </contour>
  </outline>
</glyph>
<glyph name="logicalnot" format="2">
  <advance width="425"/>
  <unicode hex="00AC"/>
  <outline>
    <contour>
      <point x="346" y="99" type="line"/>
      <point x="366" y="99" type="line"/>
      <point x="366" y="376" type="line"/>
      <point x="46" y="376" type="line"/>
      <point x="46" y="356" type="line"/>
      <point x="346" y="356" type="line"/>
    </contour>
  </outline>
</glyph>
<glyph name="registered" format="2">
  <advance width="669"/>
  <unicode hex="00AE"/>
  <outline>
    <contour>
      <point x="357" y="-10" type="curve" smooth="yes"/>
      <point x="517" y="-10"/>
      <point x="634" y="144"/>
      <point x="634" y="357" type="curve" smooth="yes"/>
      <point x="634" y="571"/>
      <point x="517" y="725"/>
      <point x="357" y="725" type="curve" smooth="yes"/>
      <point x="192" y="725"/>
      <point x="73" y="570"/>
      <point x="73" y="358" type="curve" smooth="yes"/>
      <point x="73" y="144"/>
      <point x="192" y="-10"/>
    </contour>
    <contour>
      <point x="359" y="0" type="curve" smooth="yes"/>
      <point x="205" y="0"/>
      <point x="84" y="146"/>
      <point x="84" y="358" type="curve" smooth="yes"/>
      <point x="84" y="565"/>
      <point x="199" y="715"/>
      <point x="357" y="715" type="curve" smooth="yes"/>
      <point x="510" y="715"/>
      <point x="623" y="564"/>
      <point x="623" y="358" type="curve" smooth="yes"/>
      <point x="623" y="151"/>
      <point x="510" y="0"/>
    </contour>
    <contour>
      <point x="209" y="141" type="line"/>
      <point x="347" y="141" type="line"/>
      <point x="347" y="151" type="line"/>
      <point x="334" y="151" type="line" smooth="yes"/>
      <point x="315" y="151"/>
      <point x="299" y="155"/>
      <point x="299" y="178" type="curve" smooth="yes"/>
      <point x="299" y="339" type="line"/>
      <point x="351" y="339" type="line"/>
      <point x="445" y="141" type="line"/>
      <point x="518" y="141" type="line"/>
      <point x="518" y="151" type="line"/>
      <point x="498" y="151"/>
      <point x="489" y="154"/>
      <point x="484" y="164" type="curve" smooth="yes"/>
      <point x="398" y="347" type="line"/>
      <point x="439" y="362"/>
      <point x="475" y="396"/>
      <point x="475" y="461" type="curve" smooth="yes"/>
      <point x="475" y="530"/>
      <point x="433" y="576"/>
      <point x="343" y="576" type="curve" smooth="yes"/>
      <point x="209" y="576" type="line"/>
      <point x="209" y="566" type="line"/>
      <point x="221" y="566" type="line" smooth="yes"/>
      <point x="239" y="566"/>
      <point x="255" y="562"/>
      <point x="255" y="539" type="curve" smooth="yes"/>
      <point x="255" y="178" type="line" smooth="yes"/>
      <point x="255" y="155"/>
      <point x="239" y="151"/>
      <point x="221" y="151" type="curve" smooth="yes"/>
      <point x="209" y="151" type="line"/>
    </contour>
    <contour>
      <point x="338" y="349" type="curve" smooth="yes"/>
      <point x="298" y="349" type="line"/>
      <point x="298" y="566" type="line"/>
      <point x="345" y="566" type="line" smooth="yes"/>
      <point x="398" y="566"/>
      <point x="430" y="529"/>
      <point x="430" y="463" type="curve" smooth="yes"/>
      <point x="430" y="393"/>
      <point x="400" y="349"/>
    </contour>
  </outline>
</glyph>
<glyph name="overscore" format="2">
  <advance width="367"/>
  <unicode hex="00AF"/>
  <outline>
    <contour>
      <point x="105" y="773" type="line"/>
      <point x="477" y="773" type="line"/>
      <point x="481" y="793" type="line"/>
      <point x="110" y="793" type="line"/>
    </contour>
  </outline>
</glyph>
<glyph name="degree" format="2">
  <advance width="316"/>
  <unicode hex="00B0"/>
  <outline>
    <contour>
      <point x="224" y="441" type="curve" smooth="yes"/>
      <point x="293" y="441"/>
      <point x="336" y="495"/>
      <point x="336" y="582" type="curve" smooth="yes"/>
      <point x="336" y="670"/>
      <point x="293" y="724"/>
      <point x="224" y="724" type="curve" smooth="yes"/>
      <point x="155" y="724"/>
      <point x="113" y="670"/>
      <point x="113" y="582" type="curve" smooth="yes"/>
      <point x="113" y="495"/>
      <point x="155" y="441"/>
    </contour>
    <contour>
      <point x="226" y="461" type="curve" smooth="yes"/>
      <point x="168" y="461"/>
      <point x="133" y="508"/>
      <point x="133" y="584" type="curve" smooth="yes"/>
      <point x="133" y="658"/>
      <point x="168" y="704"/>
      <point x="226" y="704" type="curve" smooth="yes"/>
      <point x="282" y="704"/>
      <point x="316" y="658"/>
      <point x="316" y="584" type="curve" smooth="yes"/>
      <point x="316" y="508"/>
      <point x="282" y="461"/>
    </contour>
  </outline>
</glyph>
<glyph name="twosuperior" format="2">
  <advance width="312"/>
  <unicode hex="00B2"/>
  <outline>
    <contour>
      <point x="69" y="387" type="line"/>
      <point x="302" y="387" type="line"/>
      <point x="330" y="506" type="line"/>
      <point x="319" y="506" type="line"/>
      <point x="314" y="486" type="line" smooth="yes"/>
      <point x="302" y="447"/>
      <point x="292" y="441"/>
      <point x="259" y="441" type="curve" smooth="yes"/>
      <point x="103" y="441" type="line"/>
      <point x="218" y="535" type="line" smooth="yes"/>
      <point x="331" y="633"/>
      <point x="363" y="666"/>
      <point x="363" y="729" type="curve" smooth="yes"/>
      <point x="363" y="789"/>
      <point x="323" y="825"/>
      <point x="262" y="825" type="curve" smooth="yes"/>
      <point x="179" y="825"/>
      <point x="134" y="768"/>
      <point x="134" y="716" type="curve" smooth="yes"/>
      <point x="134" y="692"/>
      <point x="151" y="678"/>
      <point x="179" y="678" type="curve"/>
      <point x="182" y="769"/>
      <point x="210" y="815"/>
      <point x="256" y="815" type="curve" smooth="yes"/>
      <point x="288" y="815"/>
      <point x="306" y="787"/>
      <point x="306" y="738" type="curve" smooth="yes"/>
      <point x="306" y="669"/>
      <point x="274" y="616"/>
      <point x="191" y="536" type="curve" smooth="yes"/>
      <point x="77" y="430" type="line"/>
    </contour>
  </outline>
</glyph>
<glyph name="threesuperior" format="2">
  <advance width="312"/>
  <unicode hex="00B3"/>
  <outline>
    <contour>
      <point x="183" y="380" type="curve" smooth="yes"/>
      <point x="274" y="380"/>
      <point x="340" y="434"/>
      <point x="340" y="517" type="curve" smooth="yes"/>
      <point x="340" y="576"/>
      <point x="307" y="602"/>
      <point x="253" y="610" type="curve"/>
      <point x="253" y="614" type="line"/>
      <point x="321" y="627"/>
      <point x="369" y="667"/>
      <point x="369" y="732" type="curve" smooth="yes"/>
      <point x="369" y="788"/>
      <point x="334" y="824"/>
      <point x="265" y="824" type="curve" smooth="yes"/>
      <point x="184" y="824"/>
      <point x="139" y="772"/>
      <point x="139" y="729" type="curve" smooth="yes"/>
      <point x="139" y="703"/>
      <point x="158" y="694"/>
      <point x="184" y="694" type="curve"/>
      <point x="197" y="780"/>
      <point x="222" y="814"/>
      <point x="259" y="814" type="curve" smooth="yes"/>
      <point x="294" y="814"/>
      <point x="310" y="784"/>
      <point x="310" y="745" type="curve" smooth="yes"/>
      <point x="310" y="663"/>
      <point x="264" y="616"/>
      <point x="201" y="616" type="curve" smooth="yes"/>
      <point x="176" y="616" type="line"/>
      <point x="174" y="606" type="line"/>
      <point x="198" y="606" type="line" smooth="yes"/>
      <point x="258" y="606"/>
      <point x="283" y="571"/>
      <point x="283" y="511" type="curve" smooth="yes"/>
      <point x="283" y="430"/>
      <point x="240" y="390"/>
      <point x="187" y="390" type="curve" smooth="yes"/>
      <point x="130" y="390"/>
      <point x="117" y="438"/>
      <point x="122" y="514" type="curve"/>
      <point x="93" y="514"/>
      <point x="73" y="490"/>
      <point x="73" y="458" type="curve" smooth="yes"/>
      <point x="73" y="412"/>
      <point x="112" y="380"/>
    </contour>
  </outline>
</glyph>
<glyph name="acute" format="2">
  <advance width="237"/>
  <unicode hex="00B4"/>
  <outline>
    <contour>
      <point x="114" y="614" type="curve"/>
      <point x="113" y="606" type="line"/>
      <point x="122" y="606" type="line"/>
      <point x="183" y="644"/>
      <point x="273" y="719"/>
      <point x="301" y="757" type="curve"/>
      <point x="302" y="766" type="line"/>
      <point x="216" y="766" type="line"/>
      <point x="188" y="714"/>
      <point x="150" y="654"/>
    </contour>
  </outline>
</glyph>
<glyph name="micro" format="2">
  <advance width="498"/>
  <unicode hex="00B5"/>
  <outline>
    <contour>
      <point x="36" y="-240" type="curve" smooth="yes"/>
      <point x="64" y="-240"/>
      <point x="89" y="-222"/>
      <point x="96" y="-185" type="curve"/>
      <point x="41" y="-185"/>
      <point x="15" y="-167"/>
      <point x="15" y="-114" type="curve" smooth="yes"/>
      <point x="15" y="-66"/>
      <point x="35" y="3"/>
      <point x="58" y="106" type="curve"/>
      <point x="66" y="54"/>
      <point x="81" y="-9"/>
      <point x="166" y="-9" type="curve" smooth="yes"/>
      <point x="225" y="-9"/>
      <point x="269" y="32"/>
      <point x="302" y="138" type="curve"/>
      <point x="305" y="138" type="line"/>
      <point x="305" y="29"/>
      <point x="320" y="-10"/>
      <point x="389" y="-10" type="curve" smooth="yes"/>
      <point x="431" y="-10"/>
      <point x="455" y="6"/>
      <point x="476" y="30" type="curve"/>
      <point x="471" y="39" type="line"/>
      <point x="454" y="18"/>
      <point x="439" y="9"/>
      <point x="422" y="9" type="curve" smooth="yes"/>
      <point x="397" y="9"/>
      <point x="387" y="33"/>
      <point x="387" y="88" type="curve" smooth="yes"/>
      <point x="387" y="128"/>
      <point x="392" y="165"/>
      <point x="404" y="223" type="curve" smooth="yes"/>
      <point x="471" y="536" type="line"/>
      <point x="382" y="536" type="line"/>
      <point x="315" y="219" type="line" smooth="yes"/>
      <point x="291" y="103"/>
      <point x="247" y="7"/>
      <point x="183" y="7" type="curve" smooth="yes"/>
      <point x="153" y="7"/>
      <point x="137" y="33"/>
      <point x="137" y="76" type="curve" smooth="yes"/>
      <point x="137" y="106"/>
      <point x="147" y="148"/>
      <point x="157" y="195" type="curve" smooth="yes"/>
      <point x="233" y="536" type="line"/>
      <point x="145" y="536" type="line"/>
      <point x="76" y="228" type="line" smooth="yes"/>
      <point x="30" y="24"/>
      <point x="-14" y="-114"/>
      <point x="-14" y="-181" type="curve" smooth="yes"/>
      <point x="-14" y="-221"/>
      <point x="7" y="-240"/>
    </contour>
  </outline>
</glyph>
<glyph name="periodcentered" format="2">
  <advance width="231"/>
  <unicode hex="00B7"/>
  <outline>
    <contour>
      <point x="130" y="299" type="curve" smooth="yes"/>
      <point x="159" y="299"/>
      <point x="184" y="325"/>
      <point x="184" y="369" type="curve" smooth="yes"/>
      <point x="184" y="399"/>
      <point x="167" y="416"/>
      <point x="139" y="416" type="curve" smooth="yes"/>
      <point x="105" y="416"/>
      <point x="85" y="384"/>
      <point x="85" y="346" type="curve" smooth="yes"/>
      <point x="85" y="314"/>
      <point x="103" y="299"/>
    </contour>
  </outline>
</glyph>
<glyph name="cedilla" format="2">
  <advance width="267"/>
  <unicode hex="00B8"/>
  <outline>
    <contour>
      <point x="88" y="-231" type="curve" smooth="yes"/>
      <point x="155" y="-231"/>
      <point x="205" y="-193"/>
      <point x="205" y="-126" type="curve" smooth="yes"/>
      <point x="205" y="-79"/>
      <point x="183" y="-46"/>
      <point x="116" y="-44" type="curve"/>
      <point x="139" y="9" type="line"/>
      <point x="129" y="9" type="line"/>
      <point x="103" y="-52" type="line"/>
      <point x="141" y="-56"/>
      <point x="150" y="-85"/>
      <point x="150" y="-119" type="curve" smooth="yes"/>
      <point x="150" y="-188"/>
      <point x="121" y="-218"/>
      <point x="74" y="-218" type="curve" smooth="yes"/>
      <point x="62" y="-218"/>
      <point x="42" y="-216"/>
      <point x="23" y="-210" type="curve"/>
      <point x="20" y="-219" type="line"/>
      <point x="42" y="-227"/>
      <point x="61" y="-231"/>
    </contour>
  </outline>
</glyph>
<glyph name="onesuperior" format="2">
  <advance width="312"/>
  <unicode hex="00B9"/>
  <outline>
    <contour>
      <point x="78" y="387" type="line"/>
      <point x="289" y="387" type="line"/>
      <point x="291" y="397" type="line"/>
      <point x="253" y="397" type="line" smooth="yes"/>
      <point x="234" y="397"/>
      <point x="219" y="399"/>
      <point x="219" y="417" type="curve" smooth="yes"/>
      <point x="219" y="423"/>
      <point x="220" y="429"/>
      <point x="222" y="438" type="curve" smooth="yes"/>
      <point x="302" y="819" type="line"/>
      <point x="282" y="819" type="line"/>
      <point x="240" y="775"/>
      <point x="180" y="742"/>
      <point x="131" y="742" type="curve"/>
      <point x="131" y="722"/>
      <point x="139" y="709"/>
      <point x="156" y="709" type="curve" smooth="yes"/>
      <point x="181" y="709"/>
      <point x="215" y="739"/>
      <point x="239" y="775" type="curve"/>
      <point x="241" y="775" type="line"/>
      <point x="168" y="431" type="line" smooth="yes"/>
      <point x="161" y="400"/>
      <point x="144" y="397"/>
      <point x="123" y="397" type="curve" smooth="yes"/>
      <point x="81" y="397" type="line"/>
    </contour>
  </outline>
</glyph>
<glyph name="ordmasculine" format="2">
  <advance width="332"/>
  <unicode hex="00BA"/>
  <anchor x="187" y="388" name="bottom"/>
  <anchor x="263" y="724" name="top"/>
  <outline>
    <contour>
      <point x="194" y="385" type="curve" smooth="yes"/>
      <point x="312" y="385"/>
      <point x="368" y="518"/>
      <point x="368" y="604" type="curve" smooth="yes"/>
      <point x="368" y="685"/>
      <point x="318" y="721"/>
      <point x="257" y="721" type="curve" smooth="yes"/>
      <point x="143" y="721"/>
      <point x="83" y="595"/>
      <point x="83" y="505" type="curve" smooth="yes"/>
      <point x="83" y="427"/>
      <point x="126" y="385"/>
    </contour>
    <contour>
      <point x="202" y="395" type="curve" smooth="yes"/>
      <point x="167" y="395"/>
      <point x="146" y="427"/>
      <point x="146" y="495" type="curve" smooth="yes"/>
      <point x="146" y="609"/>
      <point x="189" y="711"/>
      <point x="252" y="711" type="curve" smooth="yes"/>
      <point x="289" y="711"/>
      <point x="306" y="676"/>
      <point x="306" y="613" type="curve" smooth="yes"/>
      <point x="306" y="507"/>
      <point x="267" y="395"/>
    </contour>
  </outline>
</glyph>
<glyph name="Aring" format="2">
  <advance width="569"/>
  <unicode hex="00C5"/>
  <anchor x="227" y="0" name="bottom"/>
  <anchor x="392" y="867" name="top"/>
  <anchor x="644" y="714" name="topright"/>
  <outline>
    <contour>
      <point x="-51" y="0" type="line" smooth="yes"/>
      <point x="138" y="0" type="line"/>
      <point x="141" y="10" type="line"/>
      <point x="118" y="10" type="line" smooth="yes"/>
      <point x="65" y="10"/>
      <point x="44" y="15"/>
      <point x="44" y="36" type="curve" smooth="yes"/>
      <point x="44" y="53"/>
      <point x="56" y="76"/>
      <point x="68" y="102" type="curve" smooth="yes"/>
      <point x="251" y="483" type="line" smooth="yes"/>
      <point x="299" y="584"/>
      <point x="322" y="630"/>
      <point x="345" y="679" type="curve"/>
      <point x="345" y="630"/>
      <point x="350" y="534"/>
      <point x="353" y="475" type="curve" smooth="yes"/>
      <point x="375" y="96" type="line" smooth="yes"/>
      <point x="376" y="82"/>
      <point x="377" y="70"/>
      <point x="377" y="59" type="curve" smooth="yes"/>
      <point x="377" y="20"/>
      <point x="356" y="10"/>
      <point x="318" y="10" type="curve" smooth="yes"/>
      <point x="295" y="10" type="line"/>
      <point x="293" y="0" type="line"/>
      <point x="515" y="0" type="line"/>
      <point x="518" y="10" type="line"/>
      <point x="507" y="10" type="line" smooth="yes"/>
      <point x="476" y="10"/>
      <point x="471" y="26"/>
      <point x="466" y="100" type="curve" smooth="yes"/>
      <point x="422" y="708" type="line"/>
      <point x="399" y="703" type="line"/>
      <point x="377" y="703" type="line"/>
      <point x="352" y="714" type="line"/>
      <point x="55" y="100" type="line" smooth="yes"/>
      <point x="16" y="19"/>
      <point x="2" y="10"/>
      <point x="-33" y="10" type="curve" smooth="yes"/>
      <point x="-48" y="10" type="line"/>
    </contour>
    <contour>
      <point x="137" y="259" type="line" smooth="yes"/>
      <point x="417" y="259" type="line"/>
      <point x="416" y="269" type="line"/>
      <point x="141" y="269" type="line"/>
    </contour>
    <component base="ring" xOffset="167" yOffset="91"/>
  </outline>
</glyph>
<glyph name="AE" format="2">
  <advance width="754"/>
  <unicode hex="00C6"/>
  <anchor x="350" y="0" name="bottom"/>
  <anchor x="579" y="714" name="top"/>
  <outline>
    <contour>
      <point x="-57" y="0" type="line"/>
      <point x="155" y="0" type="line"/>
      <point x="157" y="10" type="line"/>
      <point x="109" y="10" type="line" smooth="yes"/>
      <point x="65" y="10"/>
      <point x="44" y="19"/>
      <point x="44" y="36" type="curve" smooth="yes"/>
      <point x="44" y="50"/>
      <point x="50" y="62"/>
      <point x="65" y="87" type="curve" smooth="yes"/>
      <point x="173" y="262" type="line"/>
      <point x="369" y="262" type="line"/>
      <point x="326" y="57" type="line" smooth="yes"/>
      <point x="317" y="17"/>
      <point x="301" y="10"/>
      <point x="253" y="10" type="curve" smooth="yes"/>
      <point x="228" y="10" type="line"/>
      <point x="226" y="0" type="line"/>
      <point x="671" y="0" type="line"/>
      <point x="714" y="175" type="line"/>
      <point x="704" y="175" type="line"/>
      <point x="689" y="127" type="line" smooth="yes"/>
      <point x="662" y="43"/>
      <point x="633" y="10"/>
      <point x="549" y="10" type="curve" smooth="yes"/>
      <point x="405" y="10" type="line"/>
      <point x="482" y="371" type="line"/>
      <point x="671" y="371" type="line"/>
      <point x="672" y="381" type="line"/>
      <point x="484" y="381" type="line"/>
      <point x="552" y="704" type="line"/>
      <point x="691" y="704" type="line" smooth="yes"/>
      <point x="736" y="704"/>
      <point x="763" y="683"/>
      <point x="763" y="627" type="curve" smooth="yes"/>
      <point x="763" y="599"/>
      <point x="756" y="554"/>
      <point x="754" y="539" type="curve"/>
      <point x="764" y="539" type="line"/>
      <point x="797" y="714" type="line"/>
      <point x="338" y="714" type="line"/>
      <point x="336" y="704" type="line"/>
      <point x="430" y="704" type="line"/>
      <point x="54" y="87" type="line" smooth="yes"/>
      <point x="14" y="21"/>
      <point x="-7" y="10"/>
      <point x="-42" y="10" type="curve" smooth="yes"/>
      <point x="-55" y="10" type="line"/>
    </contour>
    <contour>
      <point x="179" y="272" type="line"/>
      <point x="334" y="526" type="line" smooth="yes"/>
      <point x="371" y="587"/>
      <point x="398" y="632"/>
      <point x="442" y="704" type="curve"/>
      <point x="464" y="704" type="line"/>
      <point x="371" y="272" type="line"/>
    </contour>
  </outline>
</glyph>
<glyph name="Eth" format="2">
  <advance width="586"/>
  <unicode hex="00D0"/>
  <anchor x="236" y="0" name="bottom"/>
  <anchor x="388" y="714" name="top"/>
  <anchor x="324" y="357" name="center"/>
  <anchor x="654" y="714" name="topright"/>
  <outline>
    <contour>
      <point x="62" y="373" type="line"/>
      <point x="354" y="373" type="line"/>
      <point x="356" y="383" type="line"/>
      <point x="64" y="383" type="line"/>
    </contour>
    <component base="D"/>
  </outline>
</glyph>
<glyph name="Oslash" format="2">
  <advance width="601"/>
  <unicode hex="00D8"/>
  <anchor x="244" y="0" name="bottom"/>
  <anchor x="396" y="714" name="top"/>
  <anchor x="334" y="357" name="center"/>
  <anchor x="671" y="714" name="topright"/>
  <outline>
    <contour>
      <point x="68" y="-50" type="line"/>
      <point x="80" y="-50" type="line"/>
      <point x="580" y="765" type="line"/>
      <point x="568" y="765" type="line"/>
    </contour>
    <component base="O"/>
  </outline>
</glyph>
<glyph name="Thorn" format="2">
  <advance width="497"/>
  <unicode hex="00DE"/>
  <anchor x="187" y="0" name="bottom"/>
  <anchor x="339" y="714" name="top"/>
  <outline>
    <contour>
      <point x="-22" y="0" type="line"/>
      <point x="228" y="0" type="line"/>
      <point x="230" y="10" type="line"/>
      <point x="205" y="10" type="line" smooth="yes"/>
      <point x="171" y="10"/>
      <point x="154" y="16"/>
      <point x="154" y="37" type="curve" smooth="yes"/>
      <point x="154" y="44"/>
      <point x="156" y="55"/>
      <point x="158" y="67" type="curve" smooth="yes"/>
      <point x="179" y="168" type="line"/>
      <point x="219" y="168" type="line" smooth="yes"/>
      <point x="449" y="168"/>
      <point x="496" y="305"/>
      <point x="496" y="407" type="curve" smooth="yes"/>
      <point x="496" y="529"/>
      <point x="421" y="578"/>
      <point x="300" y="578" type="curve" smooth="yes"/>
      <point x="267" y="578" type="line"/>
      <point x="283" y="651" type="line" smooth="yes"/>
      <point x="292" y="693"/>
      <point x="315" y="704"/>
      <point x="354" y="704" type="curve" smooth="yes"/>
      <point x="370" y="704" type="line"/>
      <point x="372" y="714" type="line"/>
      <point x="129" y="714" type="line"/>
      <point x="127" y="704" type="line"/>
      <point x="142" y="704" type="line" smooth="yes"/>
      <point x="177" y="704"/>
      <point x="195" y="699"/>
      <point x="195" y="673" type="curve" smooth="yes"/>
      <point x="195" y="661"/>
      <point x="192" y="646"/>
      <point x="186" y="624" type="curve" smooth="yes"/>
      <point x="68" y="65" type="line" smooth="yes"/>
      <point x="59" y="21"/>
      <point x="35" y="10"/>
      <point x="-5" y="10" type="curve" smooth="yes"/>
      <point x="-20" y="10" type="line"/>
    </contour>
    <contour>
      <point x="181" y="178" type="line"/>
      <point x="264" y="568" type="line"/>
      <point x="292" y="568" type="line" smooth="yes"/>
      <point x="370" y="568"/>
      <point x="407" y="522"/>
      <point x="407" y="427" type="curve" smooth="yes"/>
      <point x="407" y="298"/>
      <point x="347" y="178"/>
      <point x="204" y="178" type="curve" smooth="yes"/>
    </contour>
  </outline>
</glyph>
<glyph name="germandbls" format="2">
  <advance width="504"/>
  <unicode hex="00DF"/>
  <anchor x="292" y="-10" name="bottom"/>
  <anchor x="362" y="764" name="top"/>
  <outline>
    <contour>
      <point x="-84" y="-240" type="curve" smooth="yes"/>
      <point x="-7" y="-240"/>
      <point x="71" y="-182"/>
      <point x="108" y="-8" type="curve" smooth="yes"/>
      <point x="234" y="589" type="line" smooth="yes"/>
      <point x="258" y="700"/>
      <point x="283" y="755"/>
      <point x="344" y="755" type="curve" smooth="yes"/>
      <point x="394" y="755"/>
      <point x="420" y="723"/>
      <point x="420" y="633" type="curve" smooth="yes"/>
      <point x="420" y="606"/>
      <point x="416" y="579"/>
      <point x="410" y="543" type="curve"/>
      <point x="300" y="543"/>
      <point x="243" y="481"/>
      <point x="243" y="391" type="curve" smooth="yes"/>
      <point x="243" y="327"/>
      <point x="271" y="296"/>
      <point x="319" y="253" type="curve" smooth="yes"/>
      <point x="365" y="212"/>
      <point x="393" y="179"/>
      <point x="393" y="113" type="curve" smooth="yes"/>
      <point x="393" y="39"/>
      <point x="359" y="0"/>
      <point x="310" y="0" type="curve" smooth="yes"/>
      <point x="253" y="0"/>
      <point x="232" y="51"/>
      <point x="232" y="171" type="curve"/>
      <point x="198" y="171"/>
      <point x="173" y="149"/>
      <point x="173" y="104" type="curve" smooth="yes"/>
      <point x="173" y="43"/>
      <point x="215" y="-10"/>
      <point x="298" y="-10" type="curve" smooth="yes"/>
      <point x="395" y="-10"/>
      <point x="461" y="59"/>
      <point x="461" y="157" type="curve" smooth="yes"/>
      <point x="461" y="230"/>
      <point x="426" y="267"/>
      <point x="384" y="303" type="curve" smooth="yes"/>
      <point x="334" y="345"/>
      <point x="317" y="372"/>
      <point x="317" y="416" type="curve" smooth="yes"/>
      <point x="317" y="483"/>
      <point x="357" y="533"/>
      <point x="455" y="533" type="curve" smooth="yes"/>
      <point x="491" y="533" type="line"/>
      <point x="497" y="566"/>
      <point x="501" y="591"/>
      <point x="501" y="619" type="curve" smooth="yes"/>
      <point x="501" y="710"/>
      <point x="450" y="765"/>
      <point x="346" y="765" type="curve" smooth="yes"/>
      <point x="259" y="765"/>
      <point x="176" y="730"/>
      <point x="143" y="577" type="curve" smooth="yes"/>
      <point x="134" y="536" type="line"/>
      <point x="75" y="536" type="line"/>
      <point x="72" y="526" type="line"/>
      <point x="132" y="526" type="line"/>
      <point x="13" y="-40" type="line" smooth="yes"/>
      <point x="-17" y="-182"/>
      <point x="-36" y="-227"/>
      <point x="-92" y="-227" type="curve" smooth="yes"/>
      <point x="-104" y="-227"/>
      <point x="-118" y="-224"/>
      <point x="-127" y="-221" type="curve"/>
      <point x="-131" y="-231" type="line"/>
      <point x="-119" y="-236"/>
      <point x="-103" y="-240"/>
    </contour>
  </outline>
</glyph>
<glyph name="ae" format="2">
  <advance width="660"/>
  <unicode hex="00E6"/>
  <anchor x="285" y="0" name="bottom"/>
  <anchor x="412" y="536" name="top"/>
  <anchor x="684" y="536" name="topright"/>
  <outline>
    <contour>
      <point x="147" y="-10" type="curve" smooth="yes"/>
      <point x="216" y="-10"/>
      <point x="257" y="47"/>
      <point x="299" y="131" type="curve"/>
      <point x="301" y="131" type="line"/>
      <point x="317" y="31"/>
      <point x="376" y="-10"/>
      <point x="456" y="-10" type="curve" smooth="yes"/>
      <point x="537" y="-10"/>
      <point x="592" y="46"/>
      <point x="592" y="95" type="curve" smooth="yes"/>
      <point x="592" y="115"/>
      <point x="585" y="123"/>
      <point x="577" y="127" type="curve"/>
      <point x="555" y="49"/>
      <point x="519" y="1"/>
      <point x="468" y="1" type="curve" smooth="yes"/>
      <point x="412" y="1"/>
      <point x="381" y="57"/>
      <point x="381" y="178" type="curve" smooth="yes"/>
      <point x="381" y="207"/>
      <point x="383" y="230"/>
      <point x="385" y="248" type="curve"/>
      <point x="413" y="248" type="line" smooth="yes"/>
      <point x="561" y="248"/>
      <point x="657" y="326"/>
      <point x="657" y="436" type="curve" smooth="yes"/>
      <point x="657" y="506"/>
      <point x="617" y="546"/>
      <point x="545" y="546" type="curve" smooth="yes"/>
      <point x="488" y="546"/>
      <point x="440" y="522"/>
      <point x="406" y="486" type="curve"/>
      <point x="371" y="531"/>
      <point x="333" y="546"/>
      <point x="281" y="546" type="curve" smooth="yes"/>
      <point x="108" y="546"/>
      <point x="36" y="317"/>
      <point x="36" y="170" type="curve" smooth="yes"/>
      <point x="36" y="46"/>
      <point x="78" y="-10"/>
    </contour>
    <contour>
      <point x="180" y="19" type="curve" smooth="yes"/>
      <point x="142" y="19"/>
      <point x="120" y="66"/>
      <point x="120" y="160" type="curve" smooth="yes"/>
      <point x="120" y="331"/>
      <point x="188" y="530"/>
      <point x="304" y="530" type="curve" smooth="yes"/>
      <point x="340" y="530"/>
      <point x="373" y="516"/>
      <point x="398" y="479" type="curve"/>
      <point x="335" y="417"/>
      <point x="296" y="294"/>
      <point x="296" y="193" type="curve" smooth="yes"/>
      <point x="296" y="174"/>
      <point x="296" y="163"/>
      <point x="297" y="148" type="curve"/>
      <point x="259" y="67"/>
      <point x="223" y="19"/>
    </contour>
    <contour>
      <point x="386" y="258" type="line"/>
      <point x="407" y="417"/>
      <point x="466" y="534"/>
      <point x="532" y="534" type="curve" smooth="yes"/>
      <point x="560" y="534"/>
      <point x="577" y="514"/>
      <point x="577" y="461" type="curve" smooth="yes"/>
      <point x="577" y="345"/>
      <point x="514" y="258"/>
      <point x="399" y="258" type="curve" smooth="yes"/>
    </contour>
  </outline>
</glyph>
<glyph name="eth" format="2">
  <advance width="466"/>
  <unicode hex="00F0"/>
  <anchor x="176" y="0" name="bottom"/>
  <anchor x="338" y="764" name="top"/>
  <outline>
    <contour>
      <point x="197" y="-10" type="curve" smooth="yes"/>
      <point x="353" y="-10"/>
      <point x="439" y="163"/>
      <point x="439" y="361" type="curve" smooth="yes"/>
      <point x="439" y="540"/>
      <point x="352" y="711"/>
      <point x="200" y="761" type="curve"/>
      <point x="197" y="750" type="line"/>
      <point x="300" y="711"/>
      <point x="354" y="556"/>
      <point x="354" y="416" type="curve"/>
      <point x="336" y="487"/>
      <point x="302" y="506"/>
      <point x="258" y="506" type="curve" smooth="yes"/>
      <point x="105" y="506"/>
      <point x="35" y="321"/>
      <point x="35" y="185" type="curve" smooth="yes"/>
      <point x="35" y="54"/>
      <point x="99" y="-10"/>
    </contour>
    <contour>
      <point x="204" y="0" type="curve" smooth="yes"/>
      <point x="150" y="0"/>
      <point x="120" y="48"/>
      <point x="120" y="173" type="curve" smooth="yes"/>
      <point x="120" y="323"/>
      <point x="163" y="493"/>
      <point x="263" y="493" type="curve" smooth="yes"/>
      <point x="324" y="493"/>
      <point x="352" y="437"/>
      <point x="352" y="339" type="curve" smooth="yes"/>
      <point x="352" y="139"/>
      <point x="296" y="0"/>
    </contour>
    <contour>
      <point x="190" y="575" type="line"/>
      <point x="445" y="732" type="line"/>
      <point x="448" y="746" type="line"/>
      <point x="193" y="589" type="line"/>
    </contour>
  </outline>
</glyph>
<glyph name="thorn" format="2">
  <advance width="459"/>
  <unicode hex="00FE"/>
  <anchor x="121" y="-240" name="bottom"/>
  <anchor x="334" y="760" name="top"/>
  <outline>
    <contour>
      <point x="158" y="670" type="curve" smooth="yes"/>
      <point x="-35" y="-240" type="line"/>
      <point x="132" y="-240" type="line"/>
      <point x="135" y="-230" type="line"/>
      <point x="114" y="-230" type="line" smooth="yes"/>
      <point x="76" y="-230"/>
      <point x="63" y="-226"/>
      <point x="63" y="-203" type="curve" smooth="yes"/>
      <point x="63" y="-196"/>
      <point x="64" y="-185"/>
      <point x="67" y="-167" type="curve" smooth="yes"/>
      <point x="93" y="-36" type="line" smooth="yes"/>
      <point x="96" y="-19"/>
      <point x="99" y="-7"/>
      <point x="102" y="14" type="curve"/>
      <point x="122" y="-1"/>
      <point x="146" y="-10"/>
      <point x="179" y="-10" type="curve" smooth="yes"/>
      <point x="349" y="-10"/>
      <point x="436" y="225"/>
      <point x="436" y="386" type="curve" smooth="yes"/>
      <point x="436" y="491"/>
      <point x="401" y="546"/>
      <point x="335" y="546" type="curve" smooth="yes"/>
      <point x="265" y="546"/>
      <point x="210" y="478"/>
      <point x="176" y="380" type="curve"/>
      <point x="173" y="380" type="line"/>
      <point x="193" y="448"/>
      <point x="210" y="504"/>
      <point x="221" y="551" type="curve" smooth="yes"/>
      <point x="266" y="760" type="line"/>
      <point x="102" y="760" type="line"/>
      <point x="98" y="750" type="line"/>
      <point x="127" y="750" type="line" smooth="yes"/>
      <point x="156" y="750"/>
      <point x="165" y="742"/>
      <point x="165" y="722" type="curve" smooth="yes"/>
      <point x="165" y="710"/>
      <point x="162" y="694"/>
    </contour>
    <contour>
      <point x="166" y="2" type="curve" smooth="yes"/>
      <point x="139" y="2"/>
      <point x="116" y="15"/>
      <point x="106" y="28" type="curve"/>
      <point x="167" y="314" type="line" smooth="yes"/>
      <point x="186" y="406"/>
      <point x="240" y="519"/>
      <point x="303" y="519" type="curve" smooth="yes"/>
      <point x="337" y="519"/>
      <point x="352" y="489"/>
      <point x="352" y="405" type="curve" smooth="yes"/>
      <point x="352" y="225"/>
      <point x="280" y="2"/>
    </contour>
  </outline>
</glyph>
<glyph name="dcroat" format="2">
  <advance width="475"/>
  <unicode hex="0111"/>
  <anchor x="180" y="0" name="bottom"/>
  <anchor x="342" y="760" name="top"/>
  <anchor x="291" y="268" name="center"/>
  <anchor x="552" y="760" name="topright"/>
  <outline>
    <contour>
      <point x="263" y="630" type="line"/>
      <point x="543" y="630" type="line"/>
      <point x="545" y="640" type="line"/>
      <point x="265" y="640" type="line"/>
    </contour>
    <component base="d"/>
  </outline>
</glyph>
<glyph name="Hbar" format="2">
  <advance width="641"/>
  <unicode hex="0126"/>
  <anchor x="264" y="0" name="bottom"/>
  <anchor x="416" y="714" name="top"/>
  <anchor x="345" y="357" name="center"/>
  <anchor x="710" y="714" name="topright"/>
  <outline>
    <contour>
      <point x="87" y="523" type="line"/>
      <point x="676" y="523" type="line"/>
      <point x="678" y="533" type="line"/>
      <point x="89" y="533" type="line"/>
    </contour>
    <component base="H" xOffset="2"/>
  </outline>
</glyph>
<glyph name="idotless" format="2">
  <advance width="256"/>
  <unicode hex="0131"/>
  <anchor x="87" y="0" name="bottom"/>
  <anchor x="169" y="536" name="top"/>
  <anchor x="318" y="714" name="topright"/>
  <outline>
    <contour>
      <point x="133" y="-10" type="curve" smooth="yes"/>
      <point x="180" y="-10"/>
      <point x="206" y="13"/>
      <point x="233" y="45" type="curve"/>
      <point x="226" y="53" type="line"/>
      <point x="205" y="28"/>
      <point x="183" y="8"/>
      <point x="163" y="8" type="curve" smooth="yes"/>
      <point x="140" y="8"/>
      <point x="134" y="28"/>
      <point x="134" y="58" type="curve" smooth="yes"/>
      <point x="134" y="76"/>
      <point x="136" y="102"/>
      <point x="145" y="142" type="curve" smooth="yes"/>
      <point x="229" y="536" type="line"/>
      <point x="69" y="536" type="line"/>
      <point x="67" y="526" type="line"/>
      <point x="79" y="526" type="line" smooth="yes"/>
      <point x="118" y="526"/>
      <point x="128" y="517"/>
      <point x="128" y="497" type="curve" smooth="yes"/>
      <point x="128" y="485"/>
      <point x="126" y="471"/>
      <point x="122" y="456" type="curve" smooth="yes"/>
      <point x="68" y="194" type="line" smooth="yes"/>
      <point x="57" y="145"/>
      <point x="51" y="106"/>
      <point x="51" y="79" type="curve" smooth="yes"/>
      <point x="51" y="20"/>
      <point x="79" y="-10"/>
    </contour>
  </outline>
</glyph>
<glyph name="kgreenlandic" format="2">
  <advance width="466"/>
  <unicode hex="0138"/>
  <anchor x="199" y="0" name="bottom"/>
  <anchor x="297" y="536" name="top"/>
  <outline>
    <contour>
      <point x="397" y="-6" type="curve" smooth="yes"/>
      <point x="423" y="-6" type="line"/>
      <point x="425" y="4" type="line"/>
      <point x="384" y="4"/>
      <point x="371" y="34"/>
      <point x="356" y="86" type="curve" smooth="yes"/>
      <point x="281" y="351" type="line"/>
      <point x="266" y="330" type="line"/>
      <point x="400" y="469" type="line" smooth="yes"/>
      <point x="443" y="514"/>
      <point x="473" y="526"/>
      <point x="509" y="526" type="curve"/>
      <point x="511" y="536" type="line"/>
      <point x="329" y="536" type="line"/>
      <point x="327" y="526" type="line"/>
      <point x="390" y="526"/>
      <point x="411" y="523"/>
      <point x="411" y="505" type="curve" smooth="yes"/>
      <point x="411" y="494"/>
      <point x="399" y="480"/>
      <point x="377" y="458" type="curve" smooth="yes"/>
      <point x="158" y="229" type="line"/>
      <point x="177" y="312"/>
      <point x="199" y="411"/>
      <point x="207" y="450" type="curve" smooth="yes"/>
      <point x="225" y="536" type="line"/>
      <point x="69" y="536" type="line"/>
      <point x="66" y="526" type="line"/>
      <point x="86" y="526" type="line" smooth="yes"/>
      <point x="115" y="526"/>
      <point x="124" y="516"/>
      <point x="124" y="499" type="curve" smooth="yes"/>
      <point x="124" y="487"/>
      <point x="121" y="472"/>
      <point x="118" y="457" type="curve" smooth="yes"/>
      <point x="22" y="0" type="line"/>
      <point x="110" y="0" type="line"/>
      <point x="156" y="215" type="line"/>
      <point x="229" y="287" type="line"/>
      <point x="214" y="282" type="line"/>
      <point x="270" y="84" type="line" smooth="yes"/>
      <point x="291" y="6"/>
      <point x="318" y="-6"/>
    </contour>
  </outline>
</glyph>
<glyph name="Lslash" format="2">
  <advance width="503"/>
  <unicode hex="0141"/>
  <anchor x="194" y="0" name="bottom"/>
  <anchor x="346" y="714" name="top"/>
  <anchor x="282" y="357" name="center"/>
  <anchor x="493" y="714" name="topright"/>
  <outline>
    <contour>
      <point x="26" y="261" type="line"/>
      <point x="359" y="433" type="line"/>
      <point x="361" y="446" type="line"/>
      <point x="28" y="273" type="line"/>
    </contour>
    <component base="L"/>
  </outline>
</glyph>
<glyph name="lslash" format="2">
  <advance width="252"/>
  <unicode hex="0142"/>
  <anchor x="69" y="0" name="bottom"/>
  <anchor x="231" y="760" name="top"/>
  <anchor x="193" y="268" name="center"/>
  <anchor x="345" y="760" name="topright"/>
  <outline>
    <contour>
      <point x="0" y="257" type="line"/>
      <point x="255" y="384" type="line"/>
      <point x="257" y="398" type="line"/>
      <point x="3" y="270" type="line"/>
    </contour>
    <component base="l"/>
  </outline>
</glyph>
<glyph name="Eng" format="2">
  <advance width="617"/>
  <unicode hex="014A"/>
  <anchor x="200" y="-240" name="bottom"/>
  <anchor x="403" y="714" name="top"/>
  <outline>
    <contour>
      <point x="312" y="-240" type="curve" smooth="yes"/>
      <point x="386" y="-240"/>
      <point x="419" y="-171"/>
      <point x="454" y="0" type="curve" smooth="yes"/>
      <point x="589" y="632" type="line" smooth="yes"/>
      <point x="603" y="696"/>
      <point x="626" y="704"/>
      <point x="666" y="704" type="curve" smooth="yes"/>
      <point x="697" y="704" type="line"/>
      <point x="699" y="714" type="line"/>
      <point x="504" y="714" type="line"/>
      <point x="502" y="704" type="line"/>
      <point x="531" y="704" type="line" smooth="yes"/>
      <point x="567" y="704"/>
      <point x="582" y="695"/>
      <point x="582" y="671" type="curve" smooth="yes"/>
      <point x="582" y="662"/>
      <point x="581" y="650"/>
      <point x="576" y="627" type="curve" smooth="yes"/>
      <point x="471" y="131" type="line"/>
      <point x="304" y="714" type="line"/>
      <point x="131" y="714" type="line"/>
      <point x="129" y="704" type="line"/>
      <point x="168" y="704" type="line" smooth="yes"/>
      <point x="198" y="704"/>
      <point x="216" y="699"/>
      <point x="216" y="680" type="curve" smooth="yes"/>
      <point x="216" y="673"/>
      <point x="215" y="663"/>
      <point x="211" y="646" type="curve" smooth="yes"/>
      <point x="86" y="62" type="line" smooth="yes"/>
      <point x="76" y="16"/>
      <point x="52" y="10"/>
      <point x="13" y="10" type="curve" smooth="yes"/>
      <point x="-18" y="10" type="line"/>
      <point x="-20" y="0" type="line"/>
      <point x="174" y="0" type="line"/>
      <point x="176" y="10" type="line"/>
      <point x="150" y="10" type="line" smooth="yes"/>
      <point x="114" y="10"/>
      <point x="94" y="17"/>
      <point x="94" y="36" type="curve" smooth="yes"/>
      <point x="94" y="44"/>
      <point x="96" y="56"/>
      <point x="100" y="76" type="curve" smooth="yes"/>
      <point x="229" y="680" type="line"/>
      <point x="439" y="-12" type="line"/>
      <point x="405" y="-193"/>
      <point x="364" y="-230"/>
      <point x="311" y="-230" type="curve" smooth="yes"/>
      <point x="294" y="-230"/>
      <point x="271" y="-225"/>
      <point x="259" y="-219" type="curve"/>
      <point x="256" y="-229" type="line"/>
      <point x="273" y="-236"/>
      <point x="285" y="-240"/>
    </contour>
  </outline>
</glyph>
<glyph name="OE" format="2">
  <advance width="774"/>
  <unicode hex="0152"/>
  <anchor x="336" y="0" name="bottom"/>
  <anchor x="488" y="714" name="top"/>
  <outline>
    <contour>
      <point x="262" y="-11" type="curve" smooth="yes"/>
      <point x="312" y="-11"/>
      <point x="329" y="0"/>
      <point x="360" y="0" type="curve" smooth="yes"/>
      <point x="693" y="0" type="line"/>
      <point x="730" y="153" type="line"/>
      <point x="720" y="153" type="line"/>
      <point x="706" y="104" type="line" smooth="yes"/>
      <point x="684" y="30"/>
      <point x="667" y="10"/>
      <point x="609" y="10" type="curve" smooth="yes"/>
      <point x="426" y="10" type="line"/>
      <point x="502" y="369" type="line"/>
      <point x="692" y="369" type="line"/>
      <point x="693" y="379" type="line"/>
      <point x="504" y="379" type="line"/>
      <point x="573" y="704" type="line"/>
      <point x="732" y="704" type="line" smooth="yes"/>
      <point x="770" y="704"/>
      <point x="788" y="692"/>
      <point x="788" y="644" type="curve" smooth="yes"/>
      <point x="788" y="624"/>
      <point x="783" y="587"/>
      <point x="779" y="561" type="curve"/>
      <point x="789" y="561" type="line"/>
      <point x="818" y="714" type="line"/>
      <point x="492" y="714" type="line"/>
      <point x="463" y="717"/>
      <point x="440" y="725"/>
      <point x="399" y="725" type="curve" smooth="yes"/>
      <point x="173" y="725"/>
      <point x="52" y="471"/>
      <point x="52" y="259" type="curve" smooth="yes"/>
      <point x="52" y="83"/>
      <point x="136" y="-11"/>
    </contour>
    <contour>
      <point x="272" y="-1" type="curve" smooth="yes"/>
      <point x="189" y="-1"/>
      <point x="143" y="76"/>
      <point x="143" y="248" type="curve" smooth="yes"/>
      <point x="143" y="423"/>
      <point x="230" y="715"/>
      <point x="392" y="715" type="curve" smooth="yes"/>
      <point x="429" y="715"/>
      <point x="457" y="705"/>
      <point x="480" y="681" type="curve"/>
      <point x="343" y="37" type="line" smooth="yes"/>
      <point x="321" y="14"/>
      <point x="306" y="-1"/>
    </contour>
  </outline>
</glyph>
<glyph name="oe" format="2">
  <advance width="691"/>
  <unicode hex="0153"/>
  <anchor x="298" y="0" name="bottom"/>
  <anchor x="406" y="536" name="top"/>
  <outline>
    <contour>
      <point x="184" y="-10" type="curve" smooth="yes"/>
      <point x="257" y="-10"/>
      <point x="312" y="42"/>
      <point x="351" y="111" type="curve"/>
      <point x="374" y="27"/>
      <point x="425" y="-10"/>
      <point x="488" y="-10" type="curve" smooth="yes"/>
      <point x="574" y="-10"/>
      <point x="623" y="51"/>
      <point x="623" y="99" type="curve" smooth="yes"/>
      <point x="623" y="117"/>
      <point x="618" y="124"/>
      <point x="611" y="127" type="curve"/>
      <point x="587" y="44"/>
      <point x="550" y="1"/>
      <point x="503" y="1" type="curve" smooth="yes"/>
      <point x="448" y="1"/>
      <point x="415" y="58"/>
      <point x="415" y="176" type="curve" smooth="yes"/>
      <point x="415" y="199"/>
      <point x="418" y="238"/>
      <point x="419" y="248" type="curve"/>
      <point x="429" y="248"/>
      <point x="441" y="248"/>
      <point x="456" y="248" type="curve" smooth="yes"/>
      <point x="585" y="248"/>
      <point x="689" y="318"/>
      <point x="689" y="435" type="curve" smooth="yes"/>
      <point x="689" y="505"/>
      <point x="650" y="546"/>
      <point x="581" y="546" type="curve" smooth="yes"/>
      <point x="507" y="546"/>
      <point x="449" y="489"/>
      <point x="409" y="421" type="curve"/>
      <point x="391" y="509"/>
      <point x="343" y="546"/>
      <point x="281" y="546" type="curve" smooth="yes"/>
      <point x="115" y="546"/>
      <point x="33" y="335"/>
      <point x="33" y="183" type="curve" smooth="yes"/>
      <point x="33" y="53"/>
      <point x="93" y="-10"/>
    </contour>
    <contour>
      <point x="189" y="0" type="curve" smooth="yes"/>
      <point x="143" y="0"/>
      <point x="115" y="38"/>
      <point x="115" y="146" type="curve" smooth="yes"/>
      <point x="115" y="326"/>
      <point x="181" y="536"/>
      <point x="274" y="536" type="curve" smooth="yes"/>
      <point x="325" y="536"/>
      <point x="344" y="482"/>
      <point x="344" y="385" type="curve" smooth="yes"/>
      <point x="344" y="216"/>
      <point x="293" y="0"/>
    </contour>
    <contour>
      <point x="449" y="258" type="curve" smooth="yes"/>
      <point x="421" y="258" type="line"/>
      <point x="443" y="412"/>
      <point x="498" y="534"/>
      <point x="564" y="534" type="curve" smooth="yes"/>
      <point x="596" y="534"/>
      <point x="610" y="509"/>
      <point x="610" y="452" type="curve" smooth="yes"/>
      <point x="610" y="331"/>
      <point x="533" y="258"/>
    </contour>
  </outline>
</glyph>
<glyph name="Tbar" format="2">
  <advance width="497"/>
  <unicode hex="0166"/>
  <anchor x="192" y="0" name="bottom"/>
  <anchor x="344" y="714" name="top"/>
  <anchor x="283" y="357" name="center"/>
  <anchor x="568" y="714" name="topright"/>
  <outline>
    <contour>
      <point x="93" y="355" type="line"/>
      <point x="439" y="355" type="line"/>
      <point x="441" y="365" type="line"/>
      <point x="95" y="365" type="line"/>
    </contour>
    <component base="T" xOffset="1"/>
  </outline>
</glyph>
<glyph name="tbar" format="2">
  <advance width="305"/>
  <unicode hex="0167"/>
  <anchor x="94" y="0" name="bottom"/>
  <anchor x="234" y="659" name="top"/>
  <anchor x="205" y="268" name="center"/>
  <anchor x="360" y="659" name="topright"/>
  <outline>
    <contour>
      <point x="19" y="299" type="line"/>
      <point x="262" y="299" type="line"/>
      <point x="264" y="309" type="line"/>
      <point x="21" y="309" type="line"/>
    </contour>
    <component base="t"/>
  </outline>
</glyph>
<glyph name="longs" format="2">
  <advance width="276"/>
  <unicode hex="017F"/>
  <anchor x="-76" y="-240" name="bottom"/>
  <anchor x="325" y="770" name="top"/>
  <outline>
    <contour>
      <point x="-81" y="-240" type="curve" smooth="yes"/>
      <point x="5" y="-240"/>
      <point x="74" y="-193"/>
      <point x="114" y="-3" type="curve" smooth="yes"/>
      <point x="251" y="641" type="line" smooth="yes"/>
      <point x="270" y="732"/>
      <point x="285" y="760"/>
      <point x="319" y="760" type="curve" smooth="yes"/>
      <point x="355" y="760"/>
      <point x="359" y="721"/>
      <point x="357" y="633" type="curve"/>
      <point x="401" y="633"/>
      <point x="424" y="652"/>
      <point x="424" y="685" type="curve" smooth="yes"/>
      <point x="424" y="734"/>
      <point x="388" y="770"/>
      <point x="320" y="770" type="curve" smooth="yes"/>
      <point x="233" y="770"/>
      <point x="178" y="708"/>
      <point x="153" y="590" type="curve" smooth="yes"/>
      <point x="14" y="-61" type="line" smooth="yes"/>
      <point x="-15" y="-193"/>
      <point x="-39" y="-230"/>
      <point x="-87" y="-230" type="curve" smooth="yes"/>
      <point x="-102" y="-230"/>
      <point x="-115" y="-227"/>
      <point x="-124" y="-222" type="curve"/>
      <point x="-127" y="-232" type="line"/>
      <point x="-116" y="-237"/>
      <point x="-97" y="-240"/>
    </contour>
  </outline>
</glyph>
<glyph name="uni0191" format="2">
  <advance width="603"/>
  <unicode hex="0191"/>
  <anchor x="98" y="-10" name="bottom"/>
  <anchor x="456" y="714" name="top"/>
  <outline>
    <contour>
      <point x="98" y="-10" type="curve" smooth="yes"/>
      <point x="210" y="-10"/>
      <point x="277" y="56"/>
      <point x="300" y="164" type="curve" smooth="yes"/>
      <point x="344" y="367" type="line"/>
      <point x="538" y="367" type="line"/>
      <point x="540" y="377" type="line"/>
      <point x="346" y="377" type="line"/>
      <point x="415" y="704" type="line"/>
      <point x="582" y="704" type="line" smooth="yes"/>
      <point x="619" y="704"/>
      <point x="632" y="685"/>
      <point x="632" y="652" type="curve" smooth="yes"/>
      <point x="632" y="633"/>
      <point x="628" y="600"/>
      <point x="622" y="561" type="curve"/>
      <point x="632" y="561" type="line"/>
      <point x="662" y="714" type="line"/>
      <point x="253" y="714" type="line"/>
      <point x="250" y="704" type="line"/>
      <point x="275" y="704" type="line" smooth="yes"/>
      <point x="304" y="704"/>
      <point x="321" y="700"/>
      <point x="321" y="680" type="curve" smooth="yes"/>
      <point x="321" y="671"/>
      <point x="317" y="653"/>
      <point x="313" y="636" type="curve" smooth="yes"/>
      <point x="202" y="120" type="line" smooth="yes"/>
      <point x="187" y="50"/>
      <point x="164" y="0"/>
      <point x="107" y="0" type="curve" smooth="yes"/>
      <point x="49" y="0"/>
      <point x="23" y="45"/>
      <point x="23" y="136" type="curve" smooth="yes"/>
      <point x="23" y="147"/>
      <point x="23" y="159"/>
      <point x="23" y="170" type="curve"/>
      <point x="-13" y="170"/>
      <point x="-43" y="150"/>
      <point x="-43" y="103" type="curve" smooth="yes"/>
      <point x="-43" y="43"/>
      <point x="6" y="-10"/>
    </contour>
  </outline>
</glyph>
<glyph name="florin" format="2">
  <advance width="349"/>
  <unicode hex="0192"/>
  <anchor x="-12" y="-240" name="bottom"/>
  <anchor x="389" y="770" name="top"/>
  <anchor x="539" y="770" name="topright"/>
  <outline>
    <contour>
      <point x="48" y="-15" type="curve" smooth="yes"/>
      <point x="142" y="-15"/>
      <point x="191" y="45"/>
      <point x="214" y="153" type="curve" smooth="yes"/>
      <point x="293" y="526" type="line"/>
      <point x="386" y="526" type="line"/>
      <point x="388" y="536" type="line"/>
      <point x="295" y="536" type="line"/>
      <point x="319" y="650" type="line" smooth="yes"/>
      <point x="333" y="718"/>
      <point x="350" y="760"/>
      <point x="388" y="760" type="curve" smooth="yes"/>
      <point x="421" y="760"/>
      <point x="428" y="724"/>
      <point x="426" y="633" type="curve"/>
      <point x="468" y="633"/>
      <point x="491" y="652"/>
      <point x="491" y="687" type="curve" smooth="yes"/>
      <point x="491" y="736"/>
      <point x="456" y="770"/>
      <point x="387" y="770" type="curve" smooth="yes"/>
      <point x="293" y="770"/>
      <point x="245" y="709"/>
      <point x="221" y="603" type="curve" smooth="yes"/>
      <point x="206" y="536" type="line"/>
      <point x="131" y="531" type="line"/>
      <point x="130" y="526" type="line"/>
      <point x="203" y="526" type="line"/>
      <point x="116" y="106" type="line" smooth="yes"/>
      <point x="102" y="39"/>
      <point x="85" y="-5"/>
      <point x="47" y="-5" type="curve" smooth="yes"/>
      <point x="14" y="-5"/>
      <point x="6" y="31"/>
      <point x="8" y="122" type="curve"/>
      <point x="-30" y="122"/>
      <point x="-50" y="98"/>
      <point x="-50" y="63" type="curve" smooth="yes"/>
      <point x="-50" y="14"/>
      <point x="-17" y="-15"/>
    </contour>
  </outline>
</glyph>
<glyph name="uni0197" format="2">
  <advance width="312"/>
  <unicode hex="0197"/>
  <anchor x="95" y="0" name="bottom"/>
  <anchor x="247" y="714" name="top"/>
  <anchor x="370" y="714" name="topright"/>
  <outline>
    <contour>
      <point x="38" y="372" type="line"/>
      <point x="308" y="372" type="line"/>
      <point x="310" y="382" type="line"/>
      <point x="40" y="382" type="line"/>
    </contour>
    <component base="I" xOffset="2"/>
  </outline>
</glyph>
<glyph name="Ohorn" format="2">
  <advance width="645"/>
  <unicode hex="01A0"/>
  <anchor x="254" y="0" name="bottom"/>
  <anchor x="406" y="714" name="top"/>
  <outline>
    <contour>
      <point x="257" y="-11" type="curve" smooth="yes"/>
      <point x="487" y="-11"/>
      <point x="590" y="275"/>
      <point x="590" y="477" type="curve" smooth="yes"/>
      <point x="590" y="502"/>
      <point x="588" y="524"/>
      <point x="584" y="544" type="curve"/>
      <point x="660" y="578"/>
      <point x="712" y="649"/>
      <point x="712" y="720" type="curve" smooth="yes"/>
      <point x="712" y="749"/>
      <point x="698" y="770"/>
      <point x="672" y="770" type="curve" smooth="yes"/>
      <point x="646" y="770"/>
      <point x="628" y="753"/>
      <point x="628" y="728" type="curve" smooth="yes"/>
      <point x="628" y="685"/>
      <point x="666" y="678"/>
      <point x="666" y="648" type="curve" smooth="yes"/>
      <point x="666" y="618"/>
      <point x="633" y="580"/>
      <point x="582" y="555" type="curve"/>
      <point x="560" y="676"/>
      <point x="478" y="724"/>
      <point x="384" y="724" type="curve" smooth="yes"/>
      <point x="163" y="724"/>
      <point x="50" y="458"/>
      <point x="50" y="239" type="curve" smooth="yes"/>
      <point x="50" y="70"/>
      <point x="138" y="-11"/>
    </contour>
    <contour>
      <point x="267" y="-1" type="curve" smooth="yes"/>
      <point x="194" y="-1"/>
      <point x="141" y="65"/>
      <point x="141" y="224" type="curve" smooth="yes"/>
      <point x="141" y="402"/>
      <point x="221" y="714"/>
      <point x="380" y="714" type="curve" smooth="yes"/>
      <point x="454" y="714"/>
      <point x="499" y="653"/>
      <point x="499" y="501" type="curve" smooth="yes"/>
      <point x="499" y="319"/>
      <point x="425" y="-1"/>
    </contour>
  </outline>
</glyph>
<glyph name="ohorn" format="2">
  <advance width="496"/>
  <unicode hex="01A1"/>
  <anchor x="197" y="0" name="bottom"/>
  <anchor x="311" y="536" name="top"/>
  <outline>
    <contour>
      <point x="195" y="-10" type="curve" smooth="yes"/>
      <point x="368" y="-10"/>
      <point x="445" y="206"/>
      <point x="445" y="350" type="curve" smooth="yes"/>
      <point x="445" y="370"/>
      <point x="443" y="389"/>
      <point x="440" y="406" type="curve"/>
      <point x="507" y="440"/>
      <point x="559" y="501"/>
      <point x="559" y="577" type="curve" smooth="yes"/>
      <point x="559" y="606"/>
      <point x="544" y="627"/>
      <point x="519" y="627" type="curve" smooth="yes"/>
      <point x="492" y="627"/>
      <point x="474" y="609"/>
      <point x="474" y="581" type="curve" smooth="yes"/>
      <point x="474" y="543"/>
      <point x="510" y="535"/>
      <point x="510" y="506" type="curve" smooth="yes"/>
      <point x="510" y="474"/>
      <point x="479" y="438"/>
      <point x="438" y="417" type="curve"/>
      <point x="421" y="508"/>
      <point x="363" y="546"/>
      <point x="294" y="546" type="curve" smooth="yes"/>
      <point x="120" y="546"/>
      <point x="41" y="332"/>
      <point x="41" y="185" type="curve" smooth="yes"/>
      <point x="41" y="53"/>
      <point x="103" y="-10"/>
    </contour>
    <contour>
      <point x="199" y="0" type="curve" smooth="yes"/>
      <point x="150" y="0"/>
      <point x="122" y="39"/>
      <point x="122" y="147" type="curve" smooth="yes"/>
      <point x="122" y="325"/>
      <point x="188" y="536"/>
      <point x="288" y="536" type="curve" smooth="yes"/>
      <point x="338" y="536"/>
      <point x="363" y="488"/>
      <point x="363" y="385" type="curve" smooth="yes"/>
      <point x="363" y="217"/>
      <point x="305" y="0"/>
    </contour>
  </outline>
</glyph>
<glyph name="Uhorn" format="2">
  <advance width="629"/>
  <unicode hex="01AF"/>
  <anchor x="247" y="0" name="bottom"/>
  <anchor x="399" y="714" name="top"/>
  <outline>
    <contour>
      <point x="250" y="-10" type="curve" smooth="yes"/>
      <point x="386" y="-10"/>
      <point x="438" y="79"/>
      <point x="468" y="219" type="curve" smooth="yes"/>
      <point x="533" y="529" type="line"/>
      <point x="654" y="554"/>
      <point x="713" y="640"/>
      <point x="713" y="716" type="curve" smooth="yes"/>
      <point x="713" y="752"/>
      <point x="697" y="770"/>
      <point x="671" y="770" type="curve" smooth="yes"/>
      <point x="644" y="770"/>
      <point x="627" y="752"/>
      <point x="627" y="724" type="curve" smooth="yes"/>
      <point x="627" y="680"/>
      <point x="666" y="673"/>
      <point x="666" y="641" type="curve" smooth="yes"/>
      <point x="666" y="597"/>
      <point x="602" y="555"/>
      <point x="536" y="540" type="curve"/>
      <point x="572" y="714" type="line"/>
      <point x="463" y="714" type="line"/>
      <point x="461" y="704" type="line"/>
      <point x="483" y="704" type="line" smooth="yes"/>
      <point x="523" y="704"/>
      <point x="549" y="699"/>
      <point x="549" y="667" type="curve" smooth="yes"/>
      <point x="549" y="657"/>
      <point x="547" y="645"/>
      <point x="543" y="627" type="curve" smooth="yes"/>
      <point x="458" y="229" type="line" smooth="yes"/>
      <point x="430" y="99"/>
      <point x="379" y="4"/>
      <point x="269" y="4" type="curve" smooth="yes"/>
      <point x="202" y="4"/>
      <point x="163" y="42"/>
      <point x="163" y="124" type="curve" smooth="yes"/>
      <point x="163" y="161"/>
      <point x="172" y="221"/>
      <point x="180" y="261" type="curve" smooth="yes"/>
      <point x="259" y="630" type="line" smooth="yes"/>
      <point x="272" y="695"/>
      <point x="294" y="704"/>
      <point x="331" y="704" type="curve" smooth="yes"/>
      <point x="355" y="704" type="line"/>
      <point x="357" y="714" type="line"/>
      <point x="110" y="714" type="line"/>
      <point x="108" y="704" type="line"/>
      <point x="128" y="704" type="line" smooth="yes"/>
      <point x="159" y="704"/>
      <point x="176" y="698"/>
      <point x="176" y="674" type="curve" smooth="yes"/>
      <point x="176" y="666"/>
      <point x="173" y="650"/>
      <point x="168" y="625" type="curve" smooth="yes"/>
      <point x="90" y="261" type="line" smooth="yes"/>
      <point x="82" y="221"/>
      <point x="76" y="179"/>
      <point x="76" y="148" type="curve" smooth="yes"/>
      <point x="76" y="48"/>
      <point x="139" y="-10"/>
    </contour>
  </outline>
</glyph>
<glyph name="uhorn" format="2">
  <advance width="539"/>
  <unicode hex="01B0"/>
  <anchor x="205" y="0" name="bottom"/>
  <anchor x="313" y="536" name="top"/>
  <outline>
    <contour>
      <point x="366" y="-10" type="curve" smooth="yes"/>
      <point x="413" y="-10"/>
      <point x="437" y="14"/>
      <point x="460" y="43" type="curve"/>
      <point x="454" y="50" type="line"/>
      <point x="436" y="26"/>
      <point x="416" y="7"/>
      <point x="393" y="7" type="curve" smooth="yes"/>
      <point x="371" y="7"/>
      <point x="366" y="27"/>
      <point x="366" y="60" type="curve" smooth="yes"/>
      <point x="366" y="91"/>
      <point x="372" y="134"/>
      <point x="380" y="174" type="curve" smooth="yes"/>
      <point x="425" y="394" type="line"/>
      <point x="516" y="418"/>
      <point x="588" y="491"/>
      <point x="588" y="577" type="curve" smooth="yes"/>
      <point x="588" y="606"/>
      <point x="573" y="627"/>
      <point x="548" y="627" type="curve" smooth="yes"/>
      <point x="521" y="627"/>
      <point x="503" y="609"/>
      <point x="503" y="581" type="curve" smooth="yes"/>
      <point x="503" y="543"/>
      <point x="539" y="535"/>
      <point x="539" y="506" type="curve" smooth="yes"/>
      <point x="539" y="468"/>
      <point x="492" y="422"/>
      <point x="428" y="405" type="curve"/>
      <point x="454" y="536" type="line"/>
      <point x="367" y="536" type="line"/>
      <point x="300" y="212" type="line" smooth="yes"/>
      <point x="285" y="133"/>
      <point x="232" y="16"/>
      <point x="166" y="16" type="curve" smooth="yes"/>
      <point x="141" y="16"/>
      <point x="128" y="35"/>
      <point x="128" y="80" type="curve" smooth="yes"/>
      <point x="128" y="108"/>
      <point x="137" y="162"/>
      <point x="146" y="203" type="curve" smooth="yes"/>
      <point x="215" y="536" type="line"/>
      <point x="63" y="536" type="line"/>
      <point x="60" y="526" type="line"/>
      <point x="77" y="526" type="line" smooth="yes"/>
      <point x="110" y="526"/>
      <point x="116" y="520"/>
      <point x="116" y="500" type="curve" smooth="yes"/>
      <point x="116" y="488"/>
      <point x="110" y="458"/>
      <point x="104" y="425" type="curve" smooth="yes"/>
      <point x="62" y="222" type="line" smooth="yes"/>
      <point x="54" y="183"/>
      <point x="43" y="128"/>
      <point x="43" y="93" type="curve" smooth="yes"/>
      <point x="43" y="35"/>
      <point x="65" y="-9"/>
      <point x="130" y="-9" type="curve" smooth="yes"/>
      <point x="197" y="-9"/>
      <point x="254" y="40"/>
      <point x="294" y="153" type="curve"/>
      <point x="297" y="153" type="line"/>
      <point x="292" y="126"/>
      <point x="289" y="91"/>
      <point x="289" y="72" type="curve" smooth="yes"/>
      <point x="289" y="26"/>
      <point x="303" y="-10"/>
    </contour>
  </outline>
</glyph>
<glyph name="uni01B5" format="2">
  <advance width="512"/>
  <unicode hex="01B5"/>
  <anchor x="195" y="0" name="bottom"/>
  <anchor x="347" y="714" name="top"/>
  <anchor x="560" y="714" name="topright"/>
  <outline>
    <contour>
      <point x="112" y="372" type="line"/>
      <point x="449" y="372" type="line"/>
      <point x="451" y="382" type="line"/>
      <point x="114" y="382" type="line"/>
    </contour>
    <component base="Z" xOffset="5"/>
  </outline>
</glyph>
<glyph name="uni01E5" format="2">
  <advance width="449"/>
  <unicode hex="01E5"/>
  <anchor x="140" y="-240" name="bottom"/>
  <anchor x="313" y="572" name="top"/>
  <anchor x="531" y="536" name="topright"/>
  <outline>
    <contour>
      <point x="148" y="-97" type="line"/>
      <point x="416" y="-97" type="line"/>
      <point x="418" y="-87" type="line"/>
      <point x="150" y="-87" type="line"/>
    </contour>
    <component base="g" xOffset="23"/>
  </outline>
</glyph>
<glyph name="Aringacute" format="2">
  <advance width="569"/>
  <unicode hex="01FA"/>
  <anchor x="226" y="0" name="bottom"/>
  <anchor x="425" y="958" name="top"/>
  <outline>
    <contour>
      <point x="-50" y="0" type="line"/>
      <point x="138" y="0" type="line"/>
      <point x="141" y="9" type="line"/>
      <point x="103" y="9" type="line" smooth="yes"/>
      <point x="64" y="9"/>
      <point x="50" y="12"/>
      <point x="50" y="29" type="curve" smooth="yes"/>
      <point x="50" y="45"/>
      <point x="60" y="63"/>
      <point x="76" y="93" type="curve" smooth="yes"/>
      <point x="165" y="258" type="line"/>
      <point x="364" y="258" type="line"/>
      <point x="380" y="82" type="line" smooth="yes"/>
      <point x="381" y="70"/>
      <point x="382" y="60"/>
      <point x="382" y="48" type="curve" smooth="yes"/>
      <point x="382" y="17"/>
      <point x="365" y="9"/>
      <point x="324" y="9" type="curve" smooth="yes"/>
      <point x="296" y="9" type="line"/>
      <point x="293" y="0" type="line"/>
      <point x="515" y="0" type="line"/>
      <point x="518" y="9" type="line"/>
      <point x="510" y="9" type="line" smooth="yes"/>
      <point x="482" y="9"/>
      <point x="475" y="23"/>
      <point x="468" y="90" type="curve" smooth="yes"/>
      <point x="412" y="613" type="line"/>
      <point x="444" y="626"/>
      <point x="469" y="654"/>
      <point x="469" y="699" type="curve" smooth="yes"/>
      <point x="469" y="761"/>
      <point x="428" y="794"/>
      <point x="375" y="794" type="curve" smooth="yes"/>
      <point x="322" y="794"/>
      <point x="281" y="758"/>
      <point x="281" y="699" type="curve" smooth="yes"/>
      <point x="281" y="656"/>
      <point x="305" y="625"/>
      <point x="340" y="613" type="curve"/>
      <point x="63" y="91" type="line" smooth="yes"/>
      <point x="24" y="19"/>
      <point x="5" y="9"/>
      <point x="-32" y="9" type="curve" smooth="yes"/>
      <point x="-47" y="9" type="line"/>
    </contour>
    <contour>
      <point x="170" y="268" type="line"/>
      <point x="253" y="423" type="line" smooth="yes"/>
      <point x="296" y="501"/>
      <point x="317" y="546"/>
      <point x="338" y="587" type="curve"/>
      <point x="339" y="536"/>
      <point x="347" y="464"/>
      <point x="351" y="410" type="curve" smooth="yes"/>
      <point x="364" y="268" type="line"/>
    </contour>
    <contour>
      <point x="377" y="617" type="curve" smooth="yes"/>
      <point x="332" y="617"/>
      <point x="292" y="643"/>
      <point x="292" y="699" type="curve" smooth="yes"/>
      <point x="292" y="754"/>
      <point x="328" y="784"/>
      <point x="376" y="784" type="curve" smooth="yes"/>
      <point x="422" y="784"/>
      <point x="458" y="754"/>
      <point x="458" y="699" type="curve" smooth="yes"/>
      <point x="458" y="644"/>
      <point x="423" y="617"/>
    </contour>
    <contour>
      <point x="353" y="838" type="curve"/>
      <point x="351" y="831" type="line"/>
      <point x="359" y="831" type="line"/>
      <point x="419" y="856"/>
      <point x="505" y="918"/>
      <point x="536" y="946" type="curve"/>
      <point x="539" y="954" type="line"/>
      <point x="444" y="954" type="line"/>
      <point x="421" y="916"/>
      <point x="385" y="867"/>
    </contour>
  </outline>
</glyph>
<glyph name="jdotless" format="2">
  <advance width="254"/>
  <unicode hex="0237"/>
  <anchor x="-5" y="-240" name="bottom"/>
  <anchor x="167" y="536" name="top"/>
  <anchor x="313" y="714" name="topright"/>
  <outline>
    <contour>
      <point x="-67" y="-240" type="curve" smooth="yes"/>
      <point x="20" y="-240"/>
      <point x="74" y="-179"/>
      <point x="111" y="-4" type="curve" smooth="yes"/>
      <point x="226" y="536" type="line"/>
      <point x="68" y="536" type="line"/>
      <point x="65" y="526" type="line"/>
      <point x="76" y="526" type="line" smooth="yes"/>
      <point x="112" y="526"/>
      <point x="124" y="518"/>
      <point x="124" y="491" type="curve" smooth="yes"/>
      <point x="124" y="475"/>
      <point x="120" y="458"/>
      <point x="115" y="436" type="curve" smooth="yes"/>
      <point x="14" y="-38" type="line" smooth="yes"/>
      <point x="-15" y="-177"/>
      <point x="-33" y="-227"/>
      <point x="-87" y="-227" type="curve" smooth="yes"/>
      <point x="-99" y="-227"/>
      <point x="-116" y="-224"/>
      <point x="-125" y="-221" type="curve"/>
      <point x="-128" y="-231" type="line"/>
      <point x="-108" y="-237"/>
      <point x="-92" y="-240"/>
    </contour>
  </outline>
</glyph>
<glyph name="uni023C" format="2">
  <advance width="415"/>
  <unicode hex="023C"/>
  <anchor x="134" y="-202" name="bottom"/>
  <anchor x="332" y="714" name="top"/>
  <anchor x="447" y="536" name="topright"/>
  <outline>
    <contour>
      <point x="28" y="-134" type="line"/>
      <point x="41" y="-134" type="line"/>
      <point x="441" y="697" type="line"/>
      <point x="429" y="697" type="line"/>
    </contour>
    <component base="c" xOffset="11"/>
  </outline>
</glyph>
<glyph name="uni0244" format="2">
  <advance width="578"/>
  <unicode hex="0244"/>
  <anchor x="230" y="0" name="bottom"/>
  <anchor x="382" y="714" name="top"/>
  <anchor x="704" y="714" name="topright"/>
  <outline>
    <contour>
      <point x="38" y="377" type="line"/>
      <point x="604" y="377" type="line"/>
      <point x="606" y="387" type="line"/>
      <point x="40" y="387" type="line"/>
    </contour>
    <component base="U" xOffset="-7"/>
  </outline>
</glyph>
<glyph name="uni0246" format="2">
  <advance width="495"/>
  <unicode hex="0246"/>
  <anchor x="169" y="-138" name="bottom"/>
  <anchor x="348" y="714" name="top"/>
  <anchor x="573" y="714" name="topright"/>
  <outline>
    <contour>
      <point x="129" y="-94" type="line"/>
      <point x="142" y="-94" type="line"/>
      <point x="502" y="760" type="line"/>
      <point x="490" y="760" type="line"/>
    </contour>
    <component base="E" xOffset="1"/>
  </outline>
</glyph>
<glyph name="uni0247" format="2">
  <advance width="400"/>
  <unicode hex="0247"/>
  <anchor x="104" y="-214" name="bottom"/>
  <anchor x="301" y="710" name="top"/>
  <anchor x="434" y="536" name="topright"/>
  <outline>
    <contour>
      <point x="-11" y="-134" type="line"/>
      <point x="1" y="-134" type="line"/>
      <point x="402" y="697" type="line"/>
      <point x="390" y="697" type="line"/>
    </contour>
    <component base="e"/>
  </outline>
</glyph>
<glyph name="uni0249" format="2">
  <advance width="237"/>
  <unicode hex="0249"/>
  <anchor x="7" y="-240" name="bottom"/>
  <anchor x="218" y="755" name="top"/>
  <anchor x="318" y="755" name="topright"/>
  <outline>
    <contour>
      <point x="2" y="275" type="line"/>
      <point x="237" y="275" type="line"/>
      <point x="239" y="285" type="line"/>
      <point x="4" y="285" type="line"/>
    </contour>
    <component base="j" xOffset="-5"/>
  </outline>
</glyph>
<glyph name="uni024F" format="2">
  <advance width="432"/>
  <unicode hex="024F"/>
  <anchor x="33" y="-240" name="bottom"/>
  <anchor x="242" y="536" name="top"/>
  <anchor x="465" y="536" name="topright"/>
  <outline>
    <contour>
      <point x="15" y="317" type="line"/>
      <point x="446" y="317" type="line"/>
      <point x="448" y="327" type="line"/>
      <point x="17" y="327" type="line"/>
    </contour>
    <component base="y" xOffset="-6"/>
  </outline>
</glyph>
<glyph name="eopenreversedhook" format="2">
  <advance width="592"/>
  <unicode hex="025D"/>
  <anchor x="148" y="0" name="bottom"/>
  <anchor x="238" y="536" name="top"/>
  <outline>
    <contour>
      <point x="532" y="248" type="curve" smooth="yes"/>
      <point x="567" y="248"/>
      <point x="593" y="272"/>
      <point x="593" y="304" type="curve" smooth="yes"/>
      <point x="593" y="326"/>
      <point x="582" y="340"/>
      <point x="567" y="347" type="curve"/>
      <point x="561" y="321"/>
      <point x="544" y="300"/>
      <point x="515" y="300" type="curve" smooth="yes"/>
      <point x="480" y="300"/>
      <point x="459" y="326"/>
      <point x="447" y="375" type="curve" smooth="yes"/>
      <point x="438" y="413" type="line"/>
      <point x="331" y="374" type="line"/>
      <point x="331" y="366" type="line"/>
      <point x="431" y="403" type="line"/>
      <point x="446" y="341" type="line" smooth="yes"/>
      <point x="460" y="283"/>
      <point x="483" y="248"/>
    </contour>
    <component base="afii10073"/>
  </outline>
</glyph>
<glyph name="rlongleg" format="2">
  <advance width="386"/>
  <unicode hex="027C"/>
  <anchor x="77" y="-240" name="bottom"/>
  <anchor x="242" y="536" name="top"/>
  <outline>
    <contour>
      <point x="-36" y="-240" type="line"/>
      <point x="50" y="-240" type="line"/>
      <point x="168" y="304" type="line" smooth="yes"/>
      <point x="195" y="426"/>
      <point x="250" y="523"/>
      <point x="304" y="523" type="curve" smooth="yes"/>
      <point x="342" y="523"/>
      <point x="337" y="463"/>
      <point x="337" y="406" type="curve"/>
      <point x="375" y="406"/>
      <point x="408" y="428"/>
      <point x="408" y="474" type="curve" smooth="yes"/>
      <point x="408" y="517"/>
      <point x="382" y="546"/>
      <point x="333" y="546" type="curve" smooth="yes"/>
      <point x="269" y="546"/>
      <point x="220" y="496"/>
      <point x="185" y="389" type="curve"/>
      <point x="183" y="389" type="line"/>
      <point x="208" y="536" type="line"/>
      <point x="62" y="536" type="line"/>
      <point x="59" y="526" type="line"/>
      <point x="73" y="526" type="line" smooth="yes"/>
      <point x="104" y="526"/>
      <point x="116" y="519"/>
      <point x="116" y="495" type="curve" smooth="yes"/>
      <point x="116" y="482"/>
      <point x="113" y="465"/>
      <point x="108" y="443" type="curve" smooth="yes"/>
    </contour>
  </outline>
</glyph>
<glyph name="rfishhookreversed" format="2">
  <advance width="322"/>
  <unicode hex="027F"/>
  <anchor x="36" y="-240" name="bottom"/>
  <anchor x="203" y="542" name="top"/>
  <outline>
    <contour>
      <point x="60" y="-240" type="line"/>
      <point x="149" y="-240" type="line"/>
      <point x="266" y="296" type="line" smooth="yes"/>
      <point x="279" y="354"/>
      <point x="283" y="376"/>
      <point x="283" y="409" type="curve" smooth="yes"/>
      <point x="283" y="497"/>
      <point x="235" y="546"/>
      <point x="148" y="546" type="curve" smooth="yes"/>
      <point x="75" y="546"/>
      <point x="19" y="510"/>
      <point x="19" y="455" type="curve" smooth="yes"/>
      <point x="19" y="418"/>
      <point x="40" y="399"/>
      <point x="81" y="398" type="curve"/>
      <point x="93" y="506"/>
      <point x="116" y="536"/>
      <point x="156" y="536" type="curve" smooth="yes"/>
      <point x="193" y="536"/>
      <point x="207" y="509"/>
      <point x="207" y="467" type="curve" smooth="yes"/>
      <point x="207" y="437"/>
      <point x="203" y="406"/>
      <point x="195" y="368" type="curve" smooth="yes"/>
    </contour>
  </outline>
</glyph>
<glyph name="eshsquatreversed" format="2">
  <advance width="320"/>
  <unicode hex="0285"/>
  <anchor x="18" y="-240" name="bottom"/>
  <anchor x="183" y="536" name="top"/>
  <outline>
    <contour>
      <point x="186" y="-240" type="curve" smooth="yes"/>
      <point x="259" y="-240"/>
      <point x="303" y="-208"/>
      <point x="303" y="-151" type="curve" smooth="yes"/>
      <point x="303" y="-124"/>
      <point x="291" y="-98"/>
      <point x="252" y="-97" type="curve"/>
      <point x="238" y="-202"/>
      <point x="215" y="-230"/>
      <point x="178" y="-230" type="curve" smooth="yes"/>
      <point x="149" y="-230"/>
      <point x="134" y="-212"/>
      <point x="134" y="-174" type="curve" smooth="yes"/>
      <point x="134" y="-147"/>
      <point x="144" y="-102"/>
      <point x="152" y="-65" type="curve" smooth="yes"/>
      <point x="230" y="269" type="line" smooth="yes"/>
      <point x="244" y="331"/>
      <point x="249" y="371"/>
      <point x="249" y="406" type="curve" smooth="yes"/>
      <point x="249" y="499"/>
      <point x="207" y="546"/>
      <point x="125" y="546" type="curve" smooth="yes"/>
      <point x="67" y="546"/>
      <point x="15" y="520"/>
      <point x="15" y="460" type="curve" smooth="yes"/>
      <point x="15" y="432"/>
      <point x="29" y="410"/>
      <point x="67" y="409" type="curve"/>
      <point x="82" y="518"/>
      <point x="103" y="536"/>
      <point x="129" y="536" type="curve" smooth="yes"/>
      <point x="162" y="536"/>
      <point x="174" y="504"/>
      <point x="174" y="464" type="curve" smooth="yes"/>
      <point x="174" y="432"/>
      <point x="170" y="403"/>
      <point x="163" y="368" type="curve" smooth="yes"/>
      <point x="85" y="28" type="line" smooth="yes"/>
      <point x="74" y="-21"/>
      <point x="63" y="-76"/>
      <point x="63" y="-112" type="curve" smooth="yes"/>
      <point x="63" y="-205"/>
      <point x="114" y="-240"/>
    </contour>
  </outline>
</glyph>
<glyph name="eshcurl" format="2">
  <advance width="277"/>
  <unicode hex="0286"/>
  <anchor x="21" y="-240" name="bottom"/>
  <anchor x="236" y="770" name="top"/>
  <outline>
    <contour>
      <point x="-65" y="-240" type="curve" smooth="yes"/>
      <point x="23" y="-240"/>
      <point x="61" y="-161"/>
      <point x="88" y="-82" type="curve"/>
      <point x="117" y="-104"/>
      <point x="139" y="-137"/>
      <point x="159" y="-189" type="curve"/>
      <point x="168" y="-186" type="line"/>
      <point x="149" y="-133"/>
      <point x="124" y="-94"/>
      <point x="92" y="-70" type="curve"/>
      <point x="104" y="-43"/>
      <point x="113" y="-10"/>
      <point x="120" y="26" type="curve" smooth="yes"/>
      <point x="253" y="656" type="line" smooth="yes"/>
      <point x="272" y="745"/>
      <point x="295" y="760"/>
      <point x="316" y="760" type="curve" smooth="yes"/>
      <point x="343" y="760"/>
      <point x="344" y="700"/>
      <point x="344" y="643" type="curve"/>
      <point x="387" y="645"/>
      <point x="411" y="665"/>
      <point x="411" y="697" type="curve" smooth="yes"/>
      <point x="411" y="738"/>
      <point x="375" y="770"/>
      <point x="309" y="770" type="curve" smooth="yes"/>
      <point x="233" y="770"/>
      <point x="180" y="729"/>
      <point x="152" y="597" type="curve" smooth="yes"/>
      <point x="20" y="-37" type="line"/>
      <point x="5" y="-34"/>
      <point x="-11" y="-32"/>
      <point x="-27" y="-32" type="curve" smooth="yes"/>
      <point x="-111" y="-32"/>
      <point x="-157" y="-74"/>
      <point x="-157" y="-146" type="curve" smooth="yes"/>
      <point x="-157" y="-201"/>
      <point x="-130" y="-240"/>
    </contour>
    <contour>
      <point x="-75" y="-230" type="curve" smooth="yes"/>
      <point x="-116" y="-230"/>
      <point x="-144" y="-200"/>
      <point x="-144" y="-144" type="curve" smooth="yes"/>
      <point x="-144" y="-73"/>
      <point x="-98" y="-42"/>
      <point x="-28" y="-42" type="curve" smooth="yes"/>
      <point x="-12" y="-42"/>
      <point x="3" y="-44"/>
      <point x="19" y="-47" type="curve"/>
      <point x="-1" y="-145"/>
      <point x="-15" y="-230"/>
    </contour>
  </outline>
</glyph>
